STARTFONT 2.1
FONT -HKU-Fixed-Medium-R-Normal--16-160-72-72-C-160-CNS11643.1992-2
SIZE 16 72 72
FONTBOUNDINGBOX 16 16 0 -2
STARTPROPERTIES 19
FONTNAME_REGISTRY ""
FOUNDRY "HKU"
FAMILY_NAME "Fixed"
WEIGHT_NAME "Medium"
SLANT "R"
SETWIDTH_NAME "Normal"
ADD_STYLE_NAME ""
PIXEL_SIZE 16
POINT_SIZE 160
RESOLUTION_X 72
RESOLUTION_Y 72
SPACING "C"
AVERAGE_WIDTH 160
CHARSET_REGISTRY "CNS11643.1992"
CHARSET_ENCODING "2"
FONT_ASCENT 14
FONT_DESCENT 2
DEFAULT_CHAR 8481
COPYRIGHT "Society of HKU Postgrad."
ENDPROPERTIES
CHARS 7650
STARTCHAR 01-01
ENCODING 8481
SWIDTH 96 0
DWIDTH 16 0
BBX 16 16 0 -2
BITMAP
0004
0004
2004
1004
0808
0410
0220
0140
0080
0140
0220
0410
0808
7007
0000
0000
ENDCHAR
STARTCHAR 01-02
ENCODING 8482
SWIDTH 96 0
DWIDTH 16 0
BBX 16 16 0 -2
BITMAP
1000
1000
1000
1000
7ffe
1004
1008
1010
1020
1000
1001
1001
1001
1fff
0000
0000
ENDCHAR
STARTCHAR 01-03
ENCODING 8483
SWIDTH 96 0
DWIDTH 16 0
BBX 16 16 0 -2
BITMAP
0000
2002
2002
2002
2002
2002
2002
2002
2002
2002
2002
3ffe
2002
0000
0000
0000
ENDCHAR
STARTCHAR 01-04
ENCODING 8484
SWIDTH 96 0
DWIDTH 16 0
BBX 16 16 0 -2
BITMAP
0002
3fff
2000
2000
2000
2000
2000
2000
2000
2000
2000
2002
3fff
2000
0000
0000
ENDCHAR
STARTCHAR 01-05
ENCODING 8485
SWIDTH 96 0
DWIDTH 16 0
BBX 16 16 0 -2
BITMAP
0000
0004
0ffe
0800
0800
0800
0800
0800
0800
1000
1000
2000
4000
0000
0000
0000
ENDCHAR
STARTCHAR 01-06
ENCODING 8486
SWIDTH 96 0
DWIDTH 16 0
BBX 16 16 0 -2
BITMAP
0002
7fff
0400
0400
07fc
0404
0404
0404
0804
1004
2004
4008
0090
0060
0000
0000
ENDCHAR
STARTCHAR 01-07
ENCODING 8487
SWIDTH 96 0
DWIDTH 16 0
BBX 16 16 0 -2
BITMAP
0002
7fff
0410
0410
0410
0410
0410
0410
0410
0410
0810
1010
2010
0010
0000
0000
ENDCHAR
STARTCHAR 01-08
ENCODING 8488
SWIDTH 96 0
DWIDTH 16 0
BBX 16 16 0 -2
BITMAP
0008
01fc
3f00
0100
0100
0104
01fe
7f00
0100
0100
0100
0101
0101
00ff
0000
0000
ENDCHAR
STARTCHAR 01-09
ENCODING 8489
SWIDTH 96 0
DWIDTH 16 0
BBX 16 16 0 -2
BITMAP
0008
1ffc
0000
0002
7fff
0080
0080
0080
0080
0080
0080
0080
0280
0100
0000
0000
ENDCHAR
STARTCHAR 01-10
ENCODING 8490
SWIDTH 96 0
DWIDTH 16 0
BBX 16 16 0 -2
BITMAP
0002
3fff
2002
2002
2002
2002
2002
2002
2002
2002
2002
2002
3ffe
2002
0000
0000
ENDCHAR
STARTCHAR 01-11
ENCODING 8491
SWIDTH 96 0
DWIDTH 16 0
BBX 16 16 0 -2
BITMAP
0080
2082
2082
2082
2082
2082
3ffe
2082
0080
0080
0080
0080
0080
0080
0000
0000
ENDCHAR
STARTCHAR 01-12
ENCODING 8492
SWIDTH 96 0
DWIDTH 16 0
BBX 16 16 0 -2
BITMAP
0040
0080
0100
0210
0420
1840
0080
0180
0280
0480
3880
0080
0080
0080
0000
0000
ENDCHAR
STARTCHAR 01-13
ENCODING 8493
SWIDTH 96 0
DWIDTH 16 0
BBX 16 16 0 -2
BITMAP
0002
7fff
0080
0080
10fc
1084
1084
1084
1ffc
0004
0004
0008
0090
0060
0000
0000
ENDCHAR
STARTCHAR 01-14
ENCODING 8494
SWIDTH 96 0
DWIDTH 16 0
BBX 16 16 0 -2
BITMAP
0100
0102
7fff
0200
0400
0ffc
1404
2404
0404
0404
0404
0404
0814
0008
0000
0000
ENDCHAR
STARTCHAR 01-15
ENCODING 8495
SWIDTH 96 0
DWIDTH 16 0
BBX 16 16 0 -2
BITMAP
2000
2000
3ffc
2000
4000
7fff
0001
0001
0021
7ff1
0002
0004
0048
0030
0000
0000
ENDCHAR
STARTCHAR 01-16
ENCODING 8496
SWIDTH 96 0
DWIDTH 16 0
BBX 16 16 0 -2
BITMAP
0004
3ffe
0004
0104
0104
1ff4
0104
0104
0104
1ff4
0105
0105
0103
0101
0000
0000
ENDCHAR
STARTCHAR 01-17
ENCODING 8497
SWIDTH 96 0
DWIDTH 16 0
BBX 16 16 0 -2
BITMAP
0008
1ffc
0000
0002
7fff
0220
0220
0220
0220
0220
0420
0420
0820
1020
0000
0000
ENDCHAR
STARTCHAR 01-18
ENCODING 8498
SWIDTH 96 0
DWIDTH 16 0
BBX 16 16 0 -2
BITMAP
0440
0440
0440
0842
0bff
1842
2842
4842
0842
0882
0882
0924
0a14
0c08
0000
0000
ENDCHAR
STARTCHAR 01-19
ENCODING 8499
SWIDTH 96 0
DWIDTH 16 0
BBX 16 16 0 -2
BITMAP
0400
0408
04fc
0888
1888
2888
4888
0888
0888
0888
0909
0909
0a09
0c07
0000
0000
ENDCHAR
STARTCHAR 01-20
ENCODING 8500
SWIDTH 96 0
DWIDTH 16 0
BBX 16 16 0 -2
BITMAP
0400
0400
0878
1008
3008
5088
1088
1088
1088
1088
1104
1202
1401
1000
0000
0000
ENDCHAR
STARTCHAR 01-21
ENCODING 8501
SWIDTH 96 0
DWIDTH 16 0
BBX 16 16 0 -2
BITMAP
0080
0080
3ffe
2082
2084
2088
0080
00c0
0140
0240
0440
0841
1041
207f
0000
0000
ENDCHAR
STARTCHAR 01-22
ENCODING 8502
SWIDTH 96 0
DWIDTH 16 0
BBX 16 16 0 -2
BITMAP
1000
1000
1fff
2401
4401
1fc1
0441
0449
0449
0849
1079
2002
0024
0018
0000
0000
ENDCHAR
STARTCHAR 01-23
ENCODING 8503
SWIDTH 96 0
DWIDTH 16 0
BBX 16 16 0 -2
BITMAP
0100
067f
7821
2021
2021
2021
2221
2421
2822
302c
2020
0020
0020
0020
0000
0000
ENDCHAR
STARTCHAR 01-24
ENCODING 8504
SWIDTH 96 0
DWIDTH 16 0
BBX 16 16 0 -2
BITMAP
0400
0400
0400
3ff0
0410
0411
0811
1011
621f
0400
0820
1010
7ff8
0004
0000
0000
ENDCHAR
STARTCHAR 01-25
ENCODING 8505
SWIDTH 96 0
DWIDTH 16 0
BBX 16 16 0 -2
BITMAP
0020
0820
0820
0820
7f20
0820
0820
0820
0920
0a20
0c21
7821
0021
001f
0000
0000
ENDCHAR
STARTCHAR 01-26
ENCODING 8506
SWIDTH 96 0
DWIDTH 16 0
BBX 16 16 0 -2
BITMAP
7ffe
1004
1008
1010
101f
1fc1
2841
4881
0501
0201
0501
18c2
0004
0038
0000
0000
ENDCHAR
STARTCHAR 01-27
ENCODING 8507
SWIDTH 96 0
DWIDTH 16 0
BBX 16 16 0 -2
BITMAP
0080
0080
1ff8
0088
0088
0088
7fff
0080
0140
0220
0410
0808
1004
6003
0000
0000
ENDCHAR
STARTCHAR 01-28
ENCODING 8508
SWIDTH 96 0
DWIDTH 16 0
BBX 16 16 0 -2
BITMAP
0080
0080
0888
1084
2082
4081
1080
0880
0480
0200
0100
0080
0040
003f
0000
0000
ENDCHAR
STARTCHAR 01-29
ENCODING 8509
SWIDTH 96 0
DWIDTH 16 0
BBX 16 16 0 -2
BITMAP
0080
0082
7fff
0080
0080
1ffc
1084
1084
1084
1084
1094
1088
0080
0080
0000
0000
ENDCHAR
STARTCHAR 01-30
ENCODING 8510
SWIDTH 96 0
DWIDTH 16 0
BBX 16 16 0 -2
BITMAP
0008
3ffc
1080
1080
1080
1082
7fff
0080
0140
0240
0441
0841
1041
607f
0000
0000
ENDCHAR
STARTCHAR 01-31
ENCODING 8511
SWIDTH 96 0
DWIDTH 16 0
BBX 16 16 0 -2
BITMAP
0010
07f8
0410
0410
0410
080f
7000
07f8
0408
0210
0120
00c0
0120
3e1f
0000
0000
ENDCHAR
STARTCHAR 01-32
ENCODING 8512
SWIDTH 96 0
DWIDTH 16 0
BBX 16 16 0 -2
BITMAP
1ffc
1084
1084
1084
1084
7fff
1084
1084
1084
1084
3fff
1108
0250
0420
0000
0000
ENDCHAR
STARTCHAR 01-33
ENCODING 8513
SWIDTH 96 0
DWIDTH 16 0
BBX 16 16 0 -2
BITMAP
1000
1004
1ffe
1000
2ff8
4000
1ff8
0008
0008
0008
0009
0009
0005
0003
0000
0000
ENDCHAR
STARTCHAR 01-34
ENCODING 8514
SWIDTH 96 0
DWIDTH 16 0
BBX 16 16 0 -2
BITMAP
0804
0804
0804
0804
0ffc
0004
0004
3ffc
0404
0404
0404
0804
1004
2004
0000
0000
ENDCHAR
STARTCHAR 01-35
ENCODING 8515
SWIDTH 96 0
DWIDTH 16 0
BBX 16 16 0 -2
BITMAP
0220
0220
4221
4221
4221
4221
4221
7e3f
0220
0220
0420
0820
1020
2020
0000
0000
ENDCHAR
STARTCHAR 01-36
ENCODING 8516
SWIDTH 96 0
DWIDTH 16 0
BBX 16 16 0 -2
BITMAP
0410
0410
0410
3ffe
0510
0490
0450
0410
7fff
0410
0410
0810
1010
2010
0000
0000
ENDCHAR
STARTCHAR 01-37
ENCODING 8517
SWIDTH 96 0
DWIDTH 16 0
BBX 16 16 0 -2
BITMAP
0400
0404
05fe
0800
1800
2804
49fe
0800
0800
0800
0802
0fff
0800
0800
0000
0000
ENDCHAR
STARTCHAR 01-38
ENCODING 8518
SWIDTH 96 0
DWIDTH 16 0
BBX 16 16 0 -2
BITMAP
0400
0400
0804
13fe
6020
1020
1020
1020
1020
1020
1020
1022
17ff
1000
0000
0000
ENDCHAR
STARTCHAR 01-39
ENCODING 8519
SWIDTH 96 0
DWIDTH 16 0
BBX 16 16 0 -2
BITMAP
0400
0440
0840
1040
3040
5044
107e
1040
1040
1040
1040
1040
1042
17ff
0000
0000
ENDCHAR
STARTCHAR 01-40
ENCODING 8520
SWIDTH 96 0
DWIDTH 16 0
BBX 16 16 0 -2
BITMAP
0900
0902
09ff
1200
34fe
5004
1008
1010
1020
1040
1081
1101
1101
10ff
0000
0000
ENDCHAR
STARTCHAR 01-41
ENCODING 8521
SWIDTH 96 0
DWIDTH 16 0
BBX 16 16 0 -2
BITMAP
0080
0140
0220
0410
0808
1007
6012
0ff8
0080
0080
0080
0080
0084
3ffe
0000
0000
ENDCHAR
STARTCHAR 01-42
ENCODING 8522
SWIDTH 96 0
DWIDTH 16 0
BBX 16 16 0 -2
BITMAP
0080
0140
0220
0410
0808
1084
2082
4081
1084
1084
1084
1084
1ffc
1004
0000
0000
ENDCHAR
STARTCHAR 01-43
ENCODING 8523
SWIDTH 96 0
DWIDTH 16 0
BBX 16 16 0 -2
BITMAP
0201
0201
0201
7f91
0211
0211
2211
1211
0a11
0211
0201
0201
0a0a
0404
0000
0000
ENDCHAR
STARTCHAR 01-44
ENCODING 8524
SWIDTH 96 0
DWIDTH 16 0
BBX 16 16 0 -2
BITMAP
0801
0841
1fe1
2009
4009
1f89
0089
0109
0209
0409
0801
1021
2025
1fe2
0000
0000
ENDCHAR
STARTCHAR 01-45
ENCODING 8525
SWIDTH 96 0
DWIDTH 16 0
BBX 16 16 0 -2
BITMAP
0002
7fff
4040
4440
4440
5ffc
4444
4448
4440
4442
4402
47fe
4000
7fff
0000
0000
ENDCHAR
STARTCHAR 01-46
ENCODING 8526
SWIDTH 96 0
DWIDTH 16 0
BBX 16 16 0 -2
BITMAP
1004
1244
1244
1244
1244
1244
7fff
1244
1244
1244
1244
1244
2244
4244
0000
0000
ENDCHAR
STARTCHAR 01-47
ENCODING 8527
SWIDTH 96 0
DWIDTH 16 0
BBX 16 16 0 -2
BITMAP
0800
087f
0808
7f08
0808
0808
0808
0908
0a08
0c08
7008
0008
0028
0010
0000
0000
ENDCHAR
STARTCHAR 01-48
ENCODING 8528
SWIDTH 96 0
DWIDTH 16 0
BBX 16 16 0 -2
BITMAP
0ff8
0010
0220
0140
0080
0140
0630
788f
0080
1ffc
0080
0080
0080
7fff
0000
0000
ENDCHAR
STARTCHAR 01-49
ENCODING 8529
SWIDTH 96 0
DWIDTH 16 0
BBX 16 16 0 -2
BITMAP
0800
0802
0f7f
1122
2122
5122
1122
0922
052c
0220
0420
0821
7021
001f
0000
0000
ENDCHAR
STARTCHAR 01-50
ENCODING 8530
SWIDTH 96 0
DWIDTH 16 0
BBX 16 16 0 -2
BITMAP
0100
0102
7fff
0240
0220
0518
1907
6102
0ff8
0108
0208
0408
0850
3020
0000
0000
ENDCHAR
STARTCHAR 01-51
ENCODING 8531
SWIDTH 96 0
DWIDTH 16 0
BBX 16 16 0 -2
BITMAP
0100
0080
7fff
4001
4001
0004
3ffe
0080
0080
0080
0080
0080
0280
0100
0000
0000
ENDCHAR
STARTCHAR 01-52
ENCODING 8532
SWIDTH 96 0
DWIDTH 16 0
BBX 16 16 0 -2
BITMAP
0100
0082
3fff
2102
4104
0110
1ff8
0110
0110
0210
0411
0811
1011
200f
0000
0000
ENDCHAR
STARTCHAR 01-53
ENCODING 8533
SWIDTH 96 0
DWIDTH 16 0
BBX 16 16 0 -2
BITMAP
0080
0140
0220
0410
0808
1084
6083
0080
02a0
0490
0888
3086
0280
0100
0000
0000
ENDCHAR
STARTCHAR 01-54
ENCODING 8534
SWIDTH 96 0
DWIDTH 16 0
BBX 16 16 0 -2
BITMAP
0004
1ffe
1004
1ffc
1104
1100
1110
1ff8
1110
1110
2211
2211
4411
080f
0000
0000
ENDCHAR
STARTCHAR 01-55
ENCODING 8535
SWIDTH 96 0
DWIDTH 16 0
BBX 16 16 0 -2
BITMAP
0080
2082
2082
3ffe
2002
0100
0100
3ffe
0102
0102
0202
0402
0804
3038
0000
0000
ENDCHAR
STARTCHAR 01-56
ENCODING 8536
SWIDTH 96 0
DWIDTH 16 0
BBX 16 16 0 -2
BITMAP
0300
0080
0140
0220
0410
0808
7007
0080
0080
2082
2082
2082
3ffe
2002
0000
0000
ENDCHAR
STARTCHAR 01-57
ENCODING 8537
SWIDTH 96 0
DWIDTH 16 0
BBX 16 16 0 -2
BITMAP
0800
0802
08ff
7f08
4908
4908
4908
4908
4908
4b08
0808
0808
0828
0810
0000
0000
ENDCHAR
STARTCHAR 01-58
ENCODING 8538
SWIDTH 96 0
DWIDTH 16 0
BBX 16 16 0 -2
BITMAP
0080
0044
1ffe
1000
1200
1204
1218
1260
1380
1200
1200
1202
2202
41fe
0000
0000
ENDCHAR
STARTCHAR 01-59
ENCODING 8539
SWIDTH 96 0
DWIDTH 16 0
BBX 16 16 0 -2
BITMAP
0080
0040
3fff
2000
2040
2040
2040
2040
2040
2040
20a0
2110
2208
4c06
0000
0000
ENDCHAR
STARTCHAR 01-60
ENCODING 8540
SWIDTH 96 0
DWIDTH 16 0
BBX 16 16 0 -2
BITMAP
0800
0802
0bff
0822
2c22
2a22
2822
4822
0822
0842
0842
0882
0914
0a08
0000
0000
ENDCHAR
STARTCHAR 01-61
ENCODING 8541
SWIDTH 96 0
DWIDTH 16 0
BBX 16 16 0 -2
BITMAP
0028
0024
2020
3ffe
2020
2020
2020
2022
2224
2428
2810
3029
61c5
0003
0000
0000
ENDCHAR
STARTCHAR 01-62
ENCODING 8542
SWIDTH 96 0
DWIDTH 16 0
BBX 16 16 0 -2
BITMAP
0820
0820
0820
7eff
0821
0821
0a21
0c21
7821
0821
0841
0881
290a
1004
0000
0000
ENDCHAR
STARTCHAR 01-63
ENCODING 8543
SWIDTH 96 0
DWIDTH 16 0
BBX 16 16 0 -2
BITMAP
0800
1ffe
2000
4ff8
0000
7ff8
0008
0108
0108
0208
0209
0405
1803
0001
0000
0000
ENDCHAR
STARTCHAR 01-64
ENCODING 8544
SWIDTH 96 0
DWIDTH 16 0
BBX 16 16 0 -2
BITMAP
0ff8
0010
0020
0040
0081
0082
7ebc
04a0
0890
1088
2084
4083
0280
0100
0000
0000
ENDCHAR
STARTCHAR 01-65
ENCODING 8545
SWIDTH 96 0
DWIDTH 16 0
BBX 16 16 0 -2
BITMAP
2000
1878
0808
0008
4088
3088
1088
0288
0488
0888
7104
1202
1401
1000
0000
0000
ENDCHAR
STARTCHAR 01-66
ENCODING 8546
SWIDTH 96 0
DWIDTH 16 0
BBX 16 16 0 -2
BITMAP
2040
1840
0840
4048
31fc
1048
0248
0448
0848
7048
1089
1109
1209
1007
0000
0000
ENDCHAR
STARTCHAR 01-67
ENCODING 8547
SWIDTH 96 0
DWIDTH 16 0
BBX 16 16 0 -2
BITMAP
4020
3020
1020
03ff
4021
3021
1221
0421
0821
7041
1081
1101
1612
100c
0000
0000
ENDCHAR
STARTCHAR 01-68
ENCODING 8548
SWIDTH 96 0
DWIDTH 16 0
BBX 16 16 0 -2
BITMAP
0204
0202
7fff
0400
0800
1010
2410
4220
0140
0080
0140
0220
0410
780f
0000
0000
ENDCHAR
STARTCHAR 01-69
ENCODING 8549
SWIDTH 96 0
DWIDTH 16 0
BBX 16 16 0 -2
BITMAP
4440
2840
1048
2bfc
4448
0448
0c48
1448
2448
4448
0489
0489
2909
1207
0000
0000
ENDCHAR
STARTCHAR 01-70
ENCODING 8550
SWIDTH 96 0
DWIDTH 16 0
BBX 16 16 0 -2
BITMAP
0000
3ffe
0080
0090
0088
0084
0080
3ffe
0080
0080
0080
0080
0080
7fff
0000
0000
ENDCHAR
STARTCHAR 01-71
ENCODING 8551
SWIDTH 96 0
DWIDTH 16 0
BBX 16 16 0 -2
BITMAP
0080
0080
0080
3ffe
2082
2102
2222
2412
2ffa
2006
2002
2002
200a
2004
0000
0000
ENDCHAR
STARTCHAR 01-72
ENCODING 8552
SWIDTH 96 0
DWIDTH 16 0
BBX 16 16 0 -2
BITMAP
0100
3f80
217f
2101
3f01
2102
2104
3f08
2110
2120
2140
2141
2541
427f
0000
0000
ENDCHAR
STARTCHAR 01-73
ENCODING 8553
SWIDTH 96 0
DWIDTH 16 0
BBX 16 16 0 -2
BITMAP
7c20
4420
4820
51ff
4821
4421
4421
4421
6421
5841
4081
4102
4214
4008
0000
0000
ENDCHAR
STARTCHAR 01-74
ENCODING 8554
SWIDTH 96 0
DWIDTH 16 0
BBX 16 16 0 -2
BITMAP
0420
0422
0bff
1820
2820
49fc
0904
0888
0888
0850
0820
0858
0887
0b02
0000
0000
ENDCHAR
STARTCHAR 01-75
ENCODING 8555
SWIDTH 96 0
DWIDTH 16 0
BBX 16 16 0 -2
BITMAP
0844
0842
1041
2040
47ff
2040
2050
2050
2050
2090
2110
2211
2411
281f
0000
0000
ENDCHAR
STARTCHAR 01-76
ENCODING 8556
SWIDTH 96 0
DWIDTH 16 0
BBX 16 16 0 -2
BITMAP
0800
0bfe
1202
2202
4202
23fe
2280
2240
2220
2210
2208
2204
2402
2801
0000
0000
ENDCHAR
STARTCHAR 01-77
ENCODING 8557
SWIDTH 96 0
DWIDTH 16 0
BBX 16 16 0 -2
BITMAP
0480
0484
09fe
0920
1a20
2820
4822
0fff
0820
0820
0820
0820
0820
0820
0000
0000
ENDCHAR
STARTCHAR 01-78
ENCODING 8558
SWIDTH 96 0
DWIDTH 16 0
BBX 16 16 0 -2
BITMAP
0800
0bfe
1202
2202
5000
1090
1090
1090
1090
1090
1090
1091
1111
121f
0000
0000
ENDCHAR
STARTCHAR 01-79
ENCODING 8559
SWIDTH 96 0
DWIDTH 16 0
BBX 16 16 0 -2
BITMAP
0820
0850
1088
2104
4202
24f9
2800
2000
23fe
2002
2004
2008
2010
2020
0000
0000
ENDCHAR
STARTCHAR 01-80
ENCODING 8560
SWIDTH 96 0
DWIDTH 16 0
BBX 16 16 0 -2
BITMAP
0400
0448
0848
1084
2102
5201
1421
1020
1020
1040
1088
1104
13fe
1001
0000
0000
ENDCHAR
STARTCHAR 01-81
ENCODING 8561
SWIDTH 96 0
DWIDTH 16 0
BBX 16 16 0 -2
BITMAP
0820
1050
2088
4104
2202
2489
2088
2088
2088
2088
2088
2108
2208
2008
0000
0000
ENDCHAR
STARTCHAR 01-82
ENCODING 8562
SWIDTH 96 0
DWIDTH 16 0
BBX 16 16 0 -2
BITMAP
0800
0840
1020
2010
4080
2284
2283
2281
2480
2880
2080
2082
2082
207e
0000
0000
ENDCHAR
STARTCHAR 01-83
ENCODING 8563
SWIDTH 96 0
DWIDTH 16 0
BBX 16 16 0 -2
BITMAP
0800
0804
13fe
2000
4000
2002
27ff
2020
2020
2040
2084
2102
27ff
2001
0000
0000
ENDCHAR
STARTCHAR 01-84
ENCODING 8564
SWIDTH 96 0
DWIDTH 16 0
BBX 16 16 0 -2
BITMAP
0410
0412
09ff
1010
6010
11ff
1111
1111
1111
1115
1112
1010
1010
1010
0000
0000
ENDCHAR
STARTCHAR 01-85
ENCODING 8565
SWIDTH 96 0
DWIDTH 16 0
BBX 16 16 0 -2
BITMAP
0420
0420
0824
13fe
6020
1222
1222
1222
13fe
1020
1020
1021
1021
103f
0000
0000
ENDCHAR
STARTCHAR 01-86
ENCODING 8566
SWIDTH 96 0
DWIDTH 16 0
BBX 16 16 0 -2
BITMAP
0404
05fe
0908
1908
290a
49ff
0818
0828
0848
0888
0908
0a08
0828
0810
0000
0000
ENDCHAR
STARTCHAR 01-87
ENCODING 8567
SWIDTH 96 0
DWIDTH 16 0
BBX 16 16 0 -2
BITMAP
0802
13ff
2008
4010
2020
2040
20a0
2124
2622
2021
2020
2020
2020
2020
0000
0000
ENDCHAR
STARTCHAR 01-88
ENCODING 8568
SWIDTH 96 0
DWIDTH 16 0
BBX 16 16 0 -2
BITMAP
0400
09fe
1022
3022
53fe
1220
1220
17ff
1021
1021
102a
1024
1020
1020
0000
0000
ENDCHAR
STARTCHAR 01-89
ENCODING 8569
SWIDTH 96 0
DWIDTH 16 0
BBX 16 16 0 -2
BITMAP
0402
08ff
1082
7082
10fe
1082
1082
10fe
1082
1082
1082
1082
110a
1004
0000
0000
ENDCHAR
STARTCHAR 01-90
ENCODING 8570
SWIDTH 96 0
DWIDTH 16 0
BBX 16 16 0 -2
BITMAP
0400
0401
09fe
1080
7082
10ff
1088
1088
1088
1088
1088
1108
1208
1008
0000
0000
ENDCHAR
STARTCHAR 01-91
ENCODING 8571
SWIDTH 96 0
DWIDTH 16 0
BBX 16 16 0 -2
BITMAP
0004
47fe
3100
1100
0108
01fc
0508
0908
7108
13f8
1008
1010
1022
17ff
0000
0000
ENDCHAR
STARTCHAR 01-92
ENCODING 8572
SWIDTH 96 0
DWIDTH 16 0
BBX 16 16 0 -2
BITMAP
0101
3f81
0009
0009
0089
7fc9
1209
1209
1209
1209
1221
1221
2225
41e2
0000
0000
ENDCHAR
STARTCHAR 01-93
ENCODING 8573
SWIDTH 96 0
DWIDTH 16 0
BBX 16 16 0 -2
BITMAP
0081
1fc1
1089
1089
1489
1289
7fe9
1089
1089
1081
1081
1081
2285
0102
0000
0000
ENDCHAR
STARTCHAR 01-94
ENCODING 8574
SWIDTH 96 0
DWIDTH 16 0
BBX 16 16 0 -2
BITMAP
0080
0080
1ffc
0104
0204
0c38
0000
1010
7f7f
1111
1111
2121
4141
0e0e
0000
0000
ENDCHAR
STARTCHAR 02-01
ENCODING 8737
SWIDTH 96 0
DWIDTH 16 0
BBX 16 16 0 -2
BITMAP
0002
7fff
4400
4400
4ffe
5122
4122
4222
4442
4882
4104
4038
4000
7fff
0000
0000
ENDCHAR
STARTCHAR 02-02
ENCODING 8738
SWIDTH 96 0
DWIDTH 16 0
BBX 16 16 0 -2
BITMAP
0002
7fff
4100
4084
5ffe
4000
43f0
4210
4210
4212
4412
481e
4000
7fff
0000
0000
ENDCHAR
STARTCHAR 02-03
ENCODING 8739
SWIDTH 96 0
DWIDTH 16 0
BBX 16 16 0 -2
BITMAP
0000
7f81
0081
0081
0081
0081
0081
7fff
4080
4080
4080
4080
4080
40ff
0000
0000
ENDCHAR
STARTCHAR 02-04
ENCODING 8740
SWIDTH 96 0
DWIDTH 16 0
BBX 16 16 0 -2
BITMAP
3fff
2000
2ffc
2410
2410
27fe
2030
2050
2090
2110
2210
2410
4050
0020
0000
0000
ENDCHAR
STARTCHAR 02-05
ENCODING 8741
SWIDTH 96 0
DWIDTH 16 0
BBX 16 16 0 -2
BITMAP
00fc
0004
7c04
4408
4410
4410
45ff
4410
4410
7c10
4410
0090
0050
0020
0000
0000
ENDCHAR
STARTCHAR 02-06
ENCODING 8742
SWIDTH 96 0
DWIDTH 16 0
BBX 16 16 0 -2
BITMAP
0002
7fff
4202
4202
7ffe
4422
4422
4242
4182
4242
4432
480a
7ffe
4002
0000
0000
ENDCHAR
STARTCHAR 02-07
ENCODING 8743
SWIDTH 96 0
DWIDTH 16 0
BBX 16 16 0 -2
BITMAP
0200
0400
0802
7fff
4412
4222
4142
4082
4142
4222
4412
480a
7ffe
4002
0000
0000
ENDCHAR
STARTCHAR 02-08
ENCODING 8744
SWIDTH 96 0
DWIDTH 16 0
BBX 16 16 0 -2
BITMAP
0800
0804
09fe
0804
7e04
0804
09fc
0904
0f00
7900
2101
0101
0101
00ff
0000
0000
ENDCHAR
STARTCHAR 02-09
ENCODING 8745
SWIDTH 96 0
DWIDTH 16 0
BBX 16 16 0 -2
BITMAP
0840
0842
087f
0880
7f00
087e
0804
0808
0f10
7820
2041
0081
0101
00ff
0000
0000
ENDCHAR
STARTCHAR 02-10
ENCODING 8746
SWIDTH 96 0
DWIDTH 16 0
BBX 16 16 0 -2
BITMAP
0080
1080
10ff
1081
7d01
1001
1041
1021
1411
1801
7001
0001
0012
000c
0000
0000
ENDCHAR
STARTCHAR 02-11
ENCODING 8747
SWIDTH 96 0
DWIDTH 16 0
BBX 16 16 0 -2
BITMAP
0080
0082
7fff
0140
0220
0418
1807
6492
0490
0490
0490
0890
1090
0010
0000
0000
ENDCHAR
STARTCHAR 02-12
ENCODING 8748
SWIDTH 96 0
DWIDTH 16 0
BBX 16 16 0 -2
BITMAP
0040
7e42
0242
02ff
0242
7e42
4242
4042
4024
4218
4418
4824
7042
0081
0000
0000
ENDCHAR
STARTCHAR 02-13
ENCODING 8749
SWIDTH 96 0
DWIDTH 16 0
BBX 16 16 0 -2
BITMAP
2003
200c
2270
2210
7f10
2212
227f
2210
2210
1410
0810
1411
2211
410f
0000
0000
ENDCHAR
STARTCHAR 02-14
ENCODING 8750
SWIDTH 96 0
DWIDTH 16 0
BBX 16 16 0 -2
BITMAP
2000
2200
2202
7f7f
2208
2208
2208
2208
2208
1408
0808
140a
227f
4100
0000
0000
ENDCHAR
STARTCHAR 02-15
ENCODING 8751
SWIDTH 96 0
DWIDTH 16 0
BBX 16 16 0 -2
BITMAP
2020
2020
2222
2222
7f7f
2222
2222
2222
2222
1414
0808
1414
2222
4141
0000
0000
ENDCHAR
STARTCHAR 02-16
ENCODING 8752
SWIDTH 96 0
DWIDTH 16 0
BBX 16 16 0 -2
BITMAP
2000
2008
2208
2208
7f08
2249
2249
2249
2249
1449
0849
1449
227f
4141
0000
0000
ENDCHAR
STARTCHAR 02-17
ENCODING 8753
SWIDTH 96 0
DWIDTH 16 0
BBX 16 16 0 -2
BITMAP
2000
2006
2278
7f08
2208
220a
22ff
2208
2208
1408
0808
1408
2208
4108
0000
0000
ENDCHAR
STARTCHAR 02-18
ENCODING 8754
SWIDTH 96 0
DWIDTH 16 0
BBX 16 16 0 -2
BITMAP
1020
1020
1024
7eff
1224
1224
1a24
1618
1218
1224
1242
2281
4200
01ff
0000
0000
ENDCHAR
STARTCHAR 02-19
ENCODING 8755
SWIDTH 96 0
DWIDTH 16 0
BBX 16 16 0 -2
BITMAP
7f7f
0202
0404
0808
0a08
0c08
187f
6808
0808
0808
0808
0808
2828
1010
0000
0000
ENDCHAR
STARTCHAR 02-20
ENCODING 8756
SWIDTH 96 0
DWIDTH 16 0
BBX 16 16 0 -2
BITMAP
1ff8
0208
0212
023f
0402
0402
088a
1084
2490
0888
0884
1084
0280
0100
0000
0000
ENDCHAR
STARTCHAR 02-21
ENCODING 8757
SWIDTH 96 0
DWIDTH 16 0
BBX 16 16 0 -2
BITMAP
1040
1042
107f
7f42
1482
1542
1422
1412
1402
1402
1424
2419
4201
01ff
0000
0000
ENDCHAR
STARTCHAR 02-22
ENCODING 8758
SWIDTH 96 0
DWIDTH 16 0
BBX 16 16 0 -2
BITMAP
0002
11ff
1048
5448
5448
5448
5448
5448
5448
7c48
4449
0089
0109
0207
0000
0000
ENDCHAR
STARTCHAR 02-23
ENCODING 8759
SWIDTH 96 0
DWIDTH 16 0
BBX 16 16 0 -2
BITMAP
0002
11ff
1002
1002
5402
55fe
5502
5500
5500
5500
7d01
4501
0101
00ff
0000
0000
ENDCHAR
STARTCHAR 02-24
ENCODING 8760
SWIDTH 96 0
DWIDTH 16 0
BBX 16 16 0 -2
BITMAP
01ff
1021
1021
1121
54a1
5461
5421
5421
5421
5441
7c81
4502
0214
0008
0000
0000
ENDCHAR
STARTCHAR 02-25
ENCODING 8761
SWIDTH 96 0
DWIDTH 16 0
BBX 16 16 0 -2
BITMAP
0808
0808
0808
0808
4949
4949
4949
4949
4949
4949
4949
4949
7f7f
4141
0000
0000
ENDCHAR
STARTCHAR 02-26
ENCODING 8762
SWIDTH 96 0
DWIDTH 16 0
BBX 16 16 0 -2
BITMAP
0100
0082
7fff
0800
0800
0800
0ffc
0000
0888
0888
0888
1089
2089
408f
0000
0000
ENDCHAR
STARTCHAR 02-27
ENCODING 8763
SWIDTH 96 0
DWIDTH 16 0
BBX 16 16 0 -2
BITMAP
0004
3ffe
0410
0410
0410
0412
7fff
0410
0410
0410
0410
0810
1010
0010
0000
0000
ENDCHAR
STARTCHAR 02-28
ENCODING 8764
SWIDTH 96 0
DWIDTH 16 0
BBX 16 16 0 -2
BITMAP
0080
0040
0042
1fff
1000
1040
1040
1044
17fe
1040
1040
2040
2042
5fff
0000
0000
ENDCHAR
STARTCHAR 02-29
ENCODING 8765
SWIDTH 96 0
DWIDTH 16 0
BBX 16 16 0 -2
BITMAP
1ff8
0008
0008
1ff8
1000
1004
1ffc
0410
0410
7fff
0410
0810
1010
2010
0000
0000
ENDCHAR
STARTCHAR 02-30
ENCODING 8766
SWIDTH 96 0
DWIDTH 16 0
BBX 16 16 0 -2
BITMAP
1004
2002
5ffd
0084
0084
1ffc
1080
1080
1fff
0081
0081
0082
008c
0080
0000
0000
ENDCHAR
STARTCHAR 02-31
ENCODING 8767
SWIDTH 96 0
DWIDTH 16 0
BBX 16 16 0 -2
BITMAP
0840
1040
207f
4081
0501
0801
1041
3021
5011
1001
1001
1001
1002
100c
0000
0000
ENDCHAR
STARTCHAR 02-32
ENCODING 8768
SWIDTH 96 0
DWIDTH 16 0
BBX 16 16 0 -2
BITMAP
1020
1020
1020
5822
57ff
5020
5020
1020
1020
1050
1088
1104
1202
1401
0000
0000
ENDCHAR
STARTCHAR 02-33
ENCODING 8769
SWIDTH 96 0
DWIDTH 16 0
BBX 16 16 0 -2
BITMAP
1080
1082
10ff
5900
5400
51fc
5008
5010
1020
1040
1081
1101
1201
11ff
0000
0000
ENDCHAR
STARTCHAR 02-34
ENCODING 8770
SWIDTH 96 0
DWIDTH 16 0
BBX 16 16 0 -2
BITMAP
0804
080e
09f0
2c20
2a20
2822
4bff
0820
0820
0820
0820
0820
0820
0820
0000
0000
ENDCHAR
STARTCHAR 02-35
ENCODING 8771
SWIDTH 96 0
DWIDTH 16 0
BBX 16 16 0 -2
BITMAP
1004
10fe
1010
7c10
1012
11ff
1410
1810
7010
1010
1010
1010
5050
2020
0000
0000
ENDCHAR
STARTCHAR 02-36
ENCODING 8772
SWIDTH 96 0
DWIDTH 16 0
BBX 16 16 0 -2
BITMAP
1004
10fe
1010
7c10
1010
1012
15ff
1810
7010
1010
1010
1010
5010
2010
0000
0000
ENDCHAR
STARTCHAR 02-37
ENCODING 8773
SWIDTH 96 0
DWIDTH 16 0
BBX 16 16 0 -2
BITMAP
1000
1002
11ff
7c48
1048
1048
1448
1848
7048
1048
1048
1089
5109
2207
0000
0000
ENDCHAR
STARTCHAR 02-38
ENCODING 8774
SWIDTH 96 0
DWIDTH 16 0
BBX 16 16 0 -2
BITMAP
1010
1090
1090
7c90
13ff
1091
1491
1892
7090
1080
1081
1081
5081
207f
0000
0000
ENDCHAR
STARTCHAR 02-39
ENCODING 8775
SWIDTH 96 0
DWIDTH 16 0
BBX 16 16 0 -2
BITMAP
0808
081c
09e0
7e20
0820
0a22
0fff
1820
6820
0820
0820
0820
2820
1020
0000
0000
ENDCHAR
STARTCHAR 02-40
ENCODING 8776
SWIDTH 96 0
DWIDTH 16 0
BBX 16 16 0 -2
BITMAP
1040
1042
10ff
7d00
1000
10fe
1404
1808
7010
1020
1040
1081
5101
20ff
0000
0000
ENDCHAR
STARTCHAR 02-41
ENCODING 8777
SWIDTH 96 0
DWIDTH 16 0
BBX 16 16 0 -2
BITMAP
1008
1008
7dff
1008
1008
1488
1888
3048
5028
1010
1028
1044
5082
2301
0000
0000
ENDCHAR
STARTCHAR 02-42
ENCODING 8778
SWIDTH 96 0
DWIDTH 16 0
BBX 16 16 0 -2
BITMAP
0800
08fe
0802
7ea2
0892
0a8a
0c82
1844
6828
0810
0828
0844
2882
1301
0000
0000
ENDCHAR
STARTCHAR 02-43
ENCODING 8779
SWIDTH 96 0
DWIDTH 16 0
BBX 16 16 0 -2
BITMAP
0840
0840
087f
7e81
0801
0a41
0c21
1811
6801
0801
0801
0822
2814
1008
0000
0000
ENDCHAR
STARTCHAR 02-44
ENCODING 8780
SWIDTH 96 0
DWIDTH 16 0
BBX 16 16 0 -2
BITMAP
0820
0822
0827
7e38
09e0
0820
0c22
19ff
6820
0820
0820
0821
2821
101f
0000
0000
ENDCHAR
STARTCHAR 02-45
ENCODING 8781
SWIDTH 96 0
DWIDTH 16 0
BBX 16 16 0 -2
BITMAP
0010
7f22
207f
2082
2002
3f22
0122
0122
0114
0108
0114
2222
1441
0981
0000
0000
ENDCHAR
STARTCHAR 02-46
ENCODING 8782
SWIDTH 96 0
DWIDTH 16 0
BBX 16 16 0 -2
BITMAP
0008
0ffc
0808
0ff8
0808
0ff8
0100
0110
3ff8
0210
0211
0211
0c11
700f
0000
0000
ENDCHAR
STARTCHAR 02-47
ENCODING 8783
SWIDTH 96 0
DWIDTH 16 0
BBX 16 16 0 -2
BITMAP
0100
0110
3ff8
0210
0211
0411
180f
6ff8
0808
0ff8
0808
0808
0ff8
0808
0000
0000
ENDCHAR
STARTCHAR 02-48
ENCODING 8784
SWIDTH 96 0
DWIDTH 16 0
BBX 16 16 0 -2
BITMAP
0802
08ff
0808
7f08
0808
0808
0808
1c08
2a08
4908
0808
0808
0828
0810
0000
0000
ENDCHAR
STARTCHAR 02-49
ENCODING 8785
SWIDTH 96 0
DWIDTH 16 0
BBX 16 16 0 -2
BITMAP
1040
1040
1048
7dfc
1048
1048
1048
3848
5448
1048
1089
1109
1209
140f
0000
0000
ENDCHAR
STARTCHAR 02-50
ENCODING 8786
SWIDTH 96 0
DWIDTH 16 0
BBX 16 16 0 -2
BITMAP
1020
1020
1020
7dff
1021
1021
1021
3821
5421
1021
1041
1082
1114
1208
0000
0000
ENDCHAR
STARTCHAR 02-51
ENCODING 8787
SWIDTH 96 0
DWIDTH 16 0
BBX 16 16 0 -2
BITMAP
0801
0841
0841
7f41
0841
0841
0841
1c7f
2a01
4901
0801
0801
0801
0801
0000
0000
ENDCHAR
STARTCHAR 02-52
ENCODING 8788
SWIDTH 96 0
DWIDTH 16 0
BBX 16 16 0 -2
BITMAP
0008
087c
0848
0848
7f48
0848
0848
1c48
2a48
4948
0848
0849
0889
090f
0000
0000
ENDCHAR
STARTCHAR 02-53
ENCODING 8789
SWIDTH 96 0
DWIDTH 16 0
BBX 16 16 0 -2
BITMAP
0080
0082
7fff
0080
1ffc
1084
1084
108c
0080
0490
0888
1084
2082
0080
0000
0000
ENDCHAR
STARTCHAR 02-54
ENCODING 8790
SWIDTH 96 0
DWIDTH 16 0
BBX 16 16 0 -2
BITMAP
1080
1080
1080
7c80
1080
1080
10fe
3880
5480
1080
1081
1081
1081
107e
0000
0000
ENDCHAR
STARTCHAR 02-55
ENCODING 8791
SWIDTH 96 0
DWIDTH 16 0
BBX 16 16 0 -2
BITMAP
081c
0804
0804
7f44
0844
0844
0844
1c44
2a44
4944
0844
0882
0901
0800
0000
0000
ENDCHAR
STARTCHAR 02-56
ENCODING 8792
SWIDTH 96 0
DWIDTH 16 0
BBX 16 16 0 -2
BITMAP
0802
0fff
1000
17fc
2000
5ffc
0004
0444
0444
0444
0844
0845
1045
2043
0000
0000
ENDCHAR
STARTCHAR 02-57
ENCODING 8793
SWIDTH 96 0
DWIDTH 16 0
BBX 16 16 0 -2
BITMAP
0080
0140
0220
0498
1887
6082
1ec8
02b0
0490
0888
1087
2082
0280
0100
0000
0000
ENDCHAR
STARTCHAR 02-58
ENCODING 8794
SWIDTH 96 0
DWIDTH 16 0
BBX 16 16 0 -2
BITMAP
4020
3020
1022
07ff
0100
4100
3100
1100
0500
0900
7100
1100
1100
11fe
0000
0000
ENDCHAR
STARTCHAR 02-59
ENCODING 8795
SWIDTH 96 0
DWIDTH 16 0
BBX 16 16 0 -2
BITMAP
2002
19ff
0902
4102
3102
1102
01fe
0502
0900
7100
1100
1101
1101
10ff
0000
0000
ENDCHAR
STARTCHAR 02-60
ENCODING 8796
SWIDTH 96 0
DWIDTH 16 0
BBX 16 16 0 -2
BITMAP
4020
3020
1020
0022
47ff
3020
1020
0420
0820
1050
7088
1104
1202
1401
0000
0000
ENDCHAR
STARTCHAR 02-61
ENCODING 8797
SWIDTH 96 0
DWIDTH 16 0
BBX 16 16 0 -2
BITMAP
2004
1bfe
0804
4144
2128
24a8
0488
0850
7020
1050
1050
1088
1107
1602
0000
0000
ENDCHAR
STARTCHAR 02-62
ENCODING 8798
SWIDTH 96 0
DWIDTH 16 0
BBX 16 16 0 -2
BITMAP
2080
1882
08ff
4100
3200
10fe
0408
0810
7020
1040
1080
1101
1201
11ff
0000
0000
ENDCHAR
STARTCHAR 02-63
ENCODING 8799
SWIDTH 96 0
DWIDTH 16 0
BBX 16 16 0 -2
BITMAP
4100
3100
11ff
4201
3001
1081
0441
0821
1001
7001
1001
1022
1014
1008
0000
0000
ENDCHAR
STARTCHAR 02-64
ENCODING 8800
SWIDTH 96 0
DWIDTH 16 0
BBX 16 16 0 -2
BITMAP
4001
3101
1111
4111
3111
1111
0511
0911
1111
7111
1111
1201
1401
1001
0000
0000
ENDCHAR
STARTCHAR 02-65
ENCODING 8801
SWIDTH 96 0
DWIDTH 16 0
BBX 16 16 0 -2
BITMAP
0800
08ff
0811
2a11
2c11
2811
2811
4811
0811
1421
1241
2282
4114
4008
0000
0000
ENDCHAR
STARTCHAR 02-66
ENCODING 8802
SWIDTH 96 0
DWIDTH 16 0
BBX 16 16 0 -2
BITMAP
0820
2820
2820
3dff
4821
0821
0c21
1821
6821
0841
0881
0902
0a14
0808
0000
0000
ENDCHAR
STARTCHAR 02-67
ENCODING 8803
SWIDTH 96 0
DWIDTH 16 0
BBX 16 16 0 -2
BITMAP
45fc
2820
1020
2820
4422
07ff
0c20
1420
2420
4420
0420
0420
2820
1020
0000
0000
ENDCHAR
STARTCHAR 02-68
ENCODING 8804
SWIDTH 96 0
DWIDTH 16 0
BBX 16 16 0 -2
BITMAP
4480
2882
10ff
2900
4400
04fe
0c04
1408
2410
4420
0441
0481
2901
10ff
0000
0000
ENDCHAR
STARTCHAR 02-69
ENCODING 8805
SWIDTH 96 0
DWIDTH 16 0
BBX 16 16 0 -2
BITMAP
0002
04ff
7e08
0808
0808
0808
7e08
0808
0808
0e08
7808
2048
0028
0010
0000
0000
ENDCHAR
STARTCHAR 02-70
ENCODING 8806
SWIDTH 96 0
DWIDTH 16 0
BBX 16 16 0 -2
BITMAP
0400
0802
7fff
4082
4082
7ffe
4082
4082
7ffe
4082
4082
4082
408a
4004
0000
0000
ENDCHAR
STARTCHAR 02-71
ENCODING 8807
SWIDTH 96 0
DWIDTH 16 0
BBX 16 16 0 -2
BITMAP
0800
1020
2120
7fa0
2120
2120
2120
3f20
2120
2120
2121
2121
3f21
211f
0000
0000
ENDCHAR
STARTCHAR 02-72
ENCODING 8808
SWIDTH 96 0
DWIDTH 16 0
BBX 16 16 0 -2
BITMAP
0080
7fff
4411
4811
101e
0000
0fe0
0020
00c0
0300
0c00
1001
2001
1fff
0000
0000
ENDCHAR
STARTCHAR 02-73
ENCODING 8809
SWIDTH 96 0
DWIDTH 16 0
BBX 16 16 0 -2
BITMAP
0000
7fff
4001
4001
4105
5145
4a29
4411
4a29
5145
4001
4001
4005
4002
0000
0000
ENDCHAR
STARTCHAR 02-74
ENCODING 8810
SWIDTH 96 0
DWIDTH 16 0
BBX 16 16 0 -2
BITMAP
0808
0808
4949
4949
4949
4949
4949
7f7f
0808
0808
0808
1008
2008
4008
0000
0000
ENDCHAR
STARTCHAR 02-75
ENCODING 8811
SWIDTH 96 0
DWIDTH 16 0
BBX 16 16 0 -2
BITMAP
0410
7f7f
0410
0410
0002
7fff
0080
0080
0080
0080
0080
0480
0280
0100
0000
0000
ENDCHAR
STARTCHAR 02-76
ENCODING 8812
SWIDTH 96 0
DWIDTH 16 0
BBX 16 16 0 -2
BITMAP
0410
7f7f
0410
0410
0000
3ffe
0102
0102
0102
0202
0402
0802
3004
0078
0000
0000
ENDCHAR
STARTCHAR 02-77
ENCODING 8813
SWIDTH 96 0
DWIDTH 16 0
BBX 16 16 0 -2
BITMAP
0410
0412
7f7f
0410
0510
0100
0110
3ff8
0110
0110
0210
0411
0811
300f
0000
0000
ENDCHAR
STARTCHAR 02-78
ENCODING 8814
SWIDTH 96 0
DWIDTH 16 0
BBX 16 16 0 -2
BITMAP
0410
0412
7f7f
0410
1ff8
0208
0210
0220
027e
0402
0802
0844
1028
2010
0000
0000
ENDCHAR
STARTCHAR 02-79
ENCODING 8815
SWIDTH 96 0
DWIDTH 16 0
BBX 16 16 0 -2
BITMAP
0080
0080
00fc
0080
3fff
2001
2082
2080
27fe
2080
2080
2080
20fe
4000
0000
0000
ENDCHAR
STARTCHAR 02-80
ENCODING 8816
SWIDTH 96 0
DWIDTH 16 0
BBX 16 16 0 -2
BITMAP
0002
7fff
0410
0410
7fff
4411
4411
4411
4411
47f1
4411
4001
4001
4001
0000
0000
ENDCHAR
STARTCHAR 02-81
ENCODING 8817
SWIDTH 96 0
DWIDTH 16 0
BBX 16 16 0 -2
BITMAP
0800
043e
0422
7fe2
2024
2028
2024
2022
2021
2131
3faa
0024
0020
0020
0000
0000
ENDCHAR
STARTCHAR 02-82
ENCODING 8818
SWIDTH 96 0
DWIDTH 16 0
BBX 16 16 0 -2
BITMAP
0100
3fbe
0422
0424
04a4
7fe8
0424
0422
0421
0431
042a
0424
0420
0420
0000
0000
ENDCHAR
STARTCHAR 02-83
ENCODING 8819
SWIDTH 96 0
DWIDTH 16 0
BBX 16 16 0 -2
BITMAP
0200
7f7f
0822
0824
0a28
7f24
0822
0821
0831
082a
0824
4820
2820
1020
0000
0000
ENDCHAR
STARTCHAR 02-84
ENCODING 8820
SWIDTH 96 0
DWIDTH 16 0
BBX 16 16 0 -2
BITMAP
0100
3fbe
0422
0424
0428
0424
0422
0421
07b1
7c2a
2024
0020
0020
0020
0000
0000
ENDCHAR
STARTCHAR 02-85
ENCODING 8821
SWIDTH 96 0
DWIDTH 16 0
BBX 16 16 0 -2
BITMAP
0100
7f7f
0122
0124
0128
7f24
4122
4021
4031
402a
40a4
40a0
7fa0
0020
0000
0000
ENDCHAR
STARTCHAR 02-86
ENCODING 8822
SWIDTH 96 0
DWIDTH 16 0
BBX 16 16 0 -2
BITMAP
0000
3c02
27ff
2448
2848
3048
2848
2848
2448
3488
2889
2109
2209
2c07
0000
0000
ENDCHAR
STARTCHAR 02-87
ENCODING 8823
SWIDTH 96 0
DWIDTH 16 0
BBX 16 16 0 -2
BITMAP
7c10
4910
5110
6111
57ff
4911
4912
4914
4910
6910
5101
4101
41ff
4000
0000
0000
ENDCHAR
STARTCHAR 02-88
ENCODING 8824
SWIDTH 96 0
DWIDTH 16 0
BBX 16 16 0 -2
BITMAP
0008
7bf8
4888
5088
6088
5088
4be8
4888
4888
4888
6888
5089
4089
408f
0000
0000
ENDCHAR
STARTCHAR 02-89
ENCODING 8825
SWIDTH 96 0
DWIDTH 16 0
BBX 16 16 0 -2
BITMAP
7c80
4482
48ff
5100
4800
44fe
4404
4408
4410
5420
4840
4081
4101
40ff
0000
0000
ENDCHAR
STARTCHAR 02-90
ENCODING 8826
SWIDTH 96 0
DWIDTH 16 0
BBX 16 16 0 -2
BITMAP
0400
0840
1022
3092
5282
1284
1288
1292
14a1
10c1
1080
1182
1282
107e
0000
0000
ENDCHAR
STARTCHAR 02-91
ENCODING 8827
SWIDTH 96 0
DWIDTH 16 0
BBX 16 16 0 -2
BITMAP
0402
05ff
0810
1111
3092
5054
1010
13ff
1010
1010
1010
1010
1010
1010
0000
0000
ENDCHAR
STARTCHAR 02-92
ENCODING 8828
SWIDTH 96 0
DWIDTH 16 0
BBX 16 16 0 -2
BITMAP
0400
05ff
0900
1100
3100
51fe
1102
1102
1102
11fe
1100
1100
1100
11ff
0000
0000
ENDCHAR
STARTCHAR 02-93
ENCODING 8829
SWIDTH 96 0
DWIDTH 16 0
BBX 16 16 0 -2
BITMAP
0820
0820
1020
23fe
6020
2020
2020
27ff
2020
2040
2080
2104
27fe
2002
0000
0000
ENDCHAR
STARTCHAR 02-94
ENCODING 8830
SWIDTH 96 0
DWIDTH 16 0
BBX 16 16 0 -2
BITMAP
0840
0840
1044
17fe
3150
5150
1248
1248
1444
15f7
1842
1040
1040
1040
0000
0000
ENDCHAR
STARTCHAR 03-01
ENCODING 8993
SWIDTH 96 0
DWIDTH 16 0
BBX 16 16 0 -2
BITMAP
0402
07ff
0880
0888
18fc
2888
4888
08c8
0928
0908
09e9
0b09
0807
0800
0000
0000
ENDCHAR
STARTCHAR 03-02
ENCODING 8994
SWIDTH 96 0
DWIDTH 16 0
BBX 16 16 0 -2
BITMAP
0400
0804
13fe
2010
6030
2060
20a0
2128
2224
2422
2022
2020
2020
27ff
0000
0000
ENDCHAR
STARTCHAR 03-03
ENCODING 8995
SWIDTH 96 0
DWIDTH 16 0
BBX 16 16 0 -2
BITMAP
0440
0448
087c
0840
1840
2842
4fff
0840
0860
0850
084c
0844
0840
0840
0000
0000
ENDCHAR
STARTCHAR 03-04
ENCODING 8996
SWIDTH 96 0
DWIDTH 16 0
BBX 16 16 0 -2
BITMAP
0820
0820
0820
13fe
2222
6222
2222
2fff
2050
2088
2104
2202
2401
2801
0000
0000
ENDCHAR
STARTCHAR 03-05
ENCODING 8997
SWIDTH 96 0
DWIDTH 16 0
BBX 16 16 0 -2
BITMAP
0480
04fc
0908
0a90
1c50
2820
4850
09cf
0e32
0810
08c0
0830
0818
0808
0000
0000
ENDCHAR
STARTCHAR 03-06
ENCODING 8998
SWIDTH 96 0
DWIDTH 16 0
BBX 16 16 0 -2
BITMAP
0420
0820
1040
3084
5102
13ff
1001
1000
11fe
1102
1102
1102
11fe
1102
0000
0000
ENDCHAR
STARTCHAR 03-07
ENCODING 8999
SWIDTH 96 0
DWIDTH 16 0
BBX 16 16 0 -2
BITMAP
0080
0140
0220
0418
1807
67f2
0000
3ffe
0080
0490
0c8c
1086
2082
0080
0000
0000
ENDCHAR
STARTCHAR 03-08
ENCODING 9000
SWIDTH 96 0
DWIDTH 16 0
BBX 16 16 0 -2
BITMAP
0840
1020
27ff
5000
1040
1084
1108
13f0
1020
1040
1084
1104
17fe
1002
0000
0000
ENDCHAR
STARTCHAR 03-09
ENCODING 9001
SWIDTH 96 0
DWIDTH 16 0
BBX 16 16 0 -2
BITMAP
0500
0924
1124
3124
57ff
1124
1124
1124
1124
113c
1100
1100
1100
10ff
0000
0000
ENDCHAR
STARTCHAR 03-10
ENCODING 9002
SWIDTH 96 0
DWIDTH 16 0
BBX 16 16 0 -2
BITMAP
0400
09fe
1102
6102
1102
1102
11fe
1102
1000
1084
1102
1201
1401
1000
0000
0000
ENDCHAR
STARTCHAR 03-11
ENCODING 9003
SWIDTH 96 0
DWIDTH 16 0
BBX 16 16 0 -2
BITMAP
0420
0820
1020
3050
5088
1104
1623
1020
1222
1222
1222
1222
13fe
1202
0000
0000
ENDCHAR
STARTCHAR 03-12
ENCODING 9004
SWIDTH 96 0
DWIDTH 16 0
BBX 16 16 0 -2
BITMAP
7fff
4241
4441
4841
507f
4001
4ff9
4809
4809
4809
4ff9
4809
4001
4006
0000
0000
ENDCHAR
STARTCHAR 03-13
ENCODING 9005
SWIDTH 96 0
DWIDTH 16 0
BBX 16 16 0 -2
BITMAP
4024
3022
13ff
0040
0042
0482
0902
7244
1428
1010
1028
1044
1082
1101
0000
0000
ENDCHAR
STARTCHAR 03-14
ENCODING 9006
SWIDTH 96 0
DWIDTH 16 0
BBX 16 16 0 -2
BITMAP
1201
1201
7fc1
1249
1249
7fc9
5209
7fe9
1229
1221
12a1
2241
4205
0202
0000
0000
ENDCHAR
STARTCHAR 03-15
ENCODING 9007
SWIDTH 96 0
DWIDTH 16 0
BBX 16 16 0 -2
BITMAP
1f81
1081
1089
1089
1f89
1089
1089
1f89
1089
1081
1081
1089
7fe5
0002
0000
0000
ENDCHAR
STARTCHAR 03-16
ENCODING 9008
SWIDTH 96 0
DWIDTH 16 0
BBX 16 16 0 -2
BITMAP
0001
7f81
4089
4089
7f89
4209
4209
7fc9
4209
4201
4201
4941
50c5
6042
0000
0000
ENDCHAR
STARTCHAR 03-17
ENCODING 9009
SWIDTH 96 0
DWIDTH 16 0
BBX 16 16 0 -2
BITMAP
0110
7f90
1112
117f
1512
2212
4012
3f12
2112
2122
2122
3f42
2154
0088
0000
0000
ENDCHAR
STARTCHAR 03-18
ENCODING 9010
SWIDTH 96 0
DWIDTH 16 0
BBX 16 16 0 -2
BITMAP
0408
2408
2408
3f08
247f
4409
0409
7f89
0409
0409
0a09
1111
20a5
4042
0000
0000
ENDCHAR
STARTCHAR 03-19
ENCODING 9011
SWIDTH 96 0
DWIDTH 16 0
BBX 16 16 0 -2
BITMAP
0400
0802
1fff
2002
4fe2
0102
0922
0542
3ffa
0102
0102
0102
0114
0108
0000
0000
ENDCHAR
STARTCHAR 03-20
ENCODING 9012
SWIDTH 96 0
DWIDTH 16 0
BBX 16 16 0 -2
BITMAP
0100
0108
01fc
0100
2104
7ffe
2004
3fe4
2044
3fc4
2044
2004
3ffc
2004
0000
0000
ENDCHAR
STARTCHAR 03-21
ENCODING 9013
SWIDTH 96 0
DWIDTH 16 0
BBX 16 16 0 -2
BITMAP
0100
7f7f
1121
1121
1121
1521
2221
0021
7f21
412a
4124
4120
7f20
4120
0000
0000
ENDCHAR
STARTCHAR 03-22
ENCODING 9014
SWIDTH 96 0
DWIDTH 16 0
BBX 16 16 0 -2
BITMAP
3ffe
2000
2000
27fc
2420
2420
27fe
2410
2410
2410
2490
4509
0605
1cf3
0000
0000
ENDCHAR
STARTCHAR 03-23
ENCODING 9015
SWIDTH 96 0
DWIDTH 16 0
BBX 16 16 0 -2
BITMAP
3fff
2200
2200
27fe
2880
2080
20fc
2080
2080
20fc
2080
4080
0080
0080
0000
0000
ENDCHAR
STARTCHAR 03-24
ENCODING 9016
SWIDTH 96 0
DWIDTH 16 0
BBX 16 16 0 -2
BITMAP
0010
0010
7bff
4820
4840
4880
4910
4a20
4840
7880
4904
0202
07ff
0001
0000
0000
ENDCHAR
STARTCHAR 03-25
ENCODING 9017
SWIDTH 96 0
DWIDTH 16 0
BBX 16 16 0 -2
BITMAP
0040
0040
7840
4bfc
4844
4844
4844
4fff
4840
78a0
4910
0208
0404
0803
0000
0000
ENDCHAR
STARTCHAR 03-26
ENCODING 9018
SWIDTH 96 0
DWIDTH 16 0
BBX 16 16 0 -2
BITMAP
00a0
00a0
0120
7a20
4d20
4920
493e
4920
4920
7920
4920
0121
0121
013f
0000
0000
ENDCHAR
STARTCHAR 03-27
ENCODING 9019
SWIDTH 96 0
DWIDTH 16 0
BBX 16 16 0 -2
BITMAP
0020
0020
7820
4820
4bff
4820
4820
4850
7888
4904
0282
0442
0421
0801
0000
0000
ENDCHAR
STARTCHAR 03-28
ENCODING 9020
SWIDTH 96 0
DWIDTH 16 0
BBX 16 16 0 -2
BITMAP
0010
0010
7dff
4400
4404
4404
4484
4444
4428
7c10
4428
0044
0082
0301
0000
0000
ENDCHAR
STARTCHAR 03-29
ENCODING 9021
SWIDTH 96 0
DWIDTH 16 0
BBX 16 16 0 -2
BITMAP
0020
0222
7a22
4924
48a8
4820
4820
4820
7820
4850
0088
0104
0202
0c01
0000
0000
ENDCHAR
STARTCHAR 03-30
ENCODING 9022
SWIDTH 96 0
DWIDTH 16 0
BBX 16 16 0 -2
BITMAP
00fc
0024
7c24
4424
4424
4424
45ff
4424
4424
7c24
4424
0024
0024
03ff
0000
0000
ENDCHAR
STARTCHAR 03-31
ENCODING 9023
SWIDTH 96 0
DWIDTH 16 0
BBX 16 16 0 -2
BITMAP
0002
07ff
7808
4810
4820
4840
48a0
4924
4a22
7821
4820
0020
0020
0020
0000
0000
ENDCHAR
STARTCHAR 03-32
ENCODING 9024
SWIDTH 96 0
DWIDTH 16 0
BBX 16 16 0 -2
BITMAP
0040
0044
7cfe
4510
4410
4410
4412
45ff
4410
7c10
4410
0010
0010
0010
0000
0000
ENDCHAR
STARTCHAR 03-33
ENCODING 9025
SWIDTH 96 0
DWIDTH 16 0
BBX 16 16 0 -2
BITMAP
0010
0090
7c94
44fe
4490
4510
4412
45ff
4410
7c10
4410
0010
0010
0010
0000
0000
ENDCHAR
STARTCHAR 03-34
ENCODING 9026
SWIDTH 96 0
DWIDTH 16 0
BBX 16 16 0 -2
BITMAP
0028
0048
0388
7888
4888
4fff
4888
4888
4888
7888
4908
0208
0408
0008
0000
0000
ENDCHAR
STARTCHAR 03-35
ENCODING 9027
SWIDTH 96 0
DWIDTH 16 0
BBX 16 16 0 -2
BITMAP
0080
0080
78ff
4901
4a01
4801
48f1
4801
49f9
7801
4801
0001
0012
000c
0000
0000
ENDCHAR
STARTCHAR 03-36
ENCODING 9028
SWIDTH 96 0
DWIDTH 16 0
BBX 16 16 0 -2
BITMAP
0020
0020
7824
4bfe
4820
4924
4924
4924
49fc
7924
4820
0021
0021
001f
0000
0000
ENDCHAR
STARTCHAR 03-37
ENCODING 9029
SWIDTH 96 0
DWIDTH 16 0
BBX 16 16 0 -2
BITMAP
0020
0050
7888
4904
4a02
4889
4888
4888
7888
4888
0108
0208
0408
0008
0000
0000
ENDCHAR
STARTCHAR 03-38
ENCODING 9030
SWIDTH 96 0
DWIDTH 16 0
BBX 16 16 0 -2
BITMAP
0080
0084
3e9c
02a0
02a0
0490
0888
7287
0100
1ffc
1004
1004
1ffc
1004
0000
0000
ENDCHAR
STARTCHAR 03-39
ENCODING 9031
SWIDTH 96 0
DWIDTH 16 0
BBX 16 16 0 -2
BITMAP
7fff
4001
4281
4281
4285
4489
5cf1
4481
4481
4485
44fd
4001
7fff
4001
0000
0000
ENDCHAR
STARTCHAR 03-40
ENCODING 9032
SWIDTH 96 0
DWIDTH 16 0
BBX 16 16 0 -2
BITMAP
7fff
4221
4221
4421
4821
503f
4001
47f1
4411
4411
4411
4411
7fff
4001
0000
0000
ENDCHAR
STARTCHAR 03-41
ENCODING 9033
SWIDTH 96 0
DWIDTH 16 0
BBX 16 16 0 -2
BITMAP
7fff
4081
4081
5ffd
4001
43e1
4221
4221
4425
4825
503d
4001
7fff
4001
0000
0000
ENDCHAR
STARTCHAR 03-42
ENCODING 9034
SWIDTH 96 0
DWIDTH 16 0
BBX 16 16 0 -2
BITMAP
1001
13fe
1110
7d10
1110
11ff
1110
1110
1510
1908
7129
0145
0183
0701
0000
0000
ENDCHAR
STARTCHAR 03-43
ENCODING 9035
SWIDTH 96 0
DWIDTH 16 0
BBX 16 16 0 -2
BITMAP
0020
2050
2088
2104
7a02
24f9
2000
2000
2bfe
3004
6008
0010
0020
0040
0000
0000
ENDCHAR
STARTCHAR 03-44
ENCODING 9036
SWIDTH 96 0
DWIDTH 16 0
BBX 16 16 0 -2
BITMAP
00c0
0220
0410
0808
17f7
6212
0450
18a0
0080
0080
1ffc
0080
0082
7fff
0000
0000
ENDCHAR
STARTCHAR 03-45
ENCODING 9037
SWIDTH 96 0
DWIDTH 16 0
BBX 16 16 0 -2
BITMAP
0020
0024
13fe
1020
1124
7d24
1124
1124
11fc
1420
1820
7021
0021
003f
0000
0000
ENDCHAR
STARTCHAR 03-46
ENCODING 9038
SWIDTH 96 0
DWIDTH 16 0
BBX 16 16 0 -2
BITMAP
0028
0044
1082
1101
1000
7cfe
1022
1022
1022
1422
1842
7082
010a
0004
0000
0000
ENDCHAR
STARTCHAR 03-47
ENCODING 9039
SWIDTH 96 0
DWIDTH 16 0
BBX 16 16 0 -2
BITMAP
2040
2040
2040
3f7f
2040
2141
2241
7c7f
0080
0080
1ffc
0080
0080
7fff
0000
0000
ENDCHAR
STARTCHAR 03-48
ENCODING 9040
SWIDTH 96 0
DWIDTH 16 0
BBX 16 16 0 -2
BITMAP
0400
0ff8
1410
2220
01c0
7ebf
0080
1ffc
0080
1ffc
0080
3ffe
0080
0080
0000
0000
ENDCHAR
STARTCHAR 03-49
ENCODING 9041
SWIDTH 96 0
DWIDTH 16 0
BBX 16 16 0 -2
BITMAP
7fff
0040
0080
0188
0284
7c83
0000
0080
7fff
0140
0220
0410
0808
7007
0000
0000
ENDCHAR
STARTCHAR 03-50
ENCODING 9042
SWIDTH 96 0
DWIDTH 16 0
BBX 16 16 0 -2
BITMAP
2008
2209
220e
7f78
2208
2208
227f
2208
2208
147f
0808
1408
2208
4108
0000
0000
ENDCHAR
STARTCHAR 03-51
ENCODING 9043
SWIDTH 96 0
DWIDTH 16 0
BBX 16 16 0 -2
BITMAP
2000
227e
2200
7f00
2200
22ff
2208
2208
2210
1420
0842
1482
22ff
4101
0000
0000
ENDCHAR
STARTCHAR 03-52
ENCODING 9044
SWIDTH 96 0
DWIDTH 16 0
BBX 16 16 0 -2
BITMAP
2008
2208
2208
7f7f
2249
2249
2249
2255
2263
1441
0841
1441
2245
4142
0000
0000
ENDCHAR
STARTCHAR 03-53
ENCODING 9045
SWIDTH 96 0
DWIDTH 16 0
BBX 16 16 0 -2
BITMAP
0820
0850
0850
7e88
1287
137a
1200
22fc
1404
0808
1408
2210
4220
0040
0000
0000
ENDCHAR
STARTCHAR 03-54
ENCODING 9046
SWIDTH 96 0
DWIDTH 16 0
BBX 16 16 0 -2
BITMAP
2010
2228
2244
7e82
2301
2244
2244
2244
2244
1444
0844
1484
2304
4204
0000
0000
ENDCHAR
STARTCHAR 03-55
ENCODING 9047
SWIDTH 96 0
DWIDTH 16 0
BBX 16 16 0 -2
BITMAP
0010
2028
2244
2282
7f01
22fe
2212
2212
2212
2212
1422
0842
148a
6204
0000
0000
ENDCHAR
STARTCHAR 03-56
ENCODING 9048
SWIDTH 96 0
DWIDTH 16 0
BBX 16 16 0 -2
BITMAP
2000
2018
2224
2242
7f81
2300
2208
2208
2210
2210
1424
0842
14ff
6301
0000
0000
ENDCHAR
STARTCHAR 03-57
ENCODING 9049
SWIDTH 96 0
DWIDTH 16 0
BBX 16 16 0 -2
BITMAP
2008
2208
227f
7f22
2222
2222
2222
2222
2214
1408
0814
1422
2241
4141
0000
0000
ENDCHAR
STARTCHAR 03-58
ENCODING 9050
SWIDTH 96 0
DWIDTH 16 0
BBX 16 16 0 -2
BITMAP
2000
227e
2200
7f80
2200
22ff
2224
2224
2224
1424
0824
1425
2245
4187
0000
0000
ENDCHAR
STARTCHAR 03-59
ENCODING 9051
SWIDTH 96 0
DWIDTH 16 0
BBX 16 16 0 -2
BITMAP
2001
227e
2240
7f40
227f
2244
2244
2244
2244
1444
0844
1484
2204
4104
0000
0000
ENDCHAR
STARTCHAR 03-60
ENCODING 9052
SWIDTH 96 0
DWIDTH 16 0
BBX 16 16 0 -2
BITMAP
0080
7fff
4001
4031
01c0
0680
0080
0080
7fff
0140
0220
0410
0808
3006
0000
0000
ENDCHAR
STARTCHAR 03-61
ENCODING 9053
SWIDTH 96 0
DWIDTH 16 0
BBX 16 16 0 -2
BITMAP
0100
0080
7fff
4001
4021
00c0
0f80
0080
1ffc
0080
3ffe
0080
0081
00ff
0000
0000
ENDCHAR
STARTCHAR 03-62
ENCODING 9054
SWIDTH 96 0
DWIDTH 16 0
BBX 16 16 0 -2
BITMAP
1000
1202
1104
1008
7e30
1004
1008
1410
1462
1404
1408
2472
4402
07fe
0000
0000
ENDCHAR
STARTCHAR 03-63
ENCODING 9055
SWIDTH 96 0
DWIDTH 16 0
BBX 16 16 0 -2
BITMAP
1000
10fe
1010
7e10
1010
10fe
1410
1410
1410
14fe
2400
4401
0401
03ff
0000
0000
ENDCHAR
STARTCHAR 03-64
ENCODING 9056
SWIDTH 96 0
DWIDTH 16 0
BBX 16 16 0 -2
BITMAP
0002
11ff
1044
1044
5444
57ff
5444
5444
5444
7c44
4484
0104
0004
0004
0000
0000
ENDCHAR
STARTCHAR 03-65
ENCODING 9057
SWIDTH 96 0
DWIDTH 16 0
BBX 16 16 0 -2
BITMAP
0004
10fe
1000
1002
55ff
5448
5448
5448
5448
5448
7c49
4489
0109
020f
0000
0000
ENDCHAR
STARTCHAR 03-66
ENCODING 9058
SWIDTH 96 0
DWIDTH 16 0
BBX 16 16 0 -2
BITMAP
1004
10fe
1008
5448
5488
55ff
5418
5428
5448
7c88
4108
0608
0028
0010
0000
0000
ENDCHAR
STARTCHAR 03-67
ENCODING 9059
SWIDTH 96 0
DWIDTH 16 0
BBX 16 16 0 -2
BITMAP
01fe
1082
1084
1088
549e
5482
5482
54a2
5494
7c88
4514
0022
0041
0181
0000
0000
ENDCHAR
STARTCHAR 03-68
ENCODING 9060
SWIDTH 96 0
DWIDTH 16 0
BBX 16 16 0 -2
BITMAP
0040
1040
107f
10a9
5529
5429
5429
5449
5489
5511
7c21
4441
008a
0004
0000
0000
ENDCHAR
STARTCHAR 03-69
ENCODING 9061
SWIDTH 96 0
DWIDTH 16 0
BBX 16 16 0 -2
BITMAP
0010
1028
1044
1082
5501
547c
5400
54fe
5402
5402
7c04
4408
0010
0020
0000
0000
ENDCHAR
STARTCHAR 03-70
ENCODING 9062
SWIDTH 96 0
DWIDTH 16 0
BBX 16 16 0 -2
BITMAP
0004
3ffe
2084
2084
3ffc
2000
2002
3ffe
0080
0080
2082
2082
3ffe
2002
0000
0000
ENDCHAR
STARTCHAR 03-71
ENCODING 9063
SWIDTH 96 0
DWIDTH 16 0
BBX 16 16 0 -2
BITMAP
0002
10fc
1010
1010
5410
55ff
5410
5410
5410
7c28
4444
0082
0101
0101
0000
0000
ENDCHAR
STARTCHAR 03-72
ENCODING 9064
SWIDTH 96 0
DWIDTH 16 0
BBX 16 16 0 -2
BITMAP
0001
11fe
1080
1080
54ff
5488
5488
5488
5488
5488
7d08
4408
0008
0008
0000
0000
ENDCHAR
STARTCHAR 03-73
ENCODING 9065
SWIDTH 96 0
DWIDTH 16 0
BBX 16 16 0 -2
BITMAP
0080
2082
2082
3ffe
0080
0140
0220
0410
0a28
7227
0220
0220
0c20
0020
0000
0000
ENDCHAR
STARTCHAR 03-74
ENCODING 9066
SWIDTH 96 0
DWIDTH 16 0
BBX 16 16 0 -2
BITMAP
0002
7fff
0000
0842
1084
2108
1084
0842
0000
1ffc
0080
0080
0082
7fff
0000
0000
ENDCHAR
STARTCHAR 03-75
ENCODING 9067
SWIDTH 96 0
DWIDTH 16 0
BBX 16 16 0 -2
BITMAP
0800
0800
087f
7f49
4949
4949
497f
4940
4b40
0840
0840
0841
0841
087f
0000
0000
ENDCHAR
STARTCHAR 03-76
ENCODING 9068
SWIDTH 96 0
DWIDTH 16 0
BBX 16 16 0 -2
BITMAP
0810
0810
087f
7f51
4951
4914
4914
4b14
0814
0824
0825
0845
0885
0907
0000
0000
ENDCHAR
STARTCHAR 03-77
ENCODING 9069
SWIDTH 96 0
DWIDTH 16 0
BBX 16 16 0 -2
BITMAP
0080
0042
1fff
1040
1fff
1040
17fc
1208
1110
10a0
2040
20b0
430f
0c02
0000
0000
ENDCHAR
STARTCHAR 03-78
ENCODING 9070
SWIDTH 96 0
DWIDTH 16 0
BBX 16 16 0 -2
BITMAP
0080
0042
3fff
2000
2040
2ffe
2040
2444
2444
2444
27fc
2040
4042
007e
0000
0000
ENDCHAR
STARTCHAR 03-79
ENCODING 9071
SWIDTH 96 0
DWIDTH 16 0
BBX 16 16 0 -2
BITMAP
0080
0040
3fff
2000
2ffc
2410
2410
27fe
2050
2090
2110
2210
4c50
0020
0000
0000
ENDCHAR
STARTCHAR 03-80
ENCODING 9072
SWIDTH 96 0
DWIDTH 16 0
BBX 16 16 0 -2
BITMAP
0040
3fff
2040
20a0
2110
2208
25f4
3803
27fc
2008
2010
4020
0040
0080
0000
0000
ENDCHAR
STARTCHAR 03-81
ENCODING 9073
SWIDTH 96 0
DWIDTH 16 0
BBX 16 16 0 -2
BITMAP
0040
3fff
2000
2004
27f8
2200
2204
23fe
2210
2210
2410
2810
4010
0010
0000
0000
ENDCHAR
STARTCHAR 03-82
ENCODING 9074
SWIDTH 96 0
DWIDTH 16 0
BBX 16 16 0 -2
BITMAP
0410
0808
7007
0ff8
0108
0208
0c38
0410
0410
7fff
0410
0410
0810
1010
0000
0000
ENDCHAR
STARTCHAR 03-83
ENCODING 9075
SWIDTH 96 0
DWIDTH 16 0
BBX 16 16 0 -2
BITMAP
7dff
0511
0511
7d11
4111
41ff
7d01
0500
0500
0500
0500
4501
2901
10ff
0000
0000
ENDCHAR
STARTCHAR 03-84
ENCODING 9076
SWIDTH 96 0
DWIDTH 16 0
BBX 16 16 0 -2
BITMAP
0800
0830
1048
2484
4902
1201
3020
5020
1020
1044
1082
13ff
1001
1000
0000
0000
ENDCHAR
STARTCHAR 03-85
ENCODING 9077
SWIDTH 96 0
DWIDTH 16 0
BBX 16 16 0 -2
BITMAP
0800
13fe
2104
4908
1110
313e
5102
1142
1122
1114
1208
1414
1022
10c1
0000
0000
ENDCHAR
STARTCHAR 03-86
ENCODING 9078
SWIDTH 96 0
DWIDTH 16 0
BBX 16 16 0 -2
BITMAP
0040
0050
0048
007f
7fc0
0420
0220
0a10
2a90
2848
4949
0905
0705
0002
0000
0000
ENDCHAR
STARTCHAR 03-87
ENCODING 9079
SWIDTH 96 0
DWIDTH 16 0
BBX 16 16 0 -2
BITMAP
0002
3fff
00c0
00b0
0098
0088
0080
0080
0000
14c4
1442
2409
4409
03f8
0000
0000
ENDCHAR
STARTCHAR 03-88
ENCODING 9080
SWIDTH 96 0
DWIDTH 16 0
BBX 16 16 0 -2
BITMAP
0080
0088
00fc
0080
0080
0082
3fff
0000
0000
14c4
1442
2409
4409
03f8
0000
0000
ENDCHAR
STARTCHAR 03-89
ENCODING 9081
SWIDTH 96 0
DWIDTH 16 0
BBX 16 16 0 -2
BITMAP
0840
0820
0802
0bff
2c20
2a20
2830
4828
0826
0822
0820
0820
0820
0820
0000
0000
ENDCHAR
STARTCHAR 03-90
ENCODING 9082
SWIDTH 96 0
DWIDTH 16 0
BBX 16 16 0 -2
BITMAP
1000
1004
13fe
1800
5400
5002
57ff
1090
1090
1090
1090
1111
1211
141f
0000
0000
ENDCHAR
STARTCHAR 03-91
ENCODING 9083
SWIDTH 96 0
DWIDTH 16 0
BBX 16 16 0 -2
BITMAP
0820
0822
0bff
2c20
2a20
49fc
0904
0908
0888
0850
0820
0858
0987
0e02
0000
0000
ENDCHAR
STARTCHAR 03-92
ENCODING 9084
SWIDTH 96 0
DWIDTH 16 0
BBX 16 16 0 -2
BITMAP
1020
1022
17ff
1020
1a22
5622
5222
5222
13fe
1020
1020
1020
1021
103f
0000
0000
ENDCHAR
STARTCHAR 03-93
ENCODING 9085
SWIDTH 96 0
DWIDTH 16 0
BBX 16 16 0 -2
BITMAP
1020
1020
1022
5bff
5622
5222
5222
1222
13fe
1222
1020
1020
1020
1020
0000
0000
ENDCHAR
STARTCHAR 03-94
ENCODING 9086
SWIDTH 96 0
DWIDTH 16 0
BBX 16 16 0 -2
BITMAP
0880
0884
2cfe
2a90
2890
4910
0812
0bff
0810
0810
0810
0810
0810
0810
0000
0000
ENDCHAR
STARTCHAR 04-01
ENCODING 9249
SWIDTH 96 0
DWIDTH 16 0
BBX 16 16 0 -2
BITMAP
1000
13fe
1104
5908
5510
513f
5101
1142
1124
1118
1218
1424
1042
1181
0000
0000
ENDCHAR
STARTCHAR 04-02
ENCODING 9250
SWIDTH 96 0
DWIDTH 16 0
BBX 16 16 0 -2
BITMAP
1100
1100
11ff
5a21
5421
5022
5020
1020
1020
1050
1088
1104
1202
1401
0000
0000
ENDCHAR
STARTCHAR 04-03
ENCODING 9251
SWIDTH 96 0
DWIDTH 16 0
BBX 16 16 0 -2
BITMAP
1000
13fe
1208
5a08
5608
5208
53ff
1208
1208
1208
1249
1285
1303
1601
0000
0000
ENDCHAR
STARTCHAR 04-04
ENCODING 9252
SWIDTH 96 0
DWIDTH 16 0
BBX 16 16 0 -2
BITMAP
1000
1000
1202
5202
5a02
568a
5252
1222
1252
128a
1202
1202
13fe
1202
0000
0000
ENDCHAR
STARTCHAR 04-05
ENCODING 9253
SWIDTH 96 0
DWIDTH 16 0
BBX 16 16 0 -2
BITMAP
080e
08f0
0880
2c80
2a82
28ff
4888
0888
0888
0908
0908
0a08
0c08
0808
0000
0000
ENDCHAR
STARTCHAR 04-06
ENCODING 9254
SWIDTH 96 0
DWIDTH 16 0
BBX 16 16 0 -2
BITMAP
1002
13ff
1010
5820
5460
50b0
1128
1224
1422
1021
1020
1020
1020
1020
0000
0000
ENDCHAR
STARTCHAR 04-07
ENCODING 9255
SWIDTH 96 0
DWIDTH 16 0
BBX 16 16 0 -2
BITMAP
1020
1050
1088
1904
5202
54f9
5000
1000
13fe
1002
1004
1008
1010
1020
0000
0000
ENDCHAR
STARTCHAR 04-08
ENCODING 9256
SWIDTH 96 0
DWIDTH 16 0
BBX 16 16 0 -2
BITMAP
0080
0100
3e7f
2041
2041
3f41
217f
2140
2140
3f40
2040
2041
2041
407f
0000
0000
ENDCHAR
STARTCHAR 04-09
ENCODING 9257
SWIDTH 96 0
DWIDTH 16 0
BBX 16 16 0 -2
BITMAP
0820
0810
0808
7e00
08ff
0a10
0c10
1818
6814
0812
0810
4810
2810
1010
0000
0000
ENDCHAR
STARTCHAR 04-10
ENCODING 9258
SWIDTH 96 0
DWIDTH 16 0
BBX 16 16 0 -2
BITMAP
0820
0820
09ff
7d21
0921
0820
0c28
1828
6828
0828
0848
0889
2909
120f
0000
0000
ENDCHAR
STARTCHAR 04-11
ENCODING 9259
SWIDTH 96 0
DWIDTH 16 0
BBX 16 16 0 -2
BITMAP
1000
1000
10fe
7c00
1000
11ff
1410
1810
7020
1040
1088
1104
53fe
2002
0000
0000
ENDCHAR
STARTCHAR 04-12
ENCODING 9260
SWIDTH 96 0
DWIDTH 16 0
BBX 16 16 0 -2
BITMAP
0800
0800
08fe
7c00
0800
09ff
0c48
1848
6848
0848
0849
0889
2909
120f
0000
0000
ENDCHAR
STARTCHAR 04-13
ENCODING 9261
SWIDTH 96 0
DWIDTH 16 0
BBX 16 16 0 -2
BITMAP
1000
13ff
1008
7c10
1020
1040
14a4
1924
7222
1021
1020
1020
5020
2020
0000
0000
ENDCHAR
STARTCHAR 04-14
ENCODING 9262
SWIDTH 96 0
DWIDTH 16 0
BBX 16 16 0 -2
BITMAP
0800
0802
08ff
7e82
0882
0882
0a82
0cfe
1882
6882
0882
0882
28fe
1082
0000
0000
ENDCHAR
STARTCHAR 04-15
ENCODING 9263
SWIDTH 96 0
DWIDTH 16 0
BBX 16 16 0 -2
BITMAP
13fe
1102
7d04
1108
1110
113e
1502
1942
7122
1114
1208
1414
5022
20c1
0000
0000
ENDCHAR
STARTCHAR 04-16
ENCODING 9264
SWIDTH 96 0
DWIDTH 16 0
BBX 16 16 0 -2
BITMAP
1040
1040
107f
7c91
1111
1010
1410
1810
7010
1028
1044
1082
5101
2201
0000
0000
ENDCHAR
STARTCHAR 04-17
ENCODING 9265
SWIDTH 96 0
DWIDTH 16 0
BBX 16 16 0 -2
BITMAP
0804
081e
09f0
0910
7f10
0b10
0dfe
1910
6910
0908
0948
0985
2b05
1103
0000
0000
ENDCHAR
STARTCHAR 04-18
ENCODING 9266
SWIDTH 96 0
DWIDTH 16 0
BBX 16 16 0 -2
BITMAP
1020
1024
1022
7dff
1020
1020
1428
1828
7028
1028
1048
1088
5109
220f
0000
0000
ENDCHAR
STARTCHAR 04-19
ENCODING 9267
SWIDTH 96 0
DWIDTH 16 0
BBX 16 16 0 -2
BITMAP
1010
1020
1040
7c84
1102
13ff
1491
1890
7090
1090
1090
1111
5211
241f
0000
0000
ENDCHAR
STARTCHAR 04-20
ENCODING 9268
SWIDTH 96 0
DWIDTH 16 0
BBX 16 16 0 -2
BITMAP
0800
08fe
0882
7e82
08fe
0a82
0c82
18fe
6882
0882
0882
0882
290a
1204
0000
0000
ENDCHAR
STARTCHAR 04-21
ENCODING 9269
SWIDTH 96 0
DWIDTH 16 0
BBX 16 16 0 -2
BITMAP
0802
08fc
0810
7c10
0810
09ff
0c10
1810
6810
0828
0844
0882
2901
1201
0000
0000
ENDCHAR
STARTCHAR 04-22
ENCODING 9270
SWIDTH 96 0
DWIDTH 16 0
BBX 16 16 0 -2
BITMAP
1020
1024
7dfe
1020
1124
1124
1524
1924
71fc
1020
1020
1021
5021
201f
0000
0000
ENDCHAR
STARTCHAR 04-23
ENCODING 9271
SWIDTH 96 0
DWIDTH 16 0
BBX 16 16 0 -2
BITMAP
1010
1028
1044
7c82
1101
107c
1400
1800
70fe
1002
1004
1008
5010
2020
0000
0000
ENDCHAR
STARTCHAR 04-24
ENCODING 9272
SWIDTH 96 0
DWIDTH 16 0
BBX 16 16 0 -2
BITMAP
1010
1028
1044
7c82
1101
1044
1444
1844
7044
1044
1084
1104
5204
2004
0000
0000
ENDCHAR
STARTCHAR 04-25
ENCODING 9273
SWIDTH 96 0
DWIDTH 16 0
BBX 16 16 0 -2
BITMAP
0004
7cfe
4410
4410
4410
7c12
45ff
4410
4410
7c10
4410
0010
0010
0010
0000
0000
ENDCHAR
STARTCHAR 04-26
ENCODING 9274
SWIDTH 96 0
DWIDTH 16 0
BBX 16 16 0 -2
BITMAP
00fe
0010
7c10
4410
4410
45ff
7c10
4410
4410
4410
7c10
4490
0050
0020
0000
0000
ENDCHAR
STARTCHAR 04-27
ENCODING 9275
SWIDTH 96 0
DWIDTH 16 0
BBX 16 16 0 -2
BITMAP
0040
0040
7c7f
4481
4501
4441
7c21
4411
4401
4401
7c01
4401
0012
000c
0000
0000
ENDCHAR
STARTCHAR 04-28
ENCODING 9276
SWIDTH 96 0
DWIDTH 16 0
BBX 16 16 0 -2
BITMAP
1ffc
1004
1ffc
1004
1ffc
0080
0080
3ffe
0080
0140
0220
0410
0808
7007
0000
0000
ENDCHAR
STARTCHAR 04-29
ENCODING 9277
SWIDTH 96 0
DWIDTH 16 0
BBX 16 16 0 -2
BITMAP
1ffc
1004
1ffc
1004
1ffc
1004
0080
0080
2082
2082
2082
2082
3ffe
2002
0000
0000
ENDCHAR
STARTCHAR 04-30
ENCODING 9278
SWIDTH 96 0
DWIDTH 16 0
BBX 16 16 0 -2
BITMAP
1004
10fe
1010
7c10
1010
11ff
1010
3810
5410
1010
1010
1010
1050
1020
0000
0000
ENDCHAR
STARTCHAR 04-31
ENCODING 9279
SWIDTH 96 0
DWIDTH 16 0
BBX 16 16 0 -2
BITMAP
1000
10fc
1000
7c00
13ff
1080
1080
38fe
5402
1002
1002
1004
1008
1070
0000
0000
ENDCHAR
STARTCHAR 04-32
ENCODING 9280
SWIDTH 96 0
DWIDTH 16 0
BBX 16 16 0 -2
BITMAP
1040
1048
1044
7c40
11ff
1040
1040
3840
5440
1020
1010
1009
1005
1003
0000
0000
ENDCHAR
STARTCHAR 04-33
ENCODING 9281
SWIDTH 96 0
DWIDTH 16 0
BBX 16 16 0 -2
BITMAP
0810
0810
0810
7f10
09ff
0810
1c10
2a10
4910
0828
0844
0882
0901
0a01
0000
0000
ENDCHAR
STARTCHAR 04-34
ENCODING 9282
SWIDTH 96 0
DWIDTH 16 0
BBX 16 16 0 -2
BITMAP
0800
0802
0bff
7e48
0848
1848
1c48
2a48
2a48
4848
0889
0889
0909
0a07
0000
0000
ENDCHAR
STARTCHAR 04-35
ENCODING 9283
SWIDTH 96 0
DWIDTH 16 0
BBX 16 16 0 -2
BITMAP
0804
09fe
0804
7e44
0928
18a8
1c88
2a50
2a50
4820
0850
0888
0907
0a02
0000
0000
ENDCHAR
STARTCHAR 04-36
ENCODING 9284
SWIDTH 96 0
DWIDTH 16 0
BBX 16 16 0 -2
BITMAP
1008
1088
1088
7c88
1088
13ff
1089
388a
5488
1088
1080
1081
1081
107f
0000
0000
ENDCHAR
STARTCHAR 04-37
ENCODING 9285
SWIDTH 96 0
DWIDTH 16 0
BBX 16 16 0 -2
BITMAP
08fe
0804
0808
7e10
0810
09ff
1c10
2a10
4910
0810
0810
0810
0850
0820
0000
0000
ENDCHAR
STARTCHAR 04-38
ENCODING 9286
SWIDTH 96 0
DWIDTH 16 0
BBX 16 16 0 -2
BITMAP
1040
1042
10ff
7d00
1000
107c
1004
3808
5410
1020
1040
1081
1101
10ff
0000
0000
ENDCHAR
STARTCHAR 04-39
ENCODING 9287
SWIDTH 96 0
DWIDTH 16 0
BBX 16 16 0 -2
BITMAP
1008
11fc
1108
7d08
1108
1148
3928
5508
1108
1108
1108
1109
1209
140f
0000
0000
ENDCHAR
STARTCHAR 04-40
ENCODING 9288
SWIDTH 96 0
DWIDTH 16 0
BBX 16 16 0 -2
BITMAP
0080
0080
3ffe
0080
1ffc
0000
1ffc
1084
1084
7fff
1084
1084
1ffe
0018
0000
0000
ENDCHAR
STARTCHAR 04-41
ENCODING 9289
SWIDTH 96 0
DWIDTH 16 0
BBX 16 16 0 -2
BITMAP
0802
0fff
1000
17fc
2000
5ffc
0104
0104
1114
1114
1114
1ff5
0015
0003
0000
0000
ENDCHAR
STARTCHAR 04-42
ENCODING 9290
SWIDTH 96 0
DWIDTH 16 0
BBX 16 16 0 -2
BITMAP
0802
0fff
1000
17fc
2000
5ffc
0004
0924
0924
0924
0924
1125
1125
2023
0000
0000
ENDCHAR
STARTCHAR 04-43
ENCODING 9291
SWIDTH 96 0
DWIDTH 16 0
BBX 16 16 0 -2
BITMAP
3020
1022
07ff
4080
3080
10fe
0482
0882
0882
7082
1102
1222
1414
1008
0000
0000
ENDCHAR
STARTCHAR 04-44
ENCODING 9292
SWIDTH 96 0
DWIDTH 16 0
BBX 16 16 0 -2
BITMAP
3002
11ff
0044
4044
3044
11ff
0444
0844
0844
7044
1084
1104
1204
1004
0000
0000
ENDCHAR
STARTCHAR 04-45
ENCODING 9293
SWIDTH 96 0
DWIDTH 16 0
BBX 16 16 0 -2
BITMAP
3048
1048
0048
41fe
3048
1048
0448
0bff
0848
7048
1088
1108
1208
1008
0000
0000
ENDCHAR
STARTCHAR 04-46
ENCODING 9294
SWIDTH 96 0
DWIDTH 16 0
BBX 16 16 0 -2
BITMAP
3000
11fe
0000
4000
3000
13ff
0410
0820
0840
7080
1102
13ff
1001
1000
0000
0000
ENDCHAR
STARTCHAR 04-47
ENCODING 9295
SWIDTH 96 0
DWIDTH 16 0
BBX 16 16 0 -2
BITMAP
3044
1042
0040
43ff
3040
1050
0450
0850
0850
7090
1111
1211
141f
1000
0000
0000
ENDCHAR
STARTCHAR 04-48
ENCODING 9296
SWIDTH 96 0
DWIDTH 16 0
BBX 16 16 0 -2
BITMAP
2200
1202
127f
4212
2fd2
2212
0a12
1212
7292
1322
1222
1042
108a
1104
0000
0000
ENDCHAR
STARTCHAR 04-49
ENCODING 9297
SWIDTH 96 0
DWIDTH 16 0
BBX 16 16 0 -2
BITMAP
1820
0824
0022
4020
37ff
1020
0420
0820
0850
7088
1104
1202
1401
1401
0000
0000
ENDCHAR
STARTCHAR 04-50
ENCODING 9298
SWIDTH 96 0
DWIDTH 16 0
BBX 16 16 0 -2
BITMAP
3020
1022
07ff
4020
3020
1040
0488
0910
0a20
7040
1084
1102
13ff
1001
0000
0000
ENDCHAR
STARTCHAR 04-51
ENCODING 9299
SWIDTH 96 0
DWIDTH 16 0
BBX 16 16 0 -2
BITMAP
3020
1040
0080
41fe
3102
1102
0502
09fe
0902
7102
1102
11fe
1102
1000
0000
0000
ENDCHAR
STARTCHAR 04-52
ENCODING 9300
SWIDTH 96 0
DWIDTH 16 0
BBX 16 16 0 -2
BITMAP
3010
1010
0010
4010
3010
1110
051f
0910
0910
7110
1110
1110
1110
17ff
0000
0000
ENDCHAR
STARTCHAR 04-53
ENCODING 9301
SWIDTH 96 0
DWIDTH 16 0
BBX 16 16 0 -2
BITMAP
4020
3020
1020
07ff
4421
3421
1451
0489
1505
2401
6401
2401
2405
2402
0000
0000
ENDCHAR
STARTCHAR 04-54
ENCODING 9302
SWIDTH 96 0
DWIDTH 16 0
BBX 16 16 0 -2
BITMAP
4020
3040
1080
0104
4202
37ff
1091
0490
0890
1090
7110
1211
1411
101f
0000
0000
ENDCHAR
STARTCHAR 04-55
ENCODING 9303
SWIDTH 96 0
DWIDTH 16 0
BBX 16 16 0 -2
BITMAP
4100
3100
11ff
0251
4451
3051
1051
0451
0891
1111
7221
1441
108a
1004
0000
0000
ENDCHAR
STARTCHAR 04-56
ENCODING 9304
SWIDTH 96 0
DWIDTH 16 0
BBX 16 16 0 -2
BITMAP
4108
3108
1108
0108
41f8
3100
1100
05fc
0908
7108
1108
1208
1408
1008
0000
0000
ENDCHAR
STARTCHAR 04-57
ENCODING 9305
SWIDTH 96 0
DWIDTH 16 0
BBX 16 16 0 -2
BITMAP
4001
33fe
1210
0210
4210
33ff
1210
0210
0a10
7210
1250
1289
1305
1603
0000
0000
ENDCHAR
STARTCHAR 04-58
ENCODING 9306
SWIDTH 96 0
DWIDTH 16 0
BBX 16 16 0 -2
BITMAP
4018
3060
1380
0200
43ff
3201
1282
0244
0a28
7210
2228
2444
2882
2301
0000
0000
ENDCHAR
STARTCHAR 04-59
ENCODING 9307
SWIDTH 96 0
DWIDTH 16 0
BBX 16 16 0 -2
BITMAP
4020
3020
13fe
0020
4020
33fe
1104
0488
0850
1020
7050
1088
1104
1603
0000
0000
ENDCHAR
STARTCHAR 04-60
ENCODING 9308
SWIDTH 96 0
DWIDTH 16 0
BBX 16 16 0 -2
BITMAP
4100
3104
13fe
0420
4020
3022
17ff
0020
0420
0820
1020
7020
1020
1020
0000
0000
ENDCHAR
STARTCHAR 04-61
ENCODING 9309
SWIDTH 96 0
DWIDTH 16 0
BBX 16 16 0 -2
BITMAP
4080
30a0
1120
0220
0420
4220
323e
1220
0220
0a20
7220
1221
1221
123f
0000
0000
ENDCHAR
STARTCHAR 04-62
ENCODING 9310
SWIDTH 96 0
DWIDTH 16 0
BBX 16 16 0 -2
BITMAP
0800
0802
087f
4a08
4908
4908
0808
0808
0808
0808
1408
2208
417f
4100
0000
0000
ENDCHAR
STARTCHAR 04-63
ENCODING 9311
SWIDTH 96 0
DWIDTH 16 0
BBX 16 16 0 -2
BITMAP
1080
1090
1090
5890
55ff
5091
5091
1092
1090
1090
1080
2881
4481
427f
0000
0000
ENDCHAR
STARTCHAR 04-64
ENCODING 9312
SWIDTH 96 0
DWIDTH 16 0
BBX 16 16 0 -2
BITMAP
0800
29ff
2821
3c21
48a1
0861
0c21
1821
6821
0821
0841
0881
2912
100c
0000
0000
ENDCHAR
STARTCHAR 04-65
ENCODING 9313
SWIDTH 96 0
DWIDTH 16 0
BBX 16 16 0 -2
BITMAP
4440
2820
1010
29ff
4410
0410
0c18
1414
2412
4410
0410
0410
2810
1010
0000
0000
ENDCHAR
STARTCHAR 04-66
ENCODING 9314
SWIDTH 96 0
DWIDTH 16 0
BBX 16 16 0 -2
BITMAP
4400
28fe
1084
2884
4484
04ff
0c14
1424
2444
4484
0504
0404
2824
1018
0000
0000
ENDCHAR
STARTCHAR 04-67
ENCODING 9315
SWIDTH 96 0
DWIDTH 16 0
BBX 16 16 0 -2
BITMAP
4404
29fe
1044
2844
4444
0444
0c44
15ff
2444
4444
0444
0444
2bff
1000
0000
0000
ENDCHAR
STARTCHAR 04-68
ENCODING 9316
SWIDTH 96 0
DWIDTH 16 0
BBX 16 16 0 -2
BITMAP
4410
2810
1010
29ff
4511
0511
0d11
15ff
2511
4410
0410
0410
2810
1010
0000
0000
ENDCHAR
STARTCHAR 04-69
ENCODING 9317
SWIDTH 96 0
DWIDTH 16 0
BBX 16 16 0 -2
BITMAP
4420
2820
1048
2884
4502
05ff
0c49
1448
2448
4448
0489
0489
2909
1207
0000
0000
ENDCHAR
STARTCHAR 04-70
ENCODING 9318
SWIDTH 96 0
DWIDTH 16 0
BBX 16 16 0 -2
BITMAP
4410
2812
11ff
2800
4400
047c
0c44
1444
2444
4444
0444
0485
2905
1207
0000
0000
ENDCHAR
STARTCHAR 04-71
ENCODING 9319
SWIDTH 96 0
DWIDTH 16 0
BBX 16 16 0 -2
BITMAP
0400
4406
2818
11f0
2810
4410
0410
0dff
1410
2410
4410
0410
0810
31ff
0000
0000
ENDCHAR
STARTCHAR 04-72
ENCODING 9320
SWIDTH 96 0
DWIDTH 16 0
BBX 16 16 0 -2
BITMAP
0006
7c08
10f0
1010
1010
7c12
11ff
1010
1010
1410
1810
7010
0010
0010
0000
0000
ENDCHAR
STARTCHAR 04-73
ENCODING 9321
SWIDTH 96 0
DWIDTH 16 0
BBX 16 16 0 -2
BITMAP
0804
7cfe
1010
1010
1012
7dff
1010
1010
1010
1410
1810
7010
0090
0060
0000
0000
ENDCHAR
STARTCHAR 04-74
ENCODING 9322
SWIDTH 96 0
DWIDTH 16 0
BBX 16 16 0 -2
BITMAP
0080
0480
7eff
1081
1101
1001
7c21
1011
1209
1401
1801
7001
0012
000c
0000
0000
ENDCHAR
STARTCHAR 04-75
ENCODING 9323
SWIDTH 96 0
DWIDTH 16 0
BBX 16 16 0 -2
BITMAP
0802
7c92
1092
1092
1092
7c92
1092
1092
1492
1892
7092
0112
0202
0002
0000
0000
ENDCHAR
STARTCHAR 04-76
ENCODING 9324
SWIDTH 96 0
DWIDTH 16 0
BBX 16 16 0 -2
BITMAP
0804
7cfe
1010
1010
1010
1010
7c10
1010
1010
1410
1810
7012
03ff
0000
0000
0000
ENDCHAR
STARTCHAR 04-77
ENCODING 9325
SWIDTH 96 0
DWIDTH 16 0
BBX 16 16 0 -2
BITMAP
0002
01ff
7c10
5410
5410
5410
7c10
5410
5410
5410
7c10
4410
0050
0020
0000
0000
ENDCHAR
STARTCHAR 04-78
ENCODING 9326
SWIDTH 96 0
DWIDTH 16 0
BBX 16 16 0 -2
BITMAP
0080
1ffc
1084
1ffc
1084
1ffc
0000
7fff
0800
0ffc
0004
0004
0008
03f0
0000
0000
ENDCHAR
STARTCHAR 04-79
ENCODING 9327
SWIDTH 96 0
DWIDTH 16 0
BBX 16 16 0 -2
BITMAP
0040
0022
0fff
0800
4802
2fff
2820
1820
2820
6820
1020
1020
20a0
4040
0000
0000
ENDCHAR
STARTCHAR 04-80
ENCODING 9328
SWIDTH 96 0
DWIDTH 16 0
BBX 16 16 0 -2
BITMAP
0080
0042
1fff
1000
5100
3102
1104
3108
5130
11c0
1100
2101
4101
00ff
0000
0000
ENDCHAR
STARTCHAR 04-81
ENCODING 9329
SWIDTH 96 0
DWIDTH 16 0
BBX 16 16 0 -2
BITMAP
0400
0804
1ffe
3004
5ffc
1004
1ffc
1084
0080
0080
7fff
0080
0080
0080
0000
0000
ENDCHAR
STARTCHAR 04-82
ENCODING 9330
SWIDTH 96 0
DWIDTH 16 0
BBX 16 16 0 -2
BITMAP
23fe
1082
0084
7c88
0490
089f
1081
3081
5881
1101
1201
1401
1002
101c
0000
0000
ENDCHAR
STARTCHAR 04-83
ENCODING 9331
SWIDTH 96 0
DWIDTH 16 0
BBX 16 16 0 -2
BITMAP
7fa0
1120
1120
1f20
1120
1120
1f20
1120
1120
7f20
0121
0121
013f
0100
0000
0000
ENDCHAR
STARTCHAR 04-84
ENCODING 9332
SWIDTH 96 0
DWIDTH 16 0
BBX 16 16 0 -2
BITMAP
0100
3f7f
2111
2111
3f11
2151
2131
3f19
2111
2111
2121
2141
450a
0204
0000
0000
ENDCHAR
STARTCHAR 04-85
ENCODING 9333
SWIDTH 96 0
DWIDTH 16 0
BBX 16 16 0 -2
BITMAP
1ffc
1004
1004
1ffc
0000
1ffc
1004
1ffc
1004
1ffc
1004
1004
2014
0008
0000
0000
ENDCHAR
STARTCHAR 04-86
ENCODING 9334
SWIDTH 96 0
DWIDTH 16 0
BBX 16 16 0 -2
BITMAP
3f10
2120
217f
2180
3f00
213e
2104
3f08
2110
2120
2141
2141
457f
0200
0000
0000
ENDCHAR
STARTCHAR 04-87
ENCODING 9335
SWIDTH 96 0
DWIDTH 16 0
BBX 16 16 0 -2
BITMAP
3e40
2240
2244
22fe
3e44
2244
2244
3e64
2254
2244
2244
2245
4a45
0487
0000
0000
ENDCHAR
STARTCHAR 04-88
ENCODING 9336
SWIDTH 96 0
DWIDTH 16 0
BBX 16 16 0 -2
BITMAP
0104
1f8c
1110
1162
1f06
1108
1110
1f60
1102
1106
1104
2108
2510
4260
0000
0000
ENDCHAR
STARTCHAR 04-89
ENCODING 9337
SWIDTH 96 0
DWIDTH 16 0
BBX 16 16 0 -2
BITMAP
0220
0222
7fff
0220
0004
3ffe
0080
0080
00a0
0098
0088
0080
0080
0080
0000
0000
ENDCHAR
STARTCHAR 04-90
ENCODING 9338
SWIDTH 96 0
DWIDTH 16 0
BBX 16 16 0 -2
BITMAP
0220
0222
7fff
0220
0220
0080
0080
0084
3ffe
0080
0080
0080
0082
7fff
0000
0000
ENDCHAR
STARTCHAR 04-91
ENCODING 9339
SWIDTH 96 0
DWIDTH 16 0
BBX 16 16 0 -2
BITMAP
0808
7f7f
0410
0100
0102
0101
7ffe
0100
0080
0040
0020
0011
0009
0007
0000
0000
ENDCHAR
STARTCHAR 04-92
ENCODING 9340
SWIDTH 96 0
DWIDTH 16 0
BBX 16 16 0 -2
BITMAP
0220
0222
7fff
0220
0008
1ffc
0008
0ff8
0800
1004
1ffe
0004
0028
0010
0000
0000
ENDCHAR
STARTCHAR 04-93
ENCODING 9341
SWIDTH 96 0
DWIDTH 16 0
BBX 16 16 0 -2
BITMAP
0220
0222
7fff
0220
0008
1ffc
0008
1008
1ff8
1008
1000
1002
1002
0ffe
0000
0000
ENDCHAR
STARTCHAR 04-94
ENCODING 9342
SWIDTH 96 0
DWIDTH 16 0
BBX 16 16 0 -2
BITMAP
0410
7f7f
0410
0ff8
0010
0020
00c0
0080
7fff
0080
0080
0080
0280
0100
0000
0000
ENDCHAR
STARTCHAR 05-01
ENCODING 9505
SWIDTH 96 0
DWIDTH 16 0
BBX 16 16 0 -2
BITMAP
0220
0222
7fff
0220
0008
007c
1f80
0080
0082
7fff
0080
0080
0080
0080
0000
0000
ENDCHAR
STARTCHAR 05-02
ENCODING 9506
SWIDTH 96 0
DWIDTH 16 0
BBX 16 16 0 -2
BITMAP
0410
0410
7fff
0410
0000
0ff0
0810
0a10
0910
0890
0850
1011
2011
401f
0000
0000
ENDCHAR
STARTCHAR 05-03
ENCODING 9507
SWIDTH 96 0
DWIDTH 16 0
BBX 16 16 0 -2
BITMAP
0220
0222
7fff
0220
0320
1ff0
0110
0110
0310
0290
0450
0411
0811
300f
0000
0000
ENDCHAR
STARTCHAR 05-04
ENCODING 9508
SWIDTH 96 0
DWIDTH 16 0
BBX 16 16 0 -2
BITMAP
1f84
0106
0898
0460
0380
3c40
0090
0328
1c48
0088
0308
1c08
0090
0060
0000
0000
ENDCHAR
STARTCHAR 05-05
ENCODING 9509
SWIDTH 96 0
DWIDTH 16 0
BBX 16 16 0 -2
BITMAP
0002
41ff
2102
1102
0102
71fe
1100
2100
4100
2100
1100
1200
2800
47ff
0000
0000
ENDCHAR
STARTCHAR 05-06
ENCODING 9510
SWIDTH 96 0
DWIDTH 16 0
BBX 16 16 0 -2
BITMAP
4000
2020
1020
0020
7820
0a22
1222
2222
4222
2222
13fe
1202
2800
47ff
0000
0000
ENDCHAR
STARTCHAR 05-07
ENCODING 9511
SWIDTH 96 0
DWIDTH 16 0
BBX 16 16 0 -2
BITMAP
0800
087f
7f22
0024
0028
3e24
2222
2221
2231
222a
2224
22a0
42a0
03a0
0000
0000
ENDCHAR
STARTCHAR 05-08
ENCODING 9512
SWIDTH 96 0
DWIDTH 16 0
BBX 16 16 0 -2
BITMAP
043e
0422
7fe2
0824
0924
0fa8
0924
0922
0921
1131
112a
2524
4220
0020
0000
0000
ENDCHAR
STARTCHAR 05-09
ENCODING 9513
SWIDTH 96 0
DWIDTH 16 0
BBX 16 16 0 -2
BITMAP
1000
103f
7f12
5114
5118
1014
1412
1411
1411
141a
2454
4450
07d0
0010
0000
0000
ENDCHAR
STARTCHAR 05-10
ENCODING 9514
SWIDTH 96 0
DWIDTH 16 0
BBX 16 16 0 -2
BITMAP
0400
043f
3f91
0412
0414
0412
7fd1
0411
0419
0415
0a12
1110
2090
4050
0000
0000
ENDCHAR
STARTCHAR 05-11
ENCODING 9515
SWIDTH 96 0
DWIDTH 16 0
BBX 16 16 0 -2
BITMAP
0200
7f7f
0022
0024
012c
7fa2
2421
2421
2431
242a
2424
24a0
44a0
07a0
0000
0000
ENDCHAR
STARTCHAR 05-12
ENCODING 9516
SWIDTH 96 0
DWIDTH 16 0
BBX 16 16 0 -2
BITMAP
0a00
113f
2091
4051
0012
3f94
0892
0891
0891
089a
0894
1090
2490
0310
0000
0000
ENDCHAR
STARTCHAR 05-13
ENCODING 9517
SWIDTH 96 0
DWIDTH 16 0
BBX 16 16 0 -2
BITMAP
0108
7d08
4508
4908
5108
49ef
4508
4508
4508
5508
4928
4149
4189
410f
0000
0000
ENDCHAR
STARTCHAR 05-14
ENCODING 9518
SWIDTH 96 0
DWIDTH 16 0
BBX 16 16 0 -2
BITMAP
0002
7bff
4a00
5200
62fe
5242
4a42
4a42
4a5c
6a40
5240
4241
4441
407f
0000
0000
ENDCHAR
STARTCHAR 05-15
ENCODING 9519
SWIDTH 96 0
DWIDTH 16 0
BBX 16 16 0 -2
BITMAP
7c20
2420
2820
3020
2820
2420
253e
2520
3520
2920
2120
2120
2120
27ff
0000
0000
ENDCHAR
STARTCHAR 05-16
ENCODING 9520
SWIDTH 96 0
DWIDTH 16 0
BBX 16 16 0 -2
BITMAP
7820
4820
5040
6080
5102
4bff
4891
4890
6890
5090
4090
4111
4211
441f
0000
0000
ENDCHAR
STARTCHAR 05-17
ENCODING 9521
SWIDTH 96 0
DWIDTH 16 0
BBX 16 16 0 -2
BITMAP
0220
0220
1ffc
1224
1224
1ffc
0220
3ffe
2222
2222
3ffe
0420
0820
1020
0000
0000
ENDCHAR
STARTCHAR 05-18
ENCODING 9522
SWIDTH 96 0
DWIDTH 16 0
BBX 16 16 0 -2
BITMAP
0840
1020
27ff
4401
240d
2031
23c0
2040
27ff
2040
2040
2041
2041
207f
0000
0000
ENDCHAR
STARTCHAR 05-19
ENCODING 9523
SWIDTH 96 0
DWIDTH 16 0
BBX 16 16 0 -2
BITMAP
0440
0422
0bff
0890
1888
2906
4a8a
0888
0850
0820
0850
0888
0907
0e02
0000
0000
ENDCHAR
STARTCHAR 05-20
ENCODING 9524
SWIDTH 96 0
DWIDTH 16 0
BBX 16 16 0 -2
BITMAP
0840
1022
27ff
4040
2088
2110
23e4
2048
2090
2130
2248
2084
2102
2601
0000
0000
ENDCHAR
STARTCHAR 05-21
ENCODING 9525
SWIDTH 96 0
DWIDTH 16 0
BBX 16 16 0 -2
BITMAP
0880
1080
20ff
4091
2e91
2012
2010
2010
2010
2e28
2044
2082
2101
2201
0000
0000
ENDCHAR
STARTCHAR 05-22
ENCODING 9526
SWIDTH 96 0
DWIDTH 16 0
BBX 16 16 0 -2
BITMAP
0801
17e1
2241
4245
2245
2245
2ff5
2245
2245
2241
2241
2441
2045
2042
0000
0000
ENDCHAR
STARTCHAR 05-23
ENCODING 9527
SWIDTH 96 0
DWIDTH 16 0
BBX 16 16 0 -2
BITMAP
0840
17fc
2040
43fc
2044
27fc
2440
27ff
2041
20a1
2112
2208
2404
2803
0000
0000
ENDCHAR
STARTCHAR 05-24
ENCODING 9528
SWIDTH 96 0
DWIDTH 16 0
BBX 16 16 0 -2
BITMAP
0420
0422
0fff
0820
1824
2bfe
4800
0804
09fe
0904
0904
0904
09fc
0904
0000
0000
ENDCHAR
STARTCHAR 05-25
ENCODING 9529
SWIDTH 96 0
DWIDTH 16 0
BBX 16 16 0 -2
BITMAP
07ff
0484
0884
08fc
1884
2884
48fc
0884
0884
08bf
0bc4
0804
0804
0804
0000
0000
ENDCHAR
STARTCHAR 05-26
ENCODING 9530
SWIDTH 96 0
DWIDTH 16 0
BBX 16 16 0 -2
BITMAP
0420
0442
0fff
0890
1908
2a77
4c02
09fc
0880
08fc
0804
0848
0828
0810
0000
0000
ENDCHAR
STARTCHAR 05-27
ENCODING 9531
SWIDTH 96 0
DWIDTH 16 0
BBX 16 16 0 -2
BITMAP
0400
0404
07fe
0880
1904
2bfe
4822
0820
0824
0bfe
0820
0822
0fff
0800
0000
0000
ENDCHAR
STARTCHAR 05-28
ENCODING 9532
SWIDTH 96 0
DWIDTH 16 0
BBX 16 16 0 -2
BITMAP
0804
09fe
1104
31fc
5104
11fc
1100
1122
1124
1118
1128
1144
1182
1701
0000
0000
ENDCHAR
STARTCHAR 05-29
ENCODING 9533
SWIDTH 96 0
DWIDTH 16 0
BBX 16 16 0 -2
BITMAP
0910
1110
2110
4110
2110
21df
2110
2510
2510
2510
2510
2511
25d1
2e1f
0000
0000
ENDCHAR
STARTCHAR 05-30
ENCODING 9534
SWIDTH 96 0
DWIDTH 16 0
BBX 16 16 0 -2
BITMAP
0402
05ff
0902
09fe
1902
2902
497a
094a
094a
097a
0902
0902
090a
0904
0000
0000
ENDCHAR
STARTCHAR 05-31
ENCODING 9535
SWIDTH 96 0
DWIDTH 16 0
BBX 16 16 0 -2
BITMAP
0800
0800
17ff
2401
4401
24f9
2489
2489
2489
24f9
2401
2401
27ff
2401
0000
0000
ENDCHAR
STARTCHAR 05-32
ENCODING 9536
SWIDTH 96 0
DWIDTH 16 0
BBX 16 16 0 -2
BITMAP
0900
1100
21ff
4201
2001
21f1
2111
21f1
2111
21f1
2111
2002
2024
2018
0000
0000
ENDCHAR
STARTCHAR 05-33
ENCODING 9537
SWIDTH 96 0
DWIDTH 16 0
BBX 16 16 0 -2
BITMAP
0880
11fc
2208
4010
23ff
2200
22fe
2242
2242
225c
2240
2241
2441
207f
0000
0000
ENDCHAR
STARTCHAR 05-34
ENCODING 9538
SWIDTH 96 0
DWIDTH 16 0
BBX 16 16 0 -2
BITMAP
0820
1224
23fe
4220
2420
2022
27ff
2090
2090
2090
2110
2211
2411
281f
0000
0000
ENDCHAR
STARTCHAR 05-35
ENCODING 9539
SWIDTH 96 0
DWIDTH 16 0
BBX 16 16 0 -2
BITMAP
0804
1038
27e0
6020
2020
27ff
2020
2020
23fe
2202
2202
2202
23fe
2202
0000
0000
ENDCHAR
STARTCHAR 05-36
ENCODING 9540
SWIDTH 96 0
DWIDTH 16 0
BBX 16 16 0 -2
BITMAP
0400
0840
1080
3102
53ff
1652
1252
1252
1252
1252
1252
1252
17ff
1000
0000
0000
ENDCHAR
STARTCHAR 05-37
ENCODING 9541
SWIDTH 96 0
DWIDTH 16 0
BBX 16 16 0 -2
BITMAP
0880
0884
11fe
2304
4544
2124
2114
27ff
2144
2124
2114
2104
2104
220c
0000
0000
ENDCHAR
STARTCHAR 05-38
ENCODING 9542
SWIDTH 96 0
DWIDTH 16 0
BBX 16 16 0 -2
BITMAP
0440
0488
0904
0bfe
1922
2920
49fc
0a20
0822
0fff
0820
0820
0820
0820
0000
0000
ENDCHAR
STARTCHAR 05-39
ENCODING 9543
SWIDTH 96 0
DWIDTH 16 0
BBX 16 16 0 -2
BITMAP
0800
1440
2440
444f
2fe9
2449
2449
2449
2449
2289
2109
228f
2449
2820
0000
0000
ENDCHAR
STARTCHAR 05-40
ENCODING 9544
SWIDTH 96 0
DWIDTH 16 0
BBX 16 16 0 -2
BITMAP
0410
09ff
1101
6141
1044
11ff
1044
1044
1044
1028
1010
1028
1044
1183
0000
0000
ENDCHAR
STARTCHAR 05-41
ENCODING 9545
SWIDTH 96 0
DWIDTH 16 0
BBX 16 16 0 -2
BITMAP
0810
17ff
2400
4404
2438
25e0
2420
2420
25ff
2420
2420
2421
2821
203f
0000
0000
ENDCHAR
STARTCHAR 05-42
ENCODING 9546
SWIDTH 96 0
DWIDTH 16 0
BBX 16 16 0 -2
BITMAP
0802
0bff
1020
2040
53ff
1249
1249
1249
1249
1249
1249
1249
1201
1202
0000
0000
ENDCHAR
STARTCHAR 05-43
ENCODING 9547
SWIDTH 96 0
DWIDTH 16 0
BBX 16 16 0 -2
BITMAP
0480
09fc
1288
6450
1020
1050
1088
1707
11fc
1104
1104
1104
11fc
1104
0000
0000
ENDCHAR
STARTCHAR 05-44
ENCODING 9548
SWIDTH 96 0
DWIDTH 16 0
BBX 16 16 0 -2
BITMAP
0420
0450
0888
1104
2202
54f9
1000
1000
11fc
1104
1104
1104
11fc
1104
0000
0000
ENDCHAR
STARTCHAR 05-45
ENCODING 9549
SWIDTH 96 0
DWIDTH 16 0
BBX 16 16 0 -2
BITMAP
7fff
4001
4081
1084
0c98
0080
3ffe
0080
02a0
0490
0888
1084
2082
0080
0000
0000
ENDCHAR
STARTCHAR 05-46
ENCODING 9550
SWIDTH 96 0
DWIDTH 16 0
BBX 16 16 0 -2
BITMAP
0020
4120
3124
11fe
0120
0220
0822
13ff
7090
1090
1090
1111
1211
140f
0000
0000
ENDCHAR
STARTCHAR 05-47
ENCODING 9551
SWIDTH 96 0
DWIDTH 16 0
BBX 16 16 0 -2
BITMAP
0020
4050
3088
1104
0202
04f9
0000
0800
71fc
1104
1104
1104
11fc
1104
0000
0000
ENDCHAR
STARTCHAR 05-48
ENCODING 9552
SWIDTH 96 0
DWIDTH 16 0
BBX 16 16 0 -2
BITMAP
7fe1
1081
1089
1f89
1089
1089
1f89
1089
1089
7f81
0081
0081
0085
0082
0000
0000
ENDCHAR
STARTCHAR 05-49
ENCODING 9553
SWIDTH 96 0
DWIDTH 16 0
BBX 16 16 0 -2
BITMAP
0401
0401
3f89
0409
0409
7fc9
0009
0409
0409
3f89
0401
0401
7fc5
0002
0000
0000
ENDCHAR
STARTCHAR 05-50
ENCODING 9554
SWIDTH 96 0
DWIDTH 16 0
BBX 16 16 0 -2
BITMAP
0201
3fe1
0505
0885
1045
2fa5
4015
3fe5
0805
0fc5
0041
0041
0085
0f02
0000
0000
ENDCHAR
STARTCHAR 05-51
ENCODING 9555
SWIDTH 96 0
DWIDTH 16 0
BBX 16 16 0 -2
BITMAP
0802
0402
3f92
2092
3f92
2092
3f92
2012
2412
2202
2302
2482
284a
7004
0000
0000
ENDCHAR
STARTCHAR 05-52
ENCODING 9556
SWIDTH 96 0
DWIDTH 16 0
BBX 16 16 0 -2
BITMAP
0000
123f
1209
7f89
1229
1219
1209
7f89
1209
1209
1211
2221
4242
020c
0000
0000
ENDCHAR
STARTCHAR 05-53
ENCODING 9557
SWIDTH 96 0
DWIDTH 16 0
BBX 16 16 0 -2
BITMAP
0810
0810
7f90
087f
0811
0811
7f11
0011
7f11
4111
4121
4142
7f14
4108
0000
0000
ENDCHAR
STARTCHAR 05-54
ENCODING 9558
SWIDTH 96 0
DWIDTH 16 0
BBX 16 16 0 -2
BITMAP
0800
0800
1ffe
2002
4102
0922
0542
1ff2
0102
0542
0922
1112
0104
0118
0000
0000
ENDCHAR
STARTCHAR 05-55
ENCODING 9559
SWIDTH 96 0
DWIDTH 16 0
BBX 16 16 0 -2
BITMAP
0800
0800
1fff
1201
2201
47e1
0901
0101
1ff1
0101
0921
0921
0fe2
000c
0000
0000
ENDCHAR
STARTCHAR 05-56
ENCODING 9560
SWIDTH 96 0
DWIDTH 16 0
BBX 16 16 0 -2
BITMAP
7fff
4040
40a0
4110
4208
45f4
4802
43f8
4208
4208
43f8
4208
4000
7fff
0000
0000
ENDCHAR
STARTCHAR 05-57
ENCODING 9561
SWIDTH 96 0
DWIDTH 16 0
BBX 16 16 0 -2
BITMAP
0002
3fff
2000
2200
2200
27fc
2840
2040
2ffe
2040
2444
2444
27fc
4404
0000
0000
ENDCHAR
STARTCHAR 05-58
ENCODING 9562
SWIDTH 96 0
DWIDTH 16 0
BBX 16 16 0 -2
BITMAP
0004
3ffe
2000
2ffe
2080
2100
2204
27fc
2044
2040
27fc
2040
4040
0ffe
0000
0000
ENDCHAR
STARTCHAR 05-59
ENCODING 9563
SWIDTH 96 0
DWIDTH 16 0
BBX 16 16 0 -2
BITMAP
0040
0020
0010
7880
4a82
4a89
4a91
48a0
48c0
7880
4980
0282
0481
007f
0000
0000
ENDCHAR
STARTCHAR 05-60
ENCODING 9564
SWIDTH 96 0
DWIDTH 16 0
BBX 16 16 0 -2
BITMAP
0020
0024
03fe
7820
4820
4822
4fff
4820
4840
7880
4904
0202
07ff
0001
0000
0000
ENDCHAR
STARTCHAR 05-61
ENCODING 9565
SWIDTH 96 0
DWIDTH 16 0
BBX 16 16 0 -2
BITMAP
0084
0084
0084
7c84
47ff
4484
4484
4484
44fc
4484
7c84
4484
00fc
0084
0000
0000
ENDCHAR
STARTCHAR 05-62
ENCODING 9566
SWIDTH 96 0
DWIDTH 16 0
BBX 16 16 0 -2
BITMAP
0080
009f
0084
7be4
4884
4884
48a4
48c4
4b84
4884
7884
4884
0294
0108
0000
0000
ENDCHAR
STARTCHAR 05-63
ENCODING 9567
SWIDTH 96 0
DWIDTH 16 0
BBX 16 16 0 -2
BITMAP
0002
01ff
7d10
4510
457c
4554
4554
4554
4554
455c
7d10
4510
0110
01ff
0000
0000
ENDCHAR
STARTCHAR 05-64
ENCODING 9568
SWIDTH 96 0
DWIDTH 16 0
BBX 16 16 0 -2
BITMAP
0090
0090
03fc
7894
4894
4bfc
4a90
4a90
4bff
7891
4891
0116
0210
0010
0000
0000
ENDCHAR
STARTCHAR 05-65
ENCODING 9569
SWIDTH 96 0
DWIDTH 16 0
BBX 16 16 0 -2
BITMAP
0020
0020
0020
003e
7c20
4420
4422
44ff
4482
4482
7c82
4482
00fe
0082
0000
0000
ENDCHAR
STARTCHAR 05-66
ENCODING 9570
SWIDTH 96 0
DWIDTH 16 0
BBX 16 16 0 -2
BITMAP
01fe
0102
7902
49fe
4800
4bff
4880
4880
48fe
7802
4802
0002
0024
0018
0000
0000
ENDCHAR
STARTCHAR 05-67
ENCODING 9571
SWIDTH 96 0
DWIDTH 16 0
BBX 16 16 0 -2
BITMAP
0002
00ff
0082
7c82
4482
44fe
4482
4482
4482
7cfe
4482
0000
0000
01ff
0000
0000
ENDCHAR
STARTCHAR 05-68
ENCODING 9572
SWIDTH 96 0
DWIDTH 16 0
BBX 16 16 0 -2
BITMAP
0020
0020
03fe
7a22
4a22
4bfe
4a22
4a22
4fff
7a02
4a02
0202
020a
0204
0000
0000
ENDCHAR
STARTCHAR 05-69
ENCODING 9573
SWIDTH 96 0
DWIDTH 16 0
BBX 16 16 0 -2
BITMAP
0201
07ff
0251
7a51
4a51
4a51
4a91
4b11
4a1f
7a01
4a01
03ff
0201
0000
0000
0000
ENDCHAR
STARTCHAR 05-70
ENCODING 9574
SWIDTH 96 0
DWIDTH 16 0
BBX 16 16 0 -2
BITMAP
0040
0040
007f
7c81
4501
44f9
4489
4489
4489
7cf9
4489
0001
0012
000c
0000
0000
ENDCHAR
STARTCHAR 05-71
ENCODING 9575
SWIDTH 96 0
DWIDTH 16 0
BBX 16 16 0 -2
BITMAP
0010
7890
4910
4912
4a7f
4f92
4892
4912
4a52
4fd2
7852
4022
004a
0084
0000
0000
ENDCHAR
STARTCHAR 05-72
ENCODING 9576
SWIDTH 96 0
DWIDTH 16 0
BBX 16 16 0 -2
BITMAP
0010
0010
0020
7c44
4482
45ff
4401
4400
44fe
7c82
4482
0082
00fe
0082
0000
0000
ENDCHAR
STARTCHAR 05-73
ENCODING 9577
SWIDTH 96 0
DWIDTH 16 0
BBX 16 16 0 -2
BITMAP
00fe
0010
7d11
4492
4454
4410
45ff
4410
4410
7c10
4410
0010
0010
0010
0000
0000
ENDCHAR
STARTCHAR 05-74
ENCODING 9578
SWIDTH 96 0
DWIDTH 16 0
BBX 16 16 0 -2
BITMAP
0002
03ff
0202
7a02
4bfe
4a10
4a10
4bff
4a10
4a10
7a08
4a45
0283
0301
0000
0000
ENDCHAR
STARTCHAR 05-75
ENCODING 9579
SWIDTH 96 0
DWIDTH 16 0
BBX 16 16 0 -2
BITMAP
0020
0020
03fe
7820
4870
48a8
4924
4a22
4c21
7820
49fc
0020
0020
0020
0000
0000
ENDCHAR
STARTCHAR 05-76
ENCODING 9580
SWIDTH 96 0
DWIDTH 16 0
BBX 16 16 0 -2
BITMAP
0040
0040
7bff
4890
4910
4afe
4c92
4892
7892
4892
0096
0010
0010
0010
0000
0000
ENDCHAR
STARTCHAR 05-77
ENCODING 9581
SWIDTH 96 0
DWIDTH 16 0
BBX 16 16 0 -2
BITMAP
0002
03ff
0202
7a42
4a22
4a12
4fff
4a42
4a22
7a12
4a02
03ff
0004
0018
0000
0000
ENDCHAR
STARTCHAR 05-78
ENCODING 9582
SWIDTH 96 0
DWIDTH 16 0
BBX 16 16 0 -2
BITMAP
0001
07fe
7a08
4a08
4a08
4bff
4a08
4a08
4a08
7a28
4a49
0285
0303
0679
0000
0000
ENDCHAR
STARTCHAR 05-79
ENCODING 9583
SWIDTH 96 0
DWIDTH 16 0
BBX 16 16 0 -2
BITMAP
0020
0850
7c50
4888
4906
4efb
4800
49fc
4804
7888
4850
0020
0010
0010
0000
0000
ENDCHAR
STARTCHAR 05-80
ENCODING 9584
SWIDTH 96 0
DWIDTH 16 0
BBX 16 16 0 -2
BITMAP
7fff
4009
4071
4f81
4081
5ffd
4081
41c1
42a1
4491
588d
4001
7fff
4001
0000
0000
ENDCHAR
STARTCHAR 05-81
ENCODING 9585
SWIDTH 96 0
DWIDTH 16 0
BBX 16 16 0 -2
BITMAP
0002
3fff
2082
2142
2222
25d2
280e
37f2
2012
2222
2142
2082
3ffe
2002
0000
0000
ENDCHAR
STARTCHAR 05-82
ENCODING 9586
SWIDTH 96 0
DWIDTH 16 0
BBX 16 16 0 -2
BITMAP
0800
0802
09ff
0808
7e10
0834
0852
0891
0911
0e10
7810
2010
0012
03ff
0000
0000
ENDCHAR
STARTCHAR 05-83
ENCODING 9587
SWIDTH 96 0
DWIDTH 16 0
BBX 16 16 0 -2
BITMAP
0090
2090
27fe
2092
7892
27fe
2490
2490
27ff
2891
3091
6116
0210
0010
0000
0000
ENDCHAR
STARTCHAR 05-84
ENCODING 9588
SWIDTH 96 0
DWIDTH 16 0
BBX 16 16 0 -2
BITMAP
1004
11fe
1104
1104
7dfc
1100
1140
1140
1d7e
7140
2241
0241
043f
0800
0000
0000
ENDCHAR
STARTCHAR 05-85
ENCODING 9589
SWIDTH 96 0
DWIDTH 16 0
BBX 16 16 0 -2
BITMAP
0820
0822
083f
0820
7f20
0820
0824
09fe
0904
0f04
7904
2104
01fc
0104
0000
0000
ENDCHAR
STARTCHAR 05-86
ENCODING 9590
SWIDTH 96 0
DWIDTH 16 0
BBX 16 16 0 -2
BITMAP
0010
1010
1010
10fe
7c92
1092
1092
13ff
1410
1828
7044
0082
0101
0201
0000
0000
ENDCHAR
STARTCHAR 05-87
ENCODING 9591
SWIDTH 96 0
DWIDTH 16 0
BBX 16 16 0 -2
BITMAP
11ff
1101
1101
7d01
117d
1145
1145
1145
157d
1945
7101
0109
0105
0102
0000
0000
ENDCHAR
STARTCHAR 05-88
ENCODING 9592
SWIDTH 96 0
DWIDTH 16 0
BBX 16 16 0 -2
BITMAP
0804
08fe
0884
08a4
7e94
0884
0bff
08a4
0e94
7914
21fe
0004
0024
0018
0000
0000
ENDCHAR
STARTCHAR 05-89
ENCODING 9593
SWIDTH 96 0
DWIDTH 16 0
BBX 16 16 0 -2
BITMAP
1006
10f8
1010
7c92
1054
1010
11ff
1410
1810
7010
0010
0090
0050
0020
0000
0000
ENDCHAR
STARTCHAR 05-90
ENCODING 9594
SWIDTH 96 0
DWIDTH 16 0
BBX 16 16 0 -2
BITMAP
0008
0810
0820
0842
3eff
0844
0844
0844
0844
0e44
7044
0044
0044
03ff
0000
0000
ENDCHAR
STARTCHAR 05-91
ENCODING 9595
SWIDTH 96 0
DWIDTH 16 0
BBX 16 16 0 -2
BITMAP
000f
13f8
1210
1210
7e10
13ff
1210
1210
1e10
7251
0289
0305
0efb
0001
0000
0000
ENDCHAR
STARTCHAR 05-92
ENCODING 9596
SWIDTH 96 0
DWIDTH 16 0
BBX 16 16 0 -2
BITMAP
1010
1090
1112
113f
7e52
13d2
1112
1252
13d2
1c52
7022
2022
004a
0084
0000
0000
ENDCHAR
STARTCHAR 05-93
ENCODING 9597
SWIDTH 96 0
DWIDTH 16 0
BBX 16 16 0 -2
BITMAP
0080
0080
3ffe
0080
0080
7fff
0808
1088
2088
4087
0ff8
0080
0080
7fff
0000
0000
ENDCHAR
STARTCHAR 05-94
ENCODING 9598
SWIDTH 96 0
DWIDTH 16 0
BBX 16 16 0 -2
BITMAP
0010
1092
1092
1092
7c54
1010
11ff
1010
1410
19ff
7010
0010
0010
0010
0000
0000
ENDCHAR
STARTCHAR 06-01
ENCODING 9761
SWIDTH 96 0
DWIDTH 16 0
BBX 16 16 0 -2
BITMAP
0820
0810
09ff
0901
7e02
0800
0888
0898
08a0
0ec0
7880
2081
0081
007f
0000
0000
ENDCHAR
STARTCHAR 06-02
ENCODING 9762
SWIDTH 96 0
DWIDTH 16 0
BBX 16 16 0 -2
BITMAP
0010
1028
1044
1082
7d01
1078
1000
1000
14fe
1802
7004
0028
0010
0008
0000
0000
ENDCHAR
STARTCHAR 06-03
ENCODING 9763
SWIDTH 96 0
DWIDTH 16 0
BBX 16 16 0 -2
BITMAP
0080
0080
3ffe
0080
7fff
1004
2204
47f7
0810
1220
0140
0080
0140
3e3e
0000
0000
ENDCHAR
STARTCHAR 06-04
ENCODING 9764
SWIDTH 96 0
DWIDTH 16 0
BBX 16 16 0 -2
BITMAP
0080
0100
7fff
0400
0808
1204
2402
5afd
1244
1244
3e44
0258
0440
0840
0000
0000
ENDCHAR
STARTCHAR 06-05
ENCODING 9765
SWIDTH 96 0
DWIDTH 16 0
BBX 16 16 0 -2
BITMAP
2010
2008
2200
227f
7f08
2208
2208
227f
2208
1408
0808
1408
227f
4100
0000
0000
ENDCHAR
STARTCHAR 06-06
ENCODING 9766
SWIDTH 96 0
DWIDTH 16 0
BBX 16 16 0 -2
BITMAP
2010
2010
29ff
2810
7c10
28fe
2810
2838
2854
2892
2911
1010
2810
4410
0000
0000
ENDCHAR
STARTCHAR 06-07
ENCODING 9767
SWIDTH 96 0
DWIDTH 16 0
BBX 16 16 0 -2
BITMAP
2022
2022
2222
2222
7f7f
2222
2222
2222
223e
1422
0822
1422
223e
4122
0000
0000
ENDCHAR
STARTCHAR 06-08
ENCODING 9768
SWIDTH 96 0
DWIDTH 16 0
BBX 16 16 0 -2
BITMAP
2010
2010
2810
28fe
7c92
2892
2892
29ff
2810
2828
2844
1082
2901
4501
0000
0000
ENDCHAR
STARTCHAR 06-09
ENCODING 9769
SWIDTH 96 0
DWIDTH 16 0
BBX 16 16 0 -2
BITMAP
0804
08fe
0884
7e84
1284
12fc
1284
2284
1484
08fc
1400
2202
43ff
0000
0000
0000
ENDCHAR
STARTCHAR 06-10
ENCODING 9770
SWIDTH 96 0
DWIDTH 16 0
BBX 16 16 0 -2
BITMAP
2010
2010
28fe
2892
7c92
28fe
2892
2892
29ff
2882
2882
1082
288a
4484
0000
0000
ENDCHAR
STARTCHAR 06-11
ENCODING 9771
SWIDTH 96 0
DWIDTH 16 0
BBX 16 16 0 -2
BITMAP
2040
2040
227f
2241
7f81
2201
2279
2249
2249
1479
0849
1401
2202
410c
0000
0000
ENDCHAR
STARTCHAR 06-12
ENCODING 9772
SWIDTH 96 0
DWIDTH 16 0
BBX 16 16 0 -2
BITMAP
2010
2010
2810
29ff
7c10
2822
2844
28f8
2810
2820
1044
2882
45ff
0001
0000
0000
ENDCHAR
STARTCHAR 06-13
ENCODING 9773
SWIDTH 96 0
DWIDTH 16 0
BBX 16 16 0 -2
BITMAP
2020
2010
2808
2840
7c40
2942
2949
2949
2850
2860
1040
28c2
4542
443e
0000
0000
ENDCHAR
STARTCHAR 06-14
ENCODING 9774
SWIDTH 96 0
DWIDTH 16 0
BBX 16 16 0 -2
BITMAP
2002
21ff
2810
2810
7c10
2810
2890
289f
2890
2890
1090
2890
4490
45ff
0000
0000
ENDCHAR
STARTCHAR 06-15
ENCODING 9775
SWIDTH 96 0
DWIDTH 16 0
BBX 16 16 0 -2
BITMAP
2000
227f
2240
7f40
2240
227f
2241
2241
227f
1440
0840
1440
227f
4140
0000
0000
ENDCHAR
STARTCHAR 06-16
ENCODING 9776
SWIDTH 96 0
DWIDTH 16 0
BBX 16 16 0 -2
BITMAP
207f
2211
2211
7f11
2211
2221
2246
2200
227f
1441
0841
1441
227f
4141
0000
0000
ENDCHAR
STARTCHAR 06-17
ENCODING 9777
SWIDTH 96 0
DWIDTH 16 0
BBX 16 16 0 -2
BITMAP
2008
2208
227f
7f49
2249
227f
2249
2249
227f
1449
0808
1408
2208
4108
0000
0000
ENDCHAR
STARTCHAR 06-18
ENCODING 9778
SWIDTH 96 0
DWIDTH 16 0
BBX 16 16 0 -2
BITMAP
2001
220e
2278
7f08
2208
227f
2208
2208
221c
142a
0849
1408
2208
4108
0000
0000
ENDCHAR
STARTCHAR 06-19
ENCODING 9779
SWIDTH 96 0
DWIDTH 16 0
BBX 16 16 0 -2
BITMAP
2010
2028
2844
2882
7d21
2810
2800
28fe
2802
2802
1004
2848
4430
0010
0000
0000
ENDCHAR
STARTCHAR 06-20
ENCODING 9780
SWIDTH 96 0
DWIDTH 16 0
BBX 16 16 0 -2
BITMAP
0800
1f7e
6222
1422
083c
1021
603f
0410
7fff
0220
0140
0080
0140
3e3e
0000
0000
ENDCHAR
STARTCHAR 06-21
ENCODING 9781
SWIDTH 96 0
DWIDTH 16 0
BBX 16 16 0 -2
BITMAP
0408
0808
73ff
1008
1108
10c8
1418
0410
7fff
0410
0220
01c0
0220
7c1f
0000
0000
ENDCHAR
STARTCHAR 06-22
ENCODING 9782
SWIDTH 96 0
DWIDTH 16 0
BBX 16 16 0 -2
BITMAP
0040
7e44
02fe
0504
09f4
0f14
1914
69f4
0904
0914
0908
0901
2901
10ff
0000
0000
ENDCHAR
STARTCHAR 06-23
ENCODING 9783
SWIDTH 96 0
DWIDTH 16 0
BBX 16 16 0 -2
BITMAP
0804
7f7e
1104
1a28
0410
1a2c
6143
0ff0
0020
00c2
7fff
0080
0280
0100
0000
0000
ENDCHAR
STARTCHAR 06-24
ENCODING 9784
SWIDTH 96 0
DWIDTH 16 0
BBX 16 16 0 -2
BITMAP
0100
0080
3fff
2001
4102
0488
0410
0420
1484
1502
2602
0408
0c08
33fc
0000
0000
ENDCHAR
STARTCHAR 06-25
ENCODING 9785
SWIDTH 96 0
DWIDTH 16 0
BBX 16 16 0 -2
BITMAP
0100
0082
3fff
2002
4004
7fff
0200
0408
07fc
0c08
1408
2408
07f8
0408
0000
0000
ENDCHAR
STARTCHAR 06-26
ENCODING 9786
SWIDTH 96 0
DWIDTH 16 0
BBX 16 16 0 -2
BITMAP
3ffe
2002
2002
3ffe
2040
2040
2ffe
2802
2802
2120
2210
4408
0806
1002
0000
0000
ENDCHAR
STARTCHAR 06-27
ENCODING 9787
SWIDTH 96 0
DWIDTH 16 0
BBX 16 16 0 -2
BITMAP
3ffe
2002
2002
3ffe
2000
2002
2fff
2842
2842
2ffe
2842
2842
2ffe
4802
0000
0000
ENDCHAR
STARTCHAR 06-28
ENCODING 9788
SWIDTH 96 0
DWIDTH 16 0
BBX 16 16 0 -2
BITMAP
0010
1010
11ff
1101
5501
5440
5442
5444
5478
5440
7c40
4441
0041
007f
0000
0000
ENDCHAR
STARTCHAR 06-29
ENCODING 9789
SWIDTH 96 0
DWIDTH 16 0
BBX 16 16 0 -2
BITMAP
0010
1010
11ff
5501
5501
5400
5400
5410
5448
7c84
4502
0201
0201
0000
0000
0000
ENDCHAR
STARTCHAR 06-30
ENCODING 9790
SWIDTH 96 0
DWIDTH 16 0
BBX 16 16 0 -2
BITMAP
00ff
1080
1080
5480
54fe
5482
5482
5482
54fe
7c80
4480
0080
00ff
0080
0000
0000
ENDCHAR
STARTCHAR 06-31
ENCODING 9791
SWIDTH 96 0
DWIDTH 16 0
BBX 16 16 0 -2
BITMAP
1010
1010
1012
54ff
5410
5410
5410
5412
54ff
5482
7c82
4482
00fe
0082
0000
0000
ENDCHAR
STARTCHAR 06-32
ENCODING 9792
SWIDTH 96 0
DWIDTH 16 0
BBX 16 16 0 -2
BITMAP
1002
11ff
1004
5408
5410
5430
5458
5494
5512
5411
7c10
4410
0010
01ff
0000
0000
ENDCHAR
STARTCHAR 06-33
ENCODING 9793
SWIDTH 96 0
DWIDTH 16 0
BBX 16 16 0 -2
BITMAP
0004
10fe
1084
1084
5484
54fc
5484
5484
54fc
5484
7c84
4484
0084
03ff
0000
0000
ENDCHAR
STARTCHAR 06-34
ENCODING 9794
SWIDTH 96 0
DWIDTH 16 0
BBX 16 16 0 -2
BITMAP
1002
10ff
1092
5492
54fe
5492
5492
54fe
5492
7c10
4410
0010
0010
0010
0000
0000
ENDCHAR
STARTCHAR 06-35
ENCODING 9795
SWIDTH 96 0
DWIDTH 16 0
BBX 16 16 0 -2
BITMAP
0010
1010
1010
54fe
5492
5492
5492
5492
55ff
7c10
4428
0044
0082
0301
0000
0000
ENDCHAR
STARTCHAR 06-36
ENCODING 9796
SWIDTH 96 0
DWIDTH 16 0
BBX 16 16 0 -2
BITMAP
1040
1042
107e
5482
5502
5402
54f2
5492
5492
54f2
7c92
4402
0014
0008
0000
0000
ENDCHAR
STARTCHAR 06-37
ENCODING 9797
SWIDTH 96 0
DWIDTH 16 0
BBX 16 16 0 -2
BITMAP
1010
1010
1028
5444
5486
553b
5400
54fe
5402
5c04
7428
4410
0008
0008
0000
0000
ENDCHAR
STARTCHAR 06-38
ENCODING 9798
SWIDTH 96 0
DWIDTH 16 0
BBX 16 16 0 -2
BITMAP
0080
1084
1084
1ffc
0000
7fff
0008
0fe8
0848
0fc8
0848
0008
0028
0010
0000
0000
ENDCHAR
STARTCHAR 06-39
ENCODING 9799
SWIDTH 96 0
DWIDTH 16 0
BBX 16 16 0 -2
BITMAP
0080
2082
3ffe
0420
0420
3ffc
0424
3ffc
2420
3fff
0421
082e
3020
0020
0000
0000
ENDCHAR
STARTCHAR 06-40
ENCODING 9800
SWIDTH 96 0
DWIDTH 16 0
BBX 16 16 0 -2
BITMAP
0080
2082
3ffe
0000
1ffc
0104
0204
0c38
0000
1ffc
1004
1004
1ffc
1004
0000
0000
ENDCHAR
STARTCHAR 06-41
ENCODING 9801
SWIDTH 96 0
DWIDTH 16 0
BBX 16 16 0 -2
BITMAP
0080
2082
3ffe
0800
1000
3fff
4100
01fc
0100
0100
01fc
0100
0100
0100
0000
0000
ENDCHAR
STARTCHAR 06-42
ENCODING 9802
SWIDTH 96 0
DWIDTH 16 0
BBX 16 16 0 -2
BITMAP
0008
1008
10ff
1089
5488
54be
54a2
54a2
5494
5488
7c94
4522
0041
0081
0000
0000
ENDCHAR
STARTCHAR 06-43
ENCODING 9803
SWIDTH 96 0
DWIDTH 16 0
BBX 16 16 0 -2
BITMAP
0020
1040
1082
11ff
5482
5482
5482
54fe
5482
5482
7c82
4482
00fe
0082
0000
0000
ENDCHAR
STARTCHAR 06-44
ENCODING 9804
SWIDTH 96 0
DWIDTH 16 0
BBX 16 16 0 -2
BITMAP
0004
1024
105f
1085
5515
55e5
5445
5485
5525
55e5
7c29
4411
0025
0042
0000
0000
ENDCHAR
STARTCHAR 06-45
ENCODING 9805
SWIDTH 96 0
DWIDTH 16 0
BBX 16 16 0 -2
BITMAP
0080
2082
2082
3ffe
2002
0080
0080
3ffe
0808
0808
0410
0220
0140
7fff
0000
0000
ENDCHAR
STARTCHAR 06-46
ENCODING 9806
SWIDTH 96 0
DWIDTH 16 0
BBX 16 16 0 -2
BITMAP
1022
1021
7dff
5420
5420
5442
5442
5c84
10a8
1110
1228
1044
1082
1101
0000
0000
ENDCHAR
STARTCHAR 06-47
ENCODING 9807
SWIDTH 96 0
DWIDTH 16 0
BBX 16 16 0 -2
BITMAP
1010
1010
7cff
5491
5492
5490
54fc
5484
54a4
5ca8
1110
1128
1247
1182
0000
0000
ENDCHAR
STARTCHAR 06-48
ENCODING 9808
SWIDTH 96 0
DWIDTH 16 0
BBX 16 16 0 -2
BITMAP
1010
1090
7c92
54ff
5490
5510
5412
55ff
5410
5c28
5428
1044
1082
1301
0000
0000
ENDCHAR
STARTCHAR 06-49
ENCODING 9809
SWIDTH 96 0
DWIDTH 16 0
BBX 16 16 0 -2
BITMAP
7dff
0421
0421
7c21
4041
4082
411c
7c00
05ff
0501
0501
0501
49ff
3101
0000
0000
ENDCHAR
STARTCHAR 06-50
ENCODING 9810
SWIDTH 96 0
DWIDTH 16 0
BBX 16 16 0 -2
BITMAP
7c10
0511
0511
7dff
4111
4010
7cfe
0482
0444
0428
0410
0428
0844
7383
0000
0000
ENDCHAR
STARTCHAR 06-51
ENCODING 9811
SWIDTH 96 0
DWIDTH 16 0
BBX 16 16 0 -2
BITMAP
7c42
0442
0482
0502
7cbf
4082
40a2
7c92
048a
0482
0482
0482
288a
1084
0000
0000
ENDCHAR
STARTCHAR 06-52
ENCODING 9812
SWIDTH 96 0
DWIDTH 16 0
BBX 16 16 0 -2
BITMAP
7c01
05fe
0484
7c84
4084
40ff
7c84
0484
0484
0494
04a5
04c5
2883
1139
0000
0000
ENDCHAR
STARTCHAR 06-53
ENCODING 9813
SWIDTH 96 0
DWIDTH 16 0
BBX 16 16 0 -2
BITMAP
0100
03f0
0420
0fc0
0082
7fff
0080
0084
3c88
0490
0888
1084
2282
0100
0000
0000
ENDCHAR
STARTCHAR 06-54
ENCODING 9814
SWIDTH 96 0
DWIDTH 16 0
BBX 16 16 0 -2
BITMAP
0404
08fe
1084
2484
0484
08fc
1884
2884
4884
08fc
0884
0884
0884
0fff
0000
0000
ENDCHAR
STARTCHAR 06-55
ENCODING 9815
SWIDTH 96 0
DWIDTH 16 0
BBX 16 16 0 -2
BITMAP
1020
1050
2088
4104
0a02
14f9
3000
53fe
1004
1008
1090
1060
1020
1020
0000
0000
ENDCHAR
STARTCHAR 06-56
ENCODING 9816
SWIDTH 96 0
DWIDTH 16 0
BBX 16 16 0 -2
BITMAP
1001
17fe
2208
4208
0a08
13ff
3208
5208
1208
1208
1249
1285
1303
1679
0000
0000
ENDCHAR
STARTCHAR 06-57
ENCODING 9817
SWIDTH 96 0
DWIDTH 16 0
BBX 16 16 0 -2
BITMAP
0080
3ffe
0220
0140
0080
0140
3e3e
0000
0100
28c6
2801
4808
0808
07f8
0000
0000
ENDCHAR
STARTCHAR 06-58
ENCODING 9818
SWIDTH 96 0
DWIDTH 16 0
BBX 16 16 0 -2
BITMAP
0800
1ffe
2000
47f8
0000
7ffc
0004
0204
2a44
2924
2815
4845
07c3
0001
0000
0000
ENDCHAR
STARTCHAR 06-59
ENCODING 9819
SWIDTH 96 0
DWIDTH 16 0
BBX 16 16 0 -2
BITMAP
1040
1020
1010
1880
5482
508a
5289
1490
10a0
10c0
1082
1182
1682
107e
0000
0000
ENDCHAR
STARTCHAR 06-60
ENCODING 9820
SWIDTH 96 0
DWIDTH 16 0
BBX 16 16 0 -2
BITMAP
0804
0bfe
0924
2ca4
2aa4
28a8
4822
0fff
0820
0820
0820
0820
0820
0820
0000
0000
ENDCHAR
STARTCHAR 06-61
ENCODING 9821
SWIDTH 96 0
DWIDTH 16 0
BBX 16 16 0 -2
BITMAP
0820
0820
0822
2bff
2c20
2a20
4824
09fe
0904
0904
0904
0904
09fc
0904
0000
0000
ENDCHAR
STARTCHAR 06-62
ENCODING 9822
SWIDTH 96 0
DWIDTH 16 0
BBX 16 16 0 -2
BITMAP
11ff
1010
1010
5810
55ff
5111
5111
1111
1129
1145
1101
1101
1105
1102
0000
0000
ENDCHAR
STARTCHAR 06-63
ENCODING 9823
SWIDTH 96 0
DWIDTH 16 0
BBX 16 16 0 -2
BITMAP
11fe
1102
1102
59fe
5510
5110
51fe
1110
1110
1108
1128
1145
1183
1301
0000
0000
ENDCHAR
STARTCHAR 06-64
ENCODING 9824
SWIDTH 96 0
DWIDTH 16 0
BBX 16 16 0 -2
BITMAP
1014
1012
1010
59ff
5510
5110
5112
1112
1114
1108
1155
11a3
1301
1000
0000
0000
ENDCHAR
STARTCHAR 06-65
ENCODING 9825
SWIDTH 96 0
DWIDTH 16 0
BBX 16 16 0 -2
BITMAP
0802
09ff
0842
2c42
2a42
288a
4904
0a00
09fe
0902
0902
0902
09fe
0902
0000
0000
ENDCHAR
STARTCHAR 06-66
ENCODING 9826
SWIDTH 96 0
DWIDTH 16 0
BBX 16 16 0 -2
BITMAP
1040
1040
1040
587e
5440
5040
5042
13ff
1202
1202
1202
1202
13fe
1202
0000
0000
ENDCHAR
STARTCHAR 06-67
ENCODING 9827
SWIDTH 96 0
DWIDTH 16 0
BBX 16 16 0 -2
BITMAP
1004
11fe
5104
5904
5504
5104
51fc
1090
1090
1090
1090
1111
1211
141f
0000
0000
ENDCHAR
STARTCHAR 06-68
ENCODING 9828
SWIDTH 96 0
DWIDTH 16 0
BBX 16 16 0 -2
BITMAP
1004
11fe
1104
5904
5504
51fc
5104
1104
11fc
1104
1104
1104
1104
17ff
0000
0000
ENDCHAR
STARTCHAR 06-69
ENCODING 9829
SWIDTH 96 0
DWIDTH 16 0
BBX 16 16 0 -2
BITMAP
1010
1010
1010
5010
59ff
5511
5111
5111
11ff
1111
1111
1111
11ff
1101
0000
0000
ENDCHAR
STARTCHAR 06-70
ENCODING 9830
SWIDTH 96 0
DWIDTH 16 0
BBX 16 16 0 -2
BITMAP
1000
11ff
1129
5929
5529
5129
5149
118f
1101
1101
1101
11ff
1101
1000
0000
0000
ENDCHAR
STARTCHAR 06-71
ENCODING 9831
SWIDTH 96 0
DWIDTH 16 0
BBX 16 16 0 -2
BITMAP
1010
1090
10fe
1910
5410
5010
51ff
5010
1010
1028
1044
1082
1101
1101
0000
0000
ENDCHAR
STARTCHAR 06-72
ENCODING 9832
SWIDTH 96 0
DWIDTH 16 0
BBX 16 16 0 -2
BITMAP
0880
0882
08ff
2d40
2a40
2844
487e
0840
0840
0844
087e
0840
0840
0840
0000
0000
ENDCHAR
STARTCHAR 06-73
ENCODING 9833
SWIDTH 96 0
DWIDTH 16 0
BBX 16 16 0 -2
BITMAP
1080
1080
10ff
5901
5401
50f9
5089
1089
10f9
1089
1001
1001
1012
100c
0000
0000
ENDCHAR
STARTCHAR 06-74
ENCODING 9834
SWIDTH 96 0
DWIDTH 16 0
BBX 16 16 0 -2
BITMAP
1008
1088
10bf
5909
5649
57c9
5089
1109
1249
17c9
1051
1021
104a
1004
0000
0000
ENDCHAR
STARTCHAR 06-75
ENCODING 9835
SWIDTH 96 0
DWIDTH 16 0
BBX 16 16 0 -2
BITMAP
1200
1280
129f
5a91
57d1
5291
5291
1291
1291
128a
1104
128a
1451
1021
0000
0000
ENDCHAR
STARTCHAR 06-76
ENCODING 9836
SWIDTH 96 0
DWIDTH 16 0
BBX 16 16 0 -2
BITMAP
1020
1124
1124
58a8
5420
51fc
5020
5020
17ff
1020
1020
1020
1020
1020
0000
0000
ENDCHAR
STARTCHAR 06-77
ENCODING 9837
SWIDTH 96 0
DWIDTH 16 0
BBX 16 16 0 -2
BITMAP
1000
17ff
1008
5810
5420
5040
50a0
5124
1222
1021
1020
1020
17ff
1000
0000
0000
ENDCHAR
STARTCHAR 06-78
ENCODING 9838
SWIDTH 96 0
DWIDTH 16 0
BBX 16 16 0 -2
BITMAP
1080
10fe
1102
5802
55f2
5112
5112
11f2
1102
110c
1100
1101
1101
10ff
0000
0000
ENDCHAR
STARTCHAR 06-79
ENCODING 9839
SWIDTH 96 0
DWIDTH 16 0
BBX 16 16 0 -2
BITMAP
0820
0850
0c50
2a88
2904
2af7
4c02
09fc
0804
0808
0850
0820
0810
0810
0000
0000
ENDCHAR
STARTCHAR 06-80
ENCODING 9840
SWIDTH 96 0
DWIDTH 16 0
BBX 16 16 0 -2
BITMAP
0208
3ffe
0210
0260
0180
3e42
023e
0104
7fff
0090
0060
00c2
0322
3c1e
0000
0000
ENDCHAR
STARTCHAR 06-81
ENCODING 9841
SWIDTH 96 0
DWIDTH 16 0
BBX 16 16 0 -2
BITMAP
0100
0084
1ffe
1004
1ffc
1110
10d0
1450
1312
111f
1ff0
2010
4010
0010
0000
0000
ENDCHAR
STARTCHAR 06-82
ENCODING 9842
SWIDTH 96 0
DWIDTH 16 0
BBX 16 16 0 -2
BITMAP
1010
1010
11ff
7d01
1101
1048
1448
1848
7048
1048
1048
1089
5109
220f
0000
0000
ENDCHAR
STARTCHAR 06-83
ENCODING 9843
SWIDTH 96 0
DWIDTH 16 0
BBX 16 16 0 -2
BITMAP
1080
1092
1092
7c92
1092
11ff
1492
1892
7092
1092
109e
1080
5080
20ff
0000
0000
ENDCHAR
STARTCHAR 06-84
ENCODING 9844
SWIDTH 96 0
DWIDTH 16 0
BBX 16 16 0 -2
BITMAP
1000
1044
1044
7c44
11ff
1044
1444
1844
707c
1044
1044
1044
507c
2044
0000
0000
ENDCHAR
STARTCHAR 06-85
ENCODING 9845
SWIDTH 96 0
DWIDTH 16 0
BBX 16 16 0 -2
BITMAP
1010
1010
10fe
7c10
1010
1010
15ff
1810
7020
1040
1084
1102
53ff
2001
0000
0000
ENDCHAR
STARTCHAR 06-86
ENCODING 9846
SWIDTH 96 0
DWIDTH 16 0
BBX 16 16 0 -2
BITMAP
1040
1040
13ff
7c50
1090
11fe
1292
1892
7092
1092
1096
1010
5010
2010
0000
0000
ENDCHAR
STARTCHAR 06-87
ENCODING 9847
SWIDTH 96 0
DWIDTH 16 0
BBX 16 16 0 -2
BITMAP
1090
1090
10fe
7d10
1010
1010
15ff
1810
7010
1028
1044
1082
5101
2201
0000
0000
ENDCHAR
STARTCHAR 06-88
ENCODING 9848
SWIDTH 96 0
DWIDTH 16 0
BBX 16 16 0 -2
BITMAP
0844
0844
0884
7e84
09ff
0a84
0aa4
0c94
1894
6884
0884
0884
2894
1088
0000
0000
ENDCHAR
STARTCHAR 06-89
ENCODING 9849
SWIDTH 96 0
DWIDTH 16 0
BBX 16 16 0 -2
BITMAP
1010
1028
1044
7c82
1111
1020
1448
1810
7024
1044
1008
1010
5020
21c0
0000
0000
ENDCHAR
STARTCHAR 06-90
ENCODING 9850
SWIDTH 96 0
DWIDTH 16 0
BBX 16 16 0 -2
BITMAP
1002
11ff
1102
7d02
11fe
1100
1520
1920
7120
113e
1120
1120
5221
243f
0000
0000
ENDCHAR
STARTCHAR 06-91
ENCODING 9851
SWIDTH 96 0
DWIDTH 16 0
BBX 16 16 0 -2
BITMAP
1000
10fc
1084
7c84
1084
10fc
1484
1884
70fc
1084
1084
1084
5084
23ff
0000
0000
ENDCHAR
STARTCHAR 06-92
ENCODING 9852
SWIDTH 96 0
DWIDTH 16 0
BBX 16 16 0 -2
BITMAP
0820
0820
0822
7dff
0922
0922
0dfe
1922
6922
09fe
0922
0820
2820
1020
0000
0000
ENDCHAR
STARTCHAR 06-93
ENCODING 9853
SWIDTH 96 0
DWIDTH 16 0
BBX 16 16 0 -2
BITMAP
1020
1020
11fc
7d24
1124
15fc
1924
3124
57ff
1104
1104
1104
5114
2108
0000
0000
ENDCHAR
STARTCHAR 06-94
ENCODING 9854
SWIDTH 96 0
DWIDTH 16 0
BBX 16 16 0 -2
BITMAP
1020
1020
1020
7dfc
1124
1124
1524
1924
77ff
1050
1088
1104
5202
2401
0000
0000
ENDCHAR
STARTCHAR 07-01
ENCODING 10017
SWIDTH 96 0
DWIDTH 16 0
BBX 16 16 0 -2
BITMAP
1004
1038
11e0
7c20
1020
13ff
100c
1838
70e0
1100
1300
1480
5060
201f
0000
0000
ENDCHAR
STARTCHAR 07-02
ENCODING 10018
SWIDTH 96 0
DWIDTH 16 0
BBX 16 16 0 -2
BITMAP
1408
2210
4120
007f
7f02
1122
1122
1122
1114
1108
2114
4122
0a41
0481
0000
0000
ENDCHAR
STARTCHAR 07-03
ENCODING 10019
SWIDTH 96 0
DWIDTH 16 0
BBX 16 16 0 -2
BITMAP
2201
22fe
2240
2240
3e7f
0244
0244
7e44
2244
2244
2244
4284
0204
0204
0000
0000
ENDCHAR
STARTCHAR 07-04
ENCODING 10020
SWIDTH 96 0
DWIDTH 16 0
BBX 16 16 0 -2
BITMAP
1010
0810
08ff
7f00
107c
1044
1e44
1244
1244
2244
4245
0245
1485
0907
0000
0000
ENDCHAR
STARTCHAR 07-05
ENCODING 10021
SWIDTH 96 0
DWIDTH 16 0
BBX 16 16 0 -2
BITMAP
0020
0010
7dff
4440
4440
447e
7c42
4442
4482
4502
7e02
4404
0048
0030
0000
0000
ENDCHAR
STARTCHAR 07-06
ENCODING 10022
SWIDTH 96 0
DWIDTH 16 0
BBX 16 16 0 -2
BITMAP
0020
0012
7dff
4444
4444
4444
7c44
4444
4428
4410
7c28
4444
0082
0101
0000
0000
ENDCHAR
STARTCHAR 07-07
ENCODING 10023
SWIDTH 96 0
DWIDTH 16 0
BBX 16 16 0 -2
BITMAP
000c
0070
7b80
4900
497e
7942
4942
4924
7918
4918
0224
0442
0081
0301
0000
0000
ENDCHAR
STARTCHAR 07-08
ENCODING 10024
SWIDTH 96 0
DWIDTH 16 0
BBX 16 16 0 -2
BITMAP
0080
0080
78ff
48a9
4929
4a29
7829
4829
4849
4889
7911
4822
0044
0018
0000
0000
ENDCHAR
STARTCHAR 07-09
ENCODING 10025
SWIDTH 96 0
DWIDTH 16 0
BBX 16 16 0 -2
BITMAP
0001
01fe
7c80
4480
44fe
7c82
4482
44fe
4480
7c80
4480
0100
0200
0400
0000
0000
ENDCHAR
STARTCHAR 07-10
ENCODING 10026
SWIDTH 96 0
DWIDTH 16 0
BBX 16 16 0 -2
BITMAP
1ffc
1004
1ffc
1004
1ffc
0080
7fff
0410
0220
0140
0080
0140
0220
7c1f
0000
0000
ENDCHAR
STARTCHAR 07-11
ENCODING 10027
SWIDTH 96 0
DWIDTH 16 0
BBX 16 16 0 -2
BITMAP
0008
0ffc
0808
0ff8
0808
0ff8
0002
1fff
1040
10c0
1120
2210
440e
0804
0000
0000
ENDCHAR
STARTCHAR 07-12
ENCODING 10028
SWIDTH 96 0
DWIDTH 16 0
BBX 16 16 0 -2
BITMAP
0004
1ff8
0080
0080
7fff
0220
0410
0808
1ffc
680b
0ff8
0808
0ff8
0808
0000
0000
ENDCHAR
STARTCHAR 07-13
ENCODING 10029
SWIDTH 96 0
DWIDTH 16 0
BBX 16 16 0 -2
BITMAP
0000
7f7f
4141
4141
4141
4141
7f7f
4141
4141
4141
4141
7f7f
4141
0000
0000
0000
ENDCHAR
STARTCHAR 07-14
ENCODING 10030
SWIDTH 96 0
DWIDTH 16 0
BBX 16 16 0 -2
BITMAP
07fe
0104
7908
4910
4920
797e
4902
4922
4914
7908
4914
0222
0441
0081
0000
0000
ENDCHAR
STARTCHAR 07-15
ENCODING 10031
SWIDTH 96 0
DWIDTH 16 0
BBX 16 16 0 -2
BITMAP
0020
0020
03fe
7c20
4524
4524
7d24
4524
45fc
4420
7c20
4421
0021
003f
0000
0000
ENDCHAR
STARTCHAR 07-16
ENCODING 10032
SWIDTH 96 0
DWIDTH 16 0
BBX 16 16 0 -2
BITMAP
0010
0030
7848
4884
4902
4a79
7800
49fe
4802
4804
7808
4810
0020
0040
0000
0000
ENDCHAR
STARTCHAR 07-17
ENCODING 10033
SWIDTH 96 0
DWIDTH 16 0
BBX 16 16 0 -2
BITMAP
0030
0048
7c84
4502
4601
4400
7dfe
4422
4422
4422
7c42
4482
0304
0018
0000
0000
ENDCHAR
STARTCHAR 07-18
ENCODING 10034
SWIDTH 96 0
DWIDTH 16 0
BBX 16 16 0 -2
BITMAP
0800
1fff
6221
0221
0421
0841
108e
0000
1ffc
1004
1ffc
1004
1ffc
1004
0000
0000
ENDCHAR
STARTCHAR 07-19
ENCODING 10035
SWIDTH 96 0
DWIDTH 16 0
BBX 16 16 0 -2
BITMAP
0004
1efe
1200
1200
1e02
13ff
1248
1248
1e48
1248
1248
2249
2a89
4507
0000
0000
ENDCHAR
STARTCHAR 07-20
ENCODING 10036
SWIDTH 96 0
DWIDTH 16 0
BBX 16 16 0 -2
BITMAP
1004
11fe
1048
7c48
1048
13ff
1048
3848
5448
1048
1088
1108
1208
1008
0000
0000
ENDCHAR
STARTCHAR 07-21
ENCODING 10037
SWIDTH 96 0
DWIDTH 16 0
BBX 16 16 0 -2
BITMAP
1004
10fe
1000
7c00
1002
11ff
1048
3848
5448
1048
1048
1089
1109
120f
0000
0000
ENDCHAR
STARTCHAR 07-22
ENCODING 10038
SWIDTH 96 0
DWIDTH 16 0
BBX 16 16 0 -2
BITMAP
1010
1010
10fe
7c10
1010
1010
39ff
5410
1010
1028
1044
1082
1101
1201
0000
0000
ENDCHAR
STARTCHAR 07-23
ENCODING 10039
SWIDTH 96 0
DWIDTH 16 0
BBX 16 16 0 -2
BITMAP
1000
11ff
1084
7c84
1084
10ff
1014
3824
5444
1084
1104
1204
1014
1008
0000
0000
ENDCHAR
STARTCHAR 07-24
ENCODING 10040
SWIDTH 96 0
DWIDTH 16 0
BBX 16 16 0 -2
BITMAP
1020
1020
13fe
7c20
1124
1124
1124
39fc
5420
1020
1021
1021
103f
1000
0000
0000
ENDCHAR
STARTCHAR 07-25
ENCODING 10041
SWIDTH 96 0
DWIDTH 16 0
BBX 16 16 0 -2
BITMAP
10fc
1024
1024
7c24
1024
1024
11ff
3824
5424
1024
1024
1024
11ff
1000
0000
0000
ENDCHAR
STARTCHAR 07-26
ENCODING 10042
SWIDTH 96 0
DWIDTH 16 0
BBX 16 16 0 -2
BITMAP
0820
0820
7e22
09ff
0922
1d22
1b22
2922
2952
494e
0986
0902
090a
0904
0000
0000
ENDCHAR
STARTCHAR 07-27
ENCODING 10043
SWIDTH 96 0
DWIDTH 16 0
BBX 16 16 0 -2
BITMAP
1002
11fc
1020
7c20
1020
13fe
3820
5420
13fe
1020
1020
1021
1021
103f
0000
0000
ENDCHAR
STARTCHAR 07-28
ENCODING 10044
SWIDTH 96 0
DWIDTH 16 0
BBX 16 16 0 -2
BITMAP
1040
1040
107f
7c81
1101
1021
3841
5489
11fd
1105
1001
1001
1012
100c
0000
0000
ENDCHAR
STARTCHAR 07-29
ENCODING 10045
SWIDTH 96 0
DWIDTH 16 0
BBX 16 16 0 -2
BITMAP
1040
1040
107f
7c81
1111
1012
1010
3810
5410
1028
1044
1082
1101
1201
0000
0000
ENDCHAR
STARTCHAR 07-30
ENCODING 10046
SWIDTH 96 0
DWIDTH 16 0
BBX 16 16 0 -2
BITMAP
1028
1044
1082
7d01
1000
11ff
3820
5440
10ff
1001
1001
1002
1024
1018
0000
0000
ENDCHAR
STARTCHAR 07-31
ENCODING 10047
SWIDTH 96 0
DWIDTH 16 0
BBX 16 16 0 -2
BITMAP
1048
1084
1102
7e01
1000
11fe
1022
3822
5422
1042
1082
1102
1224
1018
0000
0000
ENDCHAR
STARTCHAR 07-32
ENCODING 10048
SWIDTH 96 0
DWIDTH 16 0
BBX 16 16 0 -2
BITMAP
1020
1010
1008
7c00
1140
1142
1141
3a41
5440
1040
1040
1042
1042
103e
0000
0000
ENDCHAR
STARTCHAR 07-33
ENCODING 10049
SWIDTH 96 0
DWIDTH 16 0
BBX 16 16 0 -2
BITMAP
1000
10fe
1000
7c00
1000
11ff
3810
5420
1040
1084
1102
13ff
1001
1001
0000
0000
ENDCHAR
STARTCHAR 07-34
ENCODING 10050
SWIDTH 96 0
DWIDTH 16 0
BBX 16 16 0 -2
BITMAP
1000
13ff
1080
7c80
10fc
1084
1084
3884
5484
10fc
1004
1004
13ff
1000
0000
0000
ENDCHAR
STARTCHAR 07-35
ENCODING 10051
SWIDTH 96 0
DWIDTH 16 0
BBX 16 16 0 -2
BITMAP
0802
09ff
0900
7f00
09fe
1942
1d42
2b42
4954
0948
0940
0a41
0c41
083f
0000
0000
ENDCHAR
STARTCHAR 07-36
ENCODING 10052
SWIDTH 96 0
DWIDTH 16 0
BBX 16 16 0 -2
BITMAP
1080
1080
10ff
7d01
1201
1079
1001
3801
54fd
1001
1001
1001
1012
100c
0000
0000
ENDCHAR
STARTCHAR 07-37
ENCODING 10053
SWIDTH 96 0
DWIDTH 16 0
BBX 16 16 0 -2
BITMAP
1002
10fc
1010
7c10
10fe
1010
1010
39ff
5410
1010
1010
1010
1050
1020
0000
0000
ENDCHAR
STARTCHAR 07-38
ENCODING 10054
SWIDTH 96 0
DWIDTH 16 0
BBX 16 16 0 -2
BITMAP
0804
0bfe
0884
7e88
189e
1cc2
2ac4
28a4
4928
0910
0928
0a44
0c87
0902
0000
0000
ENDCHAR
STARTCHAR 07-39
ENCODING 10055
SWIDTH 96 0
DWIDTH 16 0
BBX 16 16 0 -2
BITMAP
107c
1044
1044
7c44
1187
1000
10fe
3804
5428
1010
1028
1044
1082
1301
0000
0000
ENDCHAR
STARTCHAR 07-40
ENCODING 10056
SWIDTH 96 0
DWIDTH 16 0
BBX 16 16 0 -2
BITMAP
1040
1050
1090
7d10
1310
1110
111e
3910
5510
1110
1111
1111
1111
111f
0000
0000
ENDCHAR
STARTCHAR 07-41
ENCODING 10057
SWIDTH 96 0
DWIDTH 16 0
BBX 16 16 0 -2
BITMAP
1010
1028
1044
7c82
1101
1078
1000
39fe
5402
1004
1008
1010
1020
1000
0000
0000
ENDCHAR
STARTCHAR 07-42
ENCODING 10058
SWIDTH 96 0
DWIDTH 16 0
BBX 16 16 0 -2
BITMAP
0040
0040
7c7f
4491
4511
4412
7c10
4410
4410
4428
7c44
4482
0101
0201
0000
0000
ENDCHAR
STARTCHAR 07-43
ENCODING 10059
SWIDTH 96 0
DWIDTH 16 0
BBX 16 16 0 -2
BITMAP
0002
7f1c
1070
1010
1e10
2210
53ff
0a10
0410
0810
1028
6044
0082
0101
0000
0000
ENDCHAR
STARTCHAR 07-44
ENCODING 10060
SWIDTH 96 0
DWIDTH 16 0
BBX 16 16 0 -2
BITMAP
0040
7e40
207f
20a9
3d29
2429
6429
1429
0829
1049
2091
4121
0042
000c
0000
0000
ENDCHAR
STARTCHAR 07-45
ENCODING 10061
SWIDTH 96 0
DWIDTH 16 0
BBX 16 16 0 -2
BITMAP
2040
3f7e
2040
2141
7f7f
0002
1ffc
0080
1ffc
0080
3ffe
0080
0081
007f
0000
0000
ENDCHAR
STARTCHAR 07-46
ENCODING 10062
SWIDTH 96 0
DWIDTH 16 0
BBX 16 16 0 -2
BITMAP
0800
1ff8
2000
4ff0
0000
3ff8
0208
3fe8
2228
2528
28a8
2029
2025
2043
0000
0000
ENDCHAR
STARTCHAR 07-47
ENCODING 10063
SWIDTH 96 0
DWIDTH 16 0
BBX 16 16 0 -2
BITMAP
0080
0084
3e8c
02d0
04a0
0898
1287
6102
0ff8
0808
0ff8
0808
0ff8
0808
0000
0000
ENDCHAR
STARTCHAR 07-48
ENCODING 10064
SWIDTH 96 0
DWIDTH 16 0
BBX 16 16 0 -2
BITMAP
3040
1020
0010
41ff
3101
1101
0400
0800
0828
7044
1082
1101
1201
1000
0000
0000
ENDCHAR
STARTCHAR 07-49
ENCODING 10065
SWIDTH 96 0
DWIDTH 16 0
BBX 16 16 0 -2
BITMAP
2020
1822
0bff
4040
2040
2484
090c
0bf0
1020
7040
1080
1204
13fe
1002
0000
0000
ENDCHAR
STARTCHAR 07-50
ENCODING 10066
SWIDTH 96 0
DWIDTH 16 0
BBX 16 16 0 -2
BITMAP
0020
2222
19a6
08a8
4020
23fe
2420
0822
17ff
7020
1020
1020
1020
1020
0000
0000
ENDCHAR
STARTCHAR 07-51
ENCODING 10067
SWIDTH 96 0
DWIDTH 16 0
BBX 16 16 0 -2
BITMAP
43fe
3020
1222
0124
40a8
3020
17ff
0020
0820
1020
6020
2020
2020
2020
0000
0000
ENDCHAR
STARTCHAR 07-52
ENCODING 10068
SWIDTH 96 0
DWIDTH 16 0
BBX 16 16 0 -2
BITMAP
3000
13fe
0000
4000
37ff
1020
0020
08a8
1124
6222
2421
2020
20a0
2040
0000
0000
ENDCHAR
STARTCHAR 07-53
ENCODING 10069
SWIDTH 96 0
DWIDTH 16 0
BBX 16 16 0 -2
BITMAP
0108
2108
1108
4fff
2108
2508
0908
11f8
7108
1108
1108
1108
11f8
1108
0000
0000
ENDCHAR
STARTCHAR 07-54
ENCODING 10070
SWIDTH 96 0
DWIDTH 16 0
BBX 16 16 0 -2
BITMAP
4022
3021
17ff
0020
4020
3124
1124
0124
0924
1224
6427
2020
2020
2020
0000
0000
ENDCHAR
STARTCHAR 07-55
ENCODING 10071
SWIDTH 96 0
DWIDTH 16 0
BBX 16 16 0 -2
BITMAP
4014
3012
1010
03ff
4210
3210
1210
0211
0a12
1214
6248
2295
2303
2201
0000
0000
ENDCHAR
STARTCHAR 07-56
ENCODING 10072
SWIDTH 96 0
DWIDTH 16 0
BBX 16 16 0 -2
BITMAP
3022
1021
07ff
4020
3040
1084
0104
0a44
1028
6010
2028
2044
2082
2301
0000
0000
ENDCHAR
STARTCHAR 07-57
ENCODING 10073
SWIDTH 96 0
DWIDTH 16 0
BBX 16 16 0 -2
BITMAP
2790
1c90
0d10
4512
267f
2512
0c92
1492
7692
1522
1422
1442
1494
1508
0000
0000
ENDCHAR
STARTCHAR 07-58
ENCODING 10074
SWIDTH 96 0
DWIDTH 16 0
BBX 16 16 0 -2
BITMAP
19ff
0901
0101
417d
3145
1145
0545
097d
0945
7101
1101
1101
1105
1102
0000
0000
ENDCHAR
STARTCHAR 07-59
ENCODING 10075
SWIDTH 96 0
DWIDTH 16 0
BBX 16 16 0 -2
BITMAP
1800
09ff
0111
4111
3111
1111
05ff
0911
0911
7111
1111
11ff
1101
1000
0000
0000
ENDCHAR
STARTCHAR 07-60
ENCODING 10076
SWIDTH 96 0
DWIDTH 16 0
BBX 16 16 0 -2
BITMAP
4080
3080
10ff
0101
4201
31f9
1109
0109
09f9
1109
6001
2001
2012
200c
0000
0000
ENDCHAR
STARTCHAR 07-61
ENCODING 10077
SWIDTH 96 0
DWIDTH 16 0
BBX 16 16 0 -2
BITMAP
4020
3120
11fe
0220
4420
3020
17ff
0020
0850
1088
6104
2202
2401
2401
0000
0000
ENDCHAR
STARTCHAR 07-62
ENCODING 10078
SWIDTH 96 0
DWIDTH 16 0
BBX 16 16 0 -2
BITMAP
4084
3084
1104
0204
457f
3104
1104
0144
0924
1114
6104
2104
2114
2108
0000
0000
ENDCHAR
STARTCHAR 07-63
ENCODING 10079
SWIDTH 96 0
DWIDTH 16 0
BBX 16 16 0 -2
BITMAP
4020
3021
1022
03fc
4220
3220
13ff
0021
0861
10a1
612a
2624
2020
2020
0000
0000
ENDCHAR
STARTCHAR 07-64
ENCODING 10080
SWIDTH 96 0
DWIDTH 16 0
BBX 16 16 0 -2
BITMAP
4008
37f0
1200
0240
4248
3248
1248
0248
0a48
1244
6492
29f9
3109
2000
0000
0000
ENDCHAR
STARTCHAR 07-65
ENCODING 10081
SWIDTH 96 0
DWIDTH 16 0
BBX 16 16 0 -2
BITMAP
4002
33fc
1100
0100
41ff
3110
1110
0118
0914
1112
6211
2410
2010
2010
0000
0000
ENDCHAR
STARTCHAR 07-66
ENCODING 10082
SWIDTH 96 0
DWIDTH 16 0
BBX 16 16 0 -2
BITMAP
1830
0848
0084
4112
3221
1048
0410
0822
0844
7008
1010
1020
1040
1180
0000
0000
ENDCHAR
STARTCHAR 07-67
ENCODING 10083
SWIDTH 96 0
DWIDTH 16 0
BBX 16 16 0 -2
BITMAP
1010
1010
7e12
5214
52f8
5018
1434
1452
1491
1510
2450
4421
0401
03ff
0000
0000
ENDCHAR
STARTCHAR 07-68
ENCODING 10084
SWIDTH 96 0
DWIDTH 16 0
BBX 16 16 0 -2
BITMAP
0810
0810
0912
0a14
7cf8
0c18
1a34
2952
4891
0810
0810
0810
2850
1020
0000
0000
ENDCHAR
STARTCHAR 07-69
ENCODING 10085
SWIDTH 96 0
DWIDTH 16 0
BBX 16 16 0 -2
BITMAP
0800
087e
0902
0a02
7c14
1a08
2a7f
4909
0909
0888
0808
0808
2828
1010
0000
0000
ENDCHAR
STARTCHAR 07-70
ENCODING 10086
SWIDTH 96 0
DWIDTH 16 0
BBX 16 16 0 -2
BITMAP
4020
3020
17ff
0401
4401
3000
13fe
0020
0820
1020
6020
2120
20a0
2040
0000
0000
ENDCHAR
STARTCHAR 07-71
ENCODING 10087
SWIDTH 96 0
DWIDTH 16 0
BBX 16 16 0 -2
BITMAP
43ff
3001
1001
01f9
4001
31f9
1109
0109
09f9
1109
6001
2002
2024
2018
0000
0000
ENDCHAR
STARTCHAR 07-72
ENCODING 10088
SWIDTH 96 0
DWIDTH 16 0
BBX 16 16 0 -2
BITMAP
43ff
3200
1200
0200
43fe
3202
1202
0202
0bfe
1200
6200
2200
23ff
2200
0000
0000
ENDCHAR
STARTCHAR 07-73
ENCODING 10089
SWIDTH 96 0
DWIDTH 16 0
BBX 16 16 0 -2
BITMAP
4020
3020
13fe
0020
4070
30a8
1124
0222
0c21
1020
63fe
2020
2020
2020
0000
0000
ENDCHAR
STARTCHAR 07-74
ENCODING 10090
SWIDTH 96 0
DWIDTH 16 0
BBX 16 16 0 -2
BITMAP
4100
3100
1100
07ef
4129
3129
1129
0129
0929
1129
6229
242f
2049
2180
0000
0000
ENDCHAR
STARTCHAR 07-75
ENCODING 10091
SWIDTH 96 0
DWIDTH 16 0
BBX 16 16 0 -2
BITMAP
4000
37ff
1040
0040
4080
3100
1200
05fe
0902
1102
6102
2102
21fe
2102
0000
0000
ENDCHAR
STARTCHAR 07-76
ENCODING 10092
SWIDTH 96 0
DWIDTH 16 0
BBX 16 16 0 -2
BITMAP
4000
33fe
1202
0202
4202
33fe
1202
0202
0bfe
1202
6000
2000
27ff
2000
0000
0000
ENDCHAR
STARTCHAR 07-77
ENCODING 10093
SWIDTH 96 0
DWIDTH 16 0
BBX 16 16 0 -2
BITMAP
4020
3020
1421
0421
4421
37ff
1020
0020
0c21
1421
6421
2421
27ff
2401
0000
0000
ENDCHAR
STARTCHAR 07-78
ENCODING 10094
SWIDTH 96 0
DWIDTH 16 0
BBX 16 16 0 -2
BITMAP
4120
3120
1120
03fe
4420
3020
1020
03fe
0820
1020
6020
2020
27ff
2000
0000
0000
ENDCHAR
STARTCHAR 07-79
ENCODING 10095
SWIDTH 96 0
DWIDTH 16 0
BBX 16 16 0 -2
BITMAP
4088
3088
113f
0249
47c9
3049
1089
0109
0a49
17c9
6051
2021
2042
200c
0000
0000
ENDCHAR
STARTCHAR 07-80
ENCODING 10096
SWIDTH 96 0
DWIDTH 16 0
BBX 16 16 0 -2
BITMAP
0820
0820
0920
2924
2afe
2c24
4824
0824
09ff
1420
1250
2088
4107
0202
0000
0000
ENDCHAR
STARTCHAR 07-81
ENCODING 10097
SWIDTH 96 0
DWIDTH 16 0
BBX 16 16 0 -2
BITMAP
0801
08fe
2840
2a40
2a42
2c7f
4844
0844
0844
0844
1484
1304
2204
4004
0000
0000
ENDCHAR
STARTCHAR 07-82
ENCODING 10098
SWIDTH 96 0
DWIDTH 16 0
BBX 16 16 0 -2
BITMAP
0ffc
0808
0ff8
0808
0ff8
0080
0484
0548
0950
1220
0210
0408
0807
3002
0000
0000
ENDCHAR
STARTCHAR 07-83
ENCODING 10099
SWIDTH 96 0
DWIDTH 16 0
BBX 16 16 0 -2
BITMAP
0804
0824
0814
4a04
4924
4814
0804
0804
087f
0804
1404
2204
4104
0004
0000
0000
ENDCHAR
STARTCHAR 07-84
ENCODING 10100
SWIDTH 96 0
DWIDTH 16 0
BBX 16 16 0 -2
BITMAP
1020
1010
11ff
5402
5482
5082
5082
1044
1028
1010
1028
2844
4482
4101
0000
0000
ENDCHAR
STARTCHAR 07-85
ENCODING 10101
SWIDTH 96 0
DWIDTH 16 0
BBX 16 16 0 -2
BITMAP
08fc
0824
2a24
2a24
2c24
2824
49ff
0824
0824
0824
1424
1224
21ff
4000
0000
0000
ENDCHAR
STARTCHAR 07-86
ENCODING 10102
SWIDTH 96 0
DWIDTH 16 0
BBX 16 16 0 -2
BITMAP
0810
0810
2a12
2bff
2c10
2810
4838
0854
0892
0911
1410
1210
2010
4010
0000
0000
ENDCHAR
STARTCHAR 07-87
ENCODING 10103
SWIDTH 96 0
DWIDTH 16 0
BBX 16 16 0 -2
BITMAP
0820
0822
0bff
2a20
2d24
2924
4924
09fc
0824
1420
1221
2221
4021
001f
0000
0000
ENDCHAR
STARTCHAR 07-88
ENCODING 10104
SWIDTH 96 0
DWIDTH 16 0
BBX 16 16 0 -2
BITMAP
0800
0844
2a42
2a81
2d01
2810
4810
0810
0820
0844
1482
13ff
2201
4000
0000
0000
ENDCHAR
STARTCHAR 07-89
ENCODING 10105
SWIDTH 96 0
DWIDTH 16 0
BBX 16 16 0 -2
BITMAP
0010
0010
0111
7d11
4492
4454
7c10
4410
4410
7c28
4444
0082
0101
0101
0000
0000
ENDCHAR
STARTCHAR 07-90
ENCODING 10106
SWIDTH 96 0
DWIDTH 16 0
BBX 16 16 0 -2
BITMAP
0410
0808
7007
1ff8
0208
0448
0830
0080
0490
02a0
01c0
0220
0410
780f
0000
0000
ENDCHAR
STARTCHAR 07-91
ENCODING 10107
SWIDTH 96 0
DWIDTH 16 0
BBX 16 16 0 -2
BITMAP
0810
2890
2890
3cfe
4890
0910
0c10
19ff
6810
0810
0810
0810
0810
0810
0000
0000
ENDCHAR
STARTCHAR 07-92
ENCODING 10108
SWIDTH 96 0
DWIDTH 16 0
BBX 16 16 0 -2
BITMAP
4400
2810
1010
29ff
4901
0901
1800
2808
4848
0844
0882
0901
5201
2000
0000
0000
ENDCHAR
STARTCHAR 07-93
ENCODING 10109
SWIDTH 96 0
DWIDTH 16 0
BBX 16 16 0 -2
BITMAP
4400
28fe
1000
2800
4400
0dff
1410
2410
4454
0493
0511
0410
2850
1020
0000
0000
ENDCHAR
STARTCHAR 07-94
ENCODING 10110
SWIDTH 96 0
DWIDTH 16 0
BBX 16 16 0 -2
BITMAP
4414
2812
1010
29ff
4510
0d10
1511
2512
4514
0548
0595
0923
5201
2000
0000
0000
ENDCHAR
STARTCHAR 08-01
ENCODING 10273
SWIDTH 96 0
DWIDTH 16 0
BBX 16 16 0 -2
BITMAP
4400
29fe
1008
2810
4820
0840
18a4
2922
4a21
0820
0820
0820
53ff
2000
0000
0000
ENDCHAR
STARTCHAR 08-02
ENCODING 10274
SWIDTH 96 0
DWIDTH 16 0
BBX 16 16 0 -2
BITMAP
4410
2810
1012
29ff
4410
0410
0c12
14ff
2482
4482
0482
0482
28fe
1082
0000
0000
ENDCHAR
STARTCHAR 08-03
ENCODING 10275
SWIDTH 96 0
DWIDTH 16 0
BBX 16 16 0 -2
BITMAP
4450
2850
13fc
2854
4454
05fc
0d50
1552
25ff
4452
049a
0494
2910
1210
0000
0000
ENDCHAR
STARTCHAR 08-04
ENCODING 10276
SWIDTH 96 0
DWIDTH 16 0
BBX 16 16 0 -2
BITMAP
0402
45ff
2902
1102
29fe
4900
0940
1940
2940
497e
0940
0941
1241
607f
0000
0000
ENDCHAR
STARTCHAR 08-05
ENCODING 10277
SWIDTH 96 0
DWIDTH 16 0
BBX 16 16 0 -2
BITMAP
0400
4400
28fe
1082
2882
4482
04fe
0c82
1482
2482
44fe
0482
0800
31ff
0000
0000
ENDCHAR
STARTCHAR 08-06
ENCODING 10278
SWIDTH 96 0
DWIDTH 16 0
BBX 16 16 0 -2
BITMAP
4410
2890
1090
28fe
4510
0410
0c10
1410
24fe
4410
0410
0410
2810
11ff
0000
0000
ENDCHAR
STARTCHAR 08-07
ENCODING 10279
SWIDTH 96 0
DWIDTH 16 0
BBX 16 16 0 -2
BITMAP
4420
2850
1088
2904
4a02
0cf1
1800
2bfe
4804
0808
0810
08a0
5040
2020
0000
0000
ENDCHAR
STARTCHAR 08-08
ENCODING 10280
SWIDTH 96 0
DWIDTH 16 0
BBX 16 16 0 -2
BITMAP
0010
7c12
10fc
1010
1010
10fe
7c10
1010
11ff
1410
1810
7010
0010
0010
0000
0000
ENDCHAR
STARTCHAR 08-09
ENCODING 10281
SWIDTH 96 0
DWIDTH 16 0
BBX 16 16 0 -2
BITMAP
0000
7dfe
1084
1084
1084
11ff
7c0c
1014
1024
1444
1884
7104
0214
0008
0000
0000
ENDCHAR
STARTCHAR 08-10
ENCODING 10282
SWIDTH 96 0
DWIDTH 16 0
BBX 16 16 0 -2
BITMAP
0010
0910
7d10
1110
1152
11ff
7d10
1110
1110
1110
1131
1d51
7191
030f
0000
0000
ENDCHAR
STARTCHAR 08-11
ENCODING 10283
SWIDTH 96 0
DWIDTH 16 0
BBX 16 16 0 -2
BITMAP
0020
7c20
1020
13fe
1022
7c22
1022
17ff
1020
1450
1888
7104
0202
0401
0000
0000
ENDCHAR
STARTCHAR 08-12
ENCODING 10284
SWIDTH 96 0
DWIDTH 16 0
BBX 16 16 0 -2
BITMAP
0010
0450
7e50
0888
0884
3d03
0afc
0844
0844
0e44
7884
2084
0128
0210
0000
0000
ENDCHAR
STARTCHAR 08-13
ENCODING 10285
SWIDTH 96 0
DWIDTH 16 0
BBX 16 16 0 -2
BITMAP
0010
7c28
1044
1082
1101
1044
7c44
1044
1044
1444
1884
7104
0004
0004
0000
0000
ENDCHAR
STARTCHAR 08-14
ENCODING 10286
SWIDTH 96 0
DWIDTH 16 0
BBX 16 16 0 -2
BITMAP
0000
7cfe
1082
10a2
1092
7c8a
11ff
1082
1082
1482
1882
7082
010a
0004
0000
0000
ENDCHAR
STARTCHAR 08-15
ENCODING 10287
SWIDTH 96 0
DWIDTH 16 0
BBX 16 16 0 -2
BITMAP
0040
0044
7cfe
1110
1010
1012
7dff
1010
1010
1410
1810
7010
0010
0010
0000
0000
ENDCHAR
STARTCHAR 08-16
ENCODING 10288
SWIDTH 96 0
DWIDTH 16 0
BBX 16 16 0 -2
BITMAP
0240
7c40
20ff
2101
2801
2a21
2a11
2a09
2a01
2902
288c
4a40
1f20
001f
0000
0000
ENDCHAR
STARTCHAR 08-17
ENCODING 10289
SWIDTH 96 0
DWIDTH 16 0
BBX 16 16 0 -2
BITMAP
03fc
0100
7d00
11f8
1108
1108
1148
1128
1508
1908
7128
0149
0189
070f
0000
0000
ENDCHAR
STARTCHAR 08-18
ENCODING 10290
SWIDTH 96 0
DWIDTH 16 0
BBX 16 16 0 -2
BITMAP
0008
0008
0008
7f7f
4920
4920
7f20
4920
4920
7f20
4120
0020
003f
0000
0000
0000
ENDCHAR
STARTCHAR 08-19
ENCODING 10291
SWIDTH 96 0
DWIDTH 16 0
BBX 16 16 0 -2
BITMAP
0ffc
0888
0888
0ff8
0888
0888
0ff8
0000
7fff
0410
0410
0410
0810
1010
0000
0000
ENDCHAR
STARTCHAR 08-20
ENCODING 10292
SWIDTH 96 0
DWIDTH 16 0
BBX 16 16 0 -2
BITMAP
0888
1110
2220
1110
0888
0000
1ffc
1084
1084
1ffc
1084
1084
1ffc
1004
0000
0000
ENDCHAR
STARTCHAR 08-21
ENCODING 10293
SWIDTH 96 0
DWIDTH 16 0
BBX 16 16 0 -2
BITMAP
0080
7fff
0080
1ffc
0084
3ffe
0084
1ffc
0080
0880
18fc
2480
4280
01ff
0000
0000
ENDCHAR
STARTCHAR 08-22
ENCODING 10294
SWIDTH 96 0
DWIDTH 16 0
BBX 16 16 0 -2
BITMAP
0040
0020
1fff
1000
1000
57ff
3020
1020
3020
5020
1020
1022
27ff
4000
0000
0000
ENDCHAR
STARTCHAR 08-23
ENCODING 10295
SWIDTH 96 0
DWIDTH 16 0
BBX 16 16 0 -2
BITMAP
0400
0400
3fbe
2488
2508
2408
2f7f
2908
2908
2608
4608
0908
1088
2048
0000
0000
ENDCHAR
STARTCHAR 08-24
ENCODING 10296
SWIDTH 96 0
DWIDTH 16 0
BBX 16 16 0 -2
BITMAP
0010
0010
7c10
45ff
4440
7c40
4440
4440
7c40
4440
4440
7c40
447f
0000
0000
0000
ENDCHAR
STARTCHAR 08-25
ENCODING 10297
SWIDTH 96 0
DWIDTH 16 0
BBX 16 16 0 -2
BITMAP
04fe
7e10
4410
4410
7c10
4412
45ff
7c10
4410
4410
7c10
4410
0050
0020
0000
0000
ENDCHAR
STARTCHAR 08-26
ENCODING 10298
SWIDTH 96 0
DWIDTH 16 0
BBX 16 16 0 -2
BITMAP
00fe
7c10
4410
4410
7c12
45ff
4410
7c10
4410
4410
7c10
4410
0010
0010
0000
0000
ENDCHAR
STARTCHAR 08-27
ENCODING 10299
SWIDTH 96 0
DWIDTH 16 0
BBX 16 16 0 -2
BITMAP
0040
7c80
457f
4400
7c00
447c
4404
7c08
4410
4420
4440
7c81
4501
00ff
0000
0000
ENDCHAR
STARTCHAR 08-28
ENCODING 10300
SWIDTH 96 0
DWIDTH 16 0
BBX 16 16 0 -2
BITMAP
0004
7efe
0810
0810
1010
1e12
33ff
5210
1210
1210
1210
1e10
1010
0010
0000
0000
ENDCHAR
STARTCHAR 08-29
ENCODING 10301
SWIDTH 96 0
DWIDTH 16 0
BBX 16 16 0 -2
BITMAP
0202
7f7f
0808
1008
2008
7f08
2108
2108
2108
2108
3f08
2108
0008
00ff
0000
0000
ENDCHAR
STARTCHAR 08-30
ENCODING 10302
SWIDTH 96 0
DWIDTH 16 0
BBX 16 16 0 -2
BITMAP
0002
00ff
7f24
0824
1024
2024
5f24
1124
1124
1124
1f25
1125
0045
0087
0000
0000
ENDCHAR
STARTCHAR 08-31
ENCODING 10303
SWIDTH 96 0
DWIDTH 16 0
BBX 16 16 0 -2
BITMAP
0010
0020
7f7f
0800
1000
203e
5f02
1104
1108
1110
1f20
1141
0081
007f
0000
0000
ENDCHAR
STARTCHAR 08-32
ENCODING 10304
SWIDTH 96 0
DWIDTH 16 0
BBX 16 16 0 -2
BITMAP
0002
021c
7f70
0810
1010
2010
5f7f
1110
1110
1110
1f10
1111
0011
001f
0000
0000
ENDCHAR
STARTCHAR 08-33
ENCODING 10305
SWIDTH 96 0
DWIDTH 16 0
BBX 16 16 0 -2
BITMAP
003e
0002
7f02
0804
1008
3f08
517f
1108
1108
1f08
1108
0008
0028
0010
0000
0000
ENDCHAR
STARTCHAR 08-34
ENCODING 10306
SWIDTH 96 0
DWIDTH 16 0
BBX 16 16 0 -2
BITMAP
2010
1090
0890
7c90
09fe
1092
3892
5494
1090
1090
1081
1081
10ff
1000
0000
0000
ENDCHAR
STARTCHAR 08-35
ENCODING 10307
SWIDTH 96 0
DWIDTH 16 0
BBX 16 16 0 -2
BITMAP
2040
1040
087f
0081
7e01
0401
0821
1c11
2a09
4801
0801
0802
0814
0808
0000
0000
ENDCHAR
STARTCHAR 08-36
ENCODING 10308
SWIDTH 96 0
DWIDTH 16 0
BBX 16 16 0 -2
BITMAP
0404
7838
11e0
1020
7c20
1020
13fe
3820
5420
1020
1020
1021
103f
1000
0000
0000
ENDCHAR
STARTCHAR 08-37
ENCODING 10309
SWIDTH 96 0
DWIDTH 16 0
BBX 16 16 0 -2
BITMAP
0100
0080
3fff
2001
4412
0908
1104
03f8
0610
0920
10c0
0300
0c00
3000
0000
0000
ENDCHAR
STARTCHAR 08-38
ENCODING 10310
SWIDTH 96 0
DWIDTH 16 0
BBX 16 16 0 -2
BITMAP
0080
7fff
4411
4808
1004
07f0
0080
0080
3ffe
0080
0080
0480
0280
0100
0000
0000
ENDCHAR
STARTCHAR 08-39
ENCODING 10311
SWIDTH 96 0
DWIDTH 16 0
BBX 16 16 0 -2
BITMAP
1010
3f3f
4848
0404
0100
0100
3ffe
0102
0102
0202
0402
0804
1048
2030
0000
0000
ENDCHAR
STARTCHAR 08-40
ENCODING 10312
SWIDTH 96 0
DWIDTH 16 0
BBX 16 16 0 -2
BITMAP
0808
4908
2a08
1c08
0808
7f7f
0808
1c08
2a08
4908
0808
0808
0808
0808
0000
0000
ENDCHAR
STARTCHAR 08-41
ENCODING 10313
SWIDTH 96 0
DWIDTH 16 0
BBX 16 16 0 -2
BITMAP
1000
21ff
4210
7c10
0810
1010
2210
7f10
0910
1c10
2a10
4910
0850
0820
0000
0000
ENDCHAR
STARTCHAR 08-42
ENCODING 10314
SWIDTH 96 0
DWIDTH 16 0
BBX 16 16 0 -2
BITMAP
0100
7f82
12ff
1210
1e10
1210
1e10
1210
1210
1e10
7210
2210
0250
0220
0000
0000
ENDCHAR
STARTCHAR 08-43
ENCODING 10315
SWIDTH 96 0
DWIDTH 16 0
BBX 16 16 0 -2
BITMAP
0180
00c0
0120
0e1c
0080
3ffe
2082
2082
2142
2632
2082
2142
2632
2004
0000
0000
ENDCHAR
STARTCHAR 08-44
ENCODING 10316
SWIDTH 96 0
DWIDTH 16 0
BBX 16 16 0 -2
BITMAP
0020
1e10
1202
13ff
1e00
1278
1248
1248
1e48
1248
1249
2289
4b07
0400
0000
0000
ENDCHAR
STARTCHAR 08-45
ENCODING 10317
SWIDTH 96 0
DWIDTH 16 0
BBX 16 16 0 -2
BITMAP
3e10
2228
2244
3e82
2301
227c
3e00
2200
22fe
2202
2204
2208
4a10
0420
0000
0000
ENDCHAR
STARTCHAR 08-46
ENCODING 10318
SWIDTH 96 0
DWIDTH 16 0
BBX 16 16 0 -2
BITMAP
3e44
2244
2282
3f01
2210
2210
3e10
23ff
2210
2210
2210
2210
4a10
0410
0000
0000
ENDCHAR
STARTCHAR 08-47
ENCODING 10319
SWIDTH 96 0
DWIDTH 16 0
BBX 16 16 0 -2
BITMAP
3e02
22fc
2240
3e40
227f
2244
3e44
2244
2244
2244
2284
2204
4a04
0404
0000
0000
ENDCHAR
STARTCHAR 08-48
ENCODING 10320
SWIDTH 96 0
DWIDTH 16 0
BBX 16 16 0 -2
BITMAP
0210
1f10
1212
12ff
1e92
1292
1292
1eaa
12a6
12c6
1282
2282
2a8a
4484
0000
0000
ENDCHAR
STARTCHAR 08-49
ENCODING 10321
SWIDTH 96 0
DWIDTH 16 0
BBX 16 16 0 -2
BITMAP
1000
207f
7f11
2111
2911
2511
7f91
2111
2911
2511
2111
2121
454a
0204
0000
0000
ENDCHAR
STARTCHAR 08-50
ENCODING 10322
SWIDTH 96 0
DWIDTH 16 0
BBX 16 16 0 -2
BITMAP
0410
7fff
0410
0080
0080
7fff
0410
0220
0140
0080
0140
0220
0410
780f
0000
0000
ENDCHAR
STARTCHAR 08-51
ENCODING 10323
SWIDTH 96 0
DWIDTH 16 0
BBX 16 16 0 -2
BITMAP
0410
7fff
0410
0080
0080
7fff
0000
07f0
0410
0410
0410
0811
1011
201f
0000
0000
ENDCHAR
STARTCHAR 08-52
ENCODING 10324
SWIDTH 96 0
DWIDTH 16 0
BBX 16 16 0 -2
BITMAP
0220
0222
7fff
0220
0000
1ffc
0000
7fff
0220
0220
0421
0421
0821
301f
0000
0000
ENDCHAR
STARTCHAR 08-53
ENCODING 10325
SWIDTH 96 0
DWIDTH 16 0
BBX 16 16 0 -2
BITMAP
0410
7fff
0410
0080
0082
7fff
0080
1084
1084
1ffc
0080
0081
0081
00ff
0000
0000
ENDCHAR
STARTCHAR 08-54
ENCODING 10326
SWIDTH 96 0
DWIDTH 16 0
BBX 16 16 0 -2
BITMAP
0220
0222
7fff
0220
0000
1040
1044
124c
1f50
1060
1041
1341
1c41
103f
0000
0000
ENDCHAR
STARTCHAR 08-55
ENCODING 10327
SWIDTH 96 0
DWIDTH 16 0
BBX 16 16 0 -2
BITMAP
0410
7fff
0410
0000
1ffc
0104
7fff
0104
1ffc
0100
0200
0400
0800
1000
0000
0000
ENDCHAR
STARTCHAR 08-56
ENCODING 10328
SWIDTH 96 0
DWIDTH 16 0
BBX 16 16 0 -2
BITMAP
0410
7fff
0410
0080
0080
1ffc
0084
0084
7fff
0140
0220
0410
0808
7007
0000
0000
ENDCHAR
STARTCHAR 08-57
ENCODING 10329
SWIDTH 96 0
DWIDTH 16 0
BBX 16 16 0 -2
BITMAP
0410
7fff
0410
1ff8
0010
0120
00c0
7fff
0082
0084
0088
0480
0280
0100
0000
0000
ENDCHAR
STARTCHAR 08-58
ENCODING 10330
SWIDTH 96 0
DWIDTH 16 0
BBX 16 16 0 -2
BITMAP
0220
0222
7fff
0220
02a0
0082
3fff
2082
2142
2222
2412
2002
200a
2004
0000
0000
ENDCHAR
STARTCHAR 08-59
ENCODING 10331
SWIDTH 96 0
DWIDTH 16 0
BBX 16 16 0 -2
BITMAP
0410
7fff
0410
0408
0030
07c0
0080
1ffc
0080
3ffe
0080
0081
0081
007f
0000
0000
ENDCHAR
STARTCHAR 08-60
ENCODING 10332
SWIDTH 96 0
DWIDTH 16 0
BBX 16 16 0 -2
BITMAP
0410
7fff
0410
1000
1ff8
2000
0ff0
0000
7ff8
0008
0008
0009
0005
0003
0000
0000
ENDCHAR
STARTCHAR 08-61
ENCODING 10333
SWIDTH 96 0
DWIDTH 16 0
BBX 16 16 0 -2
BITMAP
0808
7fff
0808
0060
0180
0e80
0080
7fff
0080
0140
0220
0410
0808
3006
0000
0000
ENDCHAR
STARTCHAR 08-62
ENCODING 10334
SWIDTH 96 0
DWIDTH 16 0
BBX 16 16 0 -2
BITMAP
0220
0222
7fff
0220
0802
0fff
1122
2122
4222
0242
0442
0882
0214
0008
0000
0000
ENDCHAR
STARTCHAR 08-63
ENCODING 10335
SWIDTH 96 0
DWIDTH 16 0
BBX 16 16 0 -2
BITMAP
0220
0222
7fff
0220
1ff8
0410
0420
0678
0908
0890
1060
1058
2187
0602
0000
0000
ENDCHAR
STARTCHAR 08-64
ENCODING 10336
SWIDTH 96 0
DWIDTH 16 0
BBX 16 16 0 -2
BITMAP
0220
0222
7fff
0220
0404
07fe
0888
0890
1080
0140
0220
0418
0807
3002
0000
0000
ENDCHAR
STARTCHAR 08-65
ENCODING 10337
SWIDTH 96 0
DWIDTH 16 0
BBX 16 16 0 -2
BITMAP
0220
0222
7fff
02a0
0360
0418
1807
63e2
0000
0ff8
0010
0020
0020
0040
0000
0000
ENDCHAR
STARTCHAR 08-66
ENCODING 10338
SWIDTH 96 0
DWIDTH 16 0
BBX 16 16 0 -2
BITMAP
0410
0410
7fff
0410
0080
1084
1084
0888
0080
0140
0220
0410
0808
7007
0000
0000
ENDCHAR
STARTCHAR 08-67
ENCODING 10339
SWIDTH 96 0
DWIDTH 16 0
BBX 16 16 0 -2
BITMAP
0220
0222
7fff
0220
3fa0
0120
0620
0420
07a0
7c20
2420
0421
1421
081f
0000
0000
ENDCHAR
STARTCHAR 08-68
ENCODING 10340
SWIDTH 96 0
DWIDTH 16 0
BBX 16 16 0 -2
BITMAP
0420
0422
7fff
0420
0104
7fff
0200
03f8
0510
04a0
0840
10b0
230e
0c04
0000
0000
ENDCHAR
STARTCHAR 08-69
ENCODING 10341
SWIDTH 96 0
DWIDTH 16 0
BBX 16 16 0 -2
BITMAP
0420
7ffe
0420
1000
1000
1ffe
2002
4202
0402
0882
1fc2
0044
0008
0070
0000
0000
ENDCHAR
STARTCHAR 08-70
ENCODING 10342
SWIDTH 96 0
DWIDTH 16 0
BBX 16 16 0 -2
BITMAP
0410
7fff
0410
0000
0400
0808
11fc
3000
5000
1000
1002
13ff
1000
1000
0000
0000
ENDCHAR
STARTCHAR 08-71
ENCODING 10343
SWIDTH 96 0
DWIDTH 16 0
BBX 16 16 0 -2
BITMAP
0800
0802
7f7f
4908
4908
4908
7f08
4908
0808
0808
0908
7f08
0128
0010
0000
0000
ENDCHAR
STARTCHAR 08-72
ENCODING 10344
SWIDTH 96 0
DWIDTH 16 0
BBX 16 16 0 -2
BITMAP
0801
0821
7f21
4921
4921
4921
7f21
4921
083f
0801
0a01
7f01
0101
0001
0000
0000
ENDCHAR
STARTCHAR 08-73
ENCODING 10345
SWIDTH 96 0
DWIDTH 16 0
BBX 16 16 0 -2
BITMAP
0800
087f
7f11
4911
4911
4911
7f11
4911
0811
0821
0a41
7f11
010a
0004
0000
0000
ENDCHAR
STARTCHAR 08-74
ENCODING 10346
SWIDTH 96 0
DWIDTH 16 0
BBX 16 16 0 -2
BITMAP
0800
083c
7f24
4924
4924
4924
7f24
4924
0824
0824
0a25
7f25
0145
0087
0000
0000
ENDCHAR
STARTCHAR 08-75
ENCODING 10347
SWIDTH 96 0
DWIDTH 16 0
BBX 16 16 0 -2
BITMAP
0002
7fff
0300
0480
78c8
0170
0a40
0460
3ad0
0148
02c4
0443
3940
0080
0000
0000
ENDCHAR
STARTCHAR 08-76
ENCODING 10348
SWIDTH 96 0
DWIDTH 16 0
BBX 16 16 0 -2
BITMAP
4020
2020
03fe
7c00
08f8
1088
2088
1088
0888
0889
0889
130f
6800
07ff
0000
0000
ENDCHAR
STARTCHAR 08-77
ENCODING 10349
SWIDTH 96 0
DWIDTH 16 0
BBX 16 16 0 -2
BITMAP
4000
2002
17ff
0020
7820
0820
13fe
2020
4020
2020
17ff
1000
2800
47ff
0000
0000
ENDCHAR
STARTCHAR 08-78
ENCODING 10350
SWIDTH 96 0
DWIDTH 16 0
BBX 16 16 0 -2
BITMAP
4004
23fe
1108
0108
7908
0bff
1028
2048
1088
0908
0a28
1810
2400
43ff
0000
0000
ENDCHAR
STARTCHAR 08-79
ENCODING 10351
SWIDTH 96 0
DWIDTH 16 0
BBX 16 16 0 -2
BITMAP
4020
2020
07ff
7820
1222
2222
4222
23fe
1020
1021
1021
303f
4800
07ff
0000
0000
ENDCHAR
STARTCHAR 08-80
ENCODING 10352
SWIDTH 96 0
DWIDTH 16 0
BBX 16 16 0 -2
BITMAP
4028
2024
0020
7bff
1020
2020
4050
2088
1104
1202
1202
2800
4400
03ff
0000
0000
ENDCHAR
STARTCHAR 08-81
ENCODING 10353
SWIDTH 96 0
DWIDTH 16 0
BBX 16 16 0 -2
BITMAP
0100
4104
21fe
1120
7a20
1022
2fff
2020
1020
0820
0820
1820
2400
43ff
0000
0000
ENDCHAR
STARTCHAR 08-82
ENCODING 10354
SWIDTH 96 0
DWIDTH 16 0
BBX 16 16 0 -2
BITMAP
4000
21fc
0020
7820
0820
13fe
2020
7020
0850
0888
1104
3202
4800
07ff
0000
0000
ENDCHAR
STARTCHAR 08-83
ENCODING 10355
SWIDTH 96 0
DWIDTH 16 0
BBX 16 16 0 -2
BITMAP
0800
043f
1211
5012
5014
5094
5252
1251
1419
1815
1092
3090
4f90
0010
0000
0000
ENDCHAR
STARTCHAR 08-84
ENCODING 10356
SWIDTH 96 0
DWIDTH 16 0
BBX 16 16 0 -2
BITMAP
7f3e
0822
0824
7f24
4928
4924
4922
5521
5321
6331
412a
4524
4220
0020
0000
0000
ENDCHAR
STARTCHAR 08-85
ENCODING 10357
SWIDTH 96 0
DWIDTH 16 0
BBX 16 16 0 -2
BITMAP
1100
113e
1122
7fe4
1124
1128
1124
1f22
1121
1131
112a
1f24
1120
0020
0000
0000
ENDCHAR
STARTCHAR 08-86
ENCODING 10358
SWIDTH 96 0
DWIDTH 16 0
BBX 16 16 0 -2
BITMAP
7fbe
0222
0422
0c24
0e24
1528
14a4
24a2
4421
0431
07aa
7c24
2020
0020
0000
0000
ENDCHAR
STARTCHAR 08-87
ENCODING 10359
SWIDTH 96 0
DWIDTH 16 0
BBX 16 16 0 -2
BITMAP
083e
1022
1222
2124
7fa4
00a8
0024
3f22
2121
2131
212a
3f24
2120
0020
0000
0000
ENDCHAR
STARTCHAR 08-88
ENCODING 10360
SWIDTH 96 0
DWIDTH 16 0
BBX 16 16 0 -2
BITMAP
7820
4820
53fe
6020
5020
4820
4bfe
4840
4880
6904
5202
47ff
4001
4000
0000
0000
ENDCHAR
STARTCHAR 08-89
ENCODING 10361
SWIDTH 96 0
DWIDTH 16 0
BBX 16 16 0 -2
BITMAP
0020
7c20
4422
483f
5020
4820
4822
44ff
4482
6882
5082
4082
40fe
4082
0000
0000
ENDCHAR
STARTCHAR 08-90
ENCODING 10362
SWIDTH 96 0
DWIDTH 16 0
BBX 16 16 0 -2
BITMAP
0080
7c80
4482
48ff
5140
4a44
487e
4440
4440
4444
687e
5040
4040
4040
0000
0000
ENDCHAR
STARTCHAR 08-91
ENCODING 10363
SWIDTH 96 0
DWIDTH 16 0
BBX 16 16 0 -2
BITMAP
7801
4bfe
5108
6108
5108
49ff
4908
4908
6908
5108
4125
4143
4181
4339
0000
0000
ENDCHAR
STARTCHAR 08-92
ENCODING 10364
SWIDTH 96 0
DWIDTH 16 0
BBX 16 16 0 -2
BITMAP
7dff
4410
4810
5010
4810
45ff
4511
4511
4529
6945
5101
4101
4105
4102
0000
0000
ENDCHAR
STARTCHAR 08-93
ENCODING 10365
SWIDTH 96 0
DWIDTH 16 0
BBX 16 16 0 -2
BITMAP
0840
0820
13fe
2202
63fe
2202
23fe
2201
2222
2214
2248
2284
2302
2601
0000
0000
ENDCHAR
STARTCHAR 08-94
ENCODING 10366
SWIDTH 96 0
DWIDTH 16 0
BBX 16 16 0 -2
BITMAP
0428
0424
0824
0bff
1820
2a22
4924
0938
08a8
0928
0a27
0822
08a0
0840
0000
0000
ENDCHAR
STARTCHAR 09-01
ENCODING 10529
SWIDTH 96 0
DWIDTH 16 0
BBX 16 16 0 -2
BITMAP
0804
0bfe
1000
2092
6124
2248
2124
2092
2000
23fe
2020
2020
2022
27ff
0000
0000
ENDCHAR
STARTCHAR 09-02
ENCODING 10530
SWIDTH 96 0
DWIDTH 16 0
BBX 16 16 0 -2
BITMAP
0bff
1200
2200
62fe
2200
2200
23ff
2240
2249
224a
2248
2254
2462
28c1
0000
0000
ENDCHAR
STARTCHAR 09-03
ENCODING 10531
SWIDTH 96 0
DWIDTH 16 0
BBX 16 16 0 -2
BITMAP
0bfc
1040
2040
43fc
2044
2044
27ff
2000
23fe
2202
2202
2202
23fe
2202
0000
0000
ENDCHAR
STARTCHAR 09-04
ENCODING 10532
SWIDTH 96 0
DWIDTH 16 0
BBX 16 16 0 -2
BITMAP
0802
0bff
1202
2202
43fe
2000
27ff
2421
2421
27ff
2400
2400
2401
27ff
0000
0000
ENDCHAR
STARTCHAR 09-05
ENCODING 10533
SWIDTH 96 0
DWIDTH 16 0
BBX 16 16 0 -2
BITMAP
0400
04fe
0882
0a82
1afe
2a00
4bfe
0822
0822
0bff
0830
0848
0884
0b03
0000
0000
ENDCHAR
STARTCHAR 09-06
ENCODING 10534
SWIDTH 96 0
DWIDTH 16 0
BBX 16 16 0 -2
BITMAP
05fc
0904
1104
21fc
5104
1104
11fc
1104
1104
11fc
1090
1111
1211
141f
0000
0000
ENDCHAR
STARTCHAR 09-07
ENCODING 10535
SWIDTH 96 0
DWIDTH 16 0
BBX 16 16 0 -2
BITMAP
0420
05fc
0924
09fc
1924
29fc
4800
0fff
0880
08fc
0804
0844
0828
0810
0000
0000
ENDCHAR
STARTCHAR 09-08
ENCODING 10536
SWIDTH 96 0
DWIDTH 16 0
BBX 16 16 0 -2
BITMAP
0888
1050
2020
4050
2088
2020
27ff
2110
22fe
2492
2092
2096
2010
2010
0000
0000
ENDCHAR
STARTCHAR 09-09
ENCODING 10537
SWIDTH 96 0
DWIDTH 16 0
BBX 16 16 0 -2
BITMAP
0850
0888
1104
2202
45fd
2104
2104
21fc
2090
2090
2090
2110
2211
241f
0000
0000
ENDCHAR
STARTCHAR 09-10
ENCODING 10538
SWIDTH 96 0
DWIDTH 16 0
BBX 16 16 0 -2
BITMAP
0800
1040
2444
4444
2444
2a4a
3151
2040
2040
27fe
2040
2040
2040
2fff
0000
0000
ENDCHAR
STARTCHAR 09-11
ENCODING 10539
SWIDTH 96 0
DWIDTH 16 0
BBX 16 16 0 -2
BITMAP
0880
11fe
2204
4408
23fe
2222
2222
23fe
2090
2090
2110
2211
2411
281f
0000
0000
ENDCHAR
STARTCHAR 09-12
ENCODING 10540
SWIDTH 96 0
DWIDTH 16 0
BBX 16 16 0 -2
BITMAP
0880
1500
227f
4508
2908
2108
2108
237f
2508
2908
2108
2108
257f
2200
0000
0000
ENDCHAR
STARTCHAR 09-13
ENCODING 10541
SWIDTH 96 0
DWIDTH 16 0
BBX 16 16 0 -2
BITMAP
0802
13ff
2020
6064
20a2
2721
2020
2020
23fe
2202
2202
2202
23fe
2202
0000
0000
ENDCHAR
STARTCHAR 09-14
ENCODING 10542
SWIDTH 96 0
DWIDTH 16 0
BBX 16 16 0 -2
BITMAP
0820
1421
27ff
4020
2050
218c
2623
2020
23fe
2004
2008
2010
2020
2040
0000
0000
ENDCHAR
STARTCHAR 09-15
ENCODING 10543
SWIDTH 96 0
DWIDTH 16 0
BBX 16 16 0 -2
BITMAP
0801
13fe
2242
4124
2000
2088
27ff
2088
2088
2050
2020
2050
2088
2707
0000
0000
ENDCHAR
STARTCHAR 09-16
ENCODING 10544
SWIDTH 96 0
DWIDTH 16 0
BBX 16 16 0 -2
BITMAP
0802
17bc
2088
4108
2208
247f
2208
2108
2108
217f
2500
2200
2500
28ff
0000
0000
ENDCHAR
STARTCHAR 09-17
ENCODING 10545
SWIDTH 96 0
DWIDTH 16 0
BBX 16 16 0 -2
BITMAP
0840
1788
2108
4108
27c8
2108
2188
2348
2511
2121
217f
2101
2101
2100
0000
0000
ENDCHAR
STARTCHAR 09-18
ENCODING 10546
SWIDTH 96 0
DWIDTH 16 0
BBX 16 16 0 -2
BITMAP
7fc1
0001
1241
2489
4909
2489
1249
0009
7fc9
0401
0401
0401
7fc5
0002
0000
0000
ENDCHAR
STARTCHAR 09-19
ENCODING 10547
SWIDTH 96 0
DWIDTH 16 0
BBX 16 16 0 -2
BITMAP
0201
1241
1241
1245
1245
2aa5
4715
0205
0205
3fe5
0201
0201
7ff5
0002
0000
0000
ENDCHAR
STARTCHAR 09-20
ENCODING 10548
SWIDTH 96 0
DWIDTH 16 0
BBX 16 16 0 -2
BITMAP
0408
0408
7fc8
041f
0409
3f89
2089
2089
3f89
1209
1211
1241
224a
43c4
0000
0000
ENDCHAR
STARTCHAR 09-21
ENCODING 10549
SWIDTH 96 0
DWIDTH 16 0
BBX 16 16 0 -2
BITMAP
0408
2408
3f88
243f
4409
0409
7fc9
0009
3f89
2089
2091
20a1
3f82
208c
0000
0000
ENDCHAR
STARTCHAR 09-22
ENCODING 10550
SWIDTH 96 0
DWIDTH 16 0
BBX 16 16 0 -2
BITMAP
3fff
2000
27fc
2404
27fc
2404
27fc
2110
2ffe
20a0
2040
27bc
2000
3fff
0000
0000
ENDCHAR
STARTCHAR 09-23
ENCODING 10551
SWIDTH 96 0
DWIDTH 16 0
BBX 16 16 0 -2
BITMAP
0020
007c
7e84
2808
28ff
2880
28fe
28a2
28a2
2aac
2aa0
4ea1
0121
023f
0000
0000
ENDCHAR
STARTCHAR 09-24
ENCODING 10552
SWIDTH 96 0
DWIDTH 16 0
BBX 16 16 0 -2
BITMAP
3fff
2080
2040
2ffe
2208
2110
2ffe
2040
2040
2ffe
2040
4040
0040
0040
0000
0000
ENDCHAR
STARTCHAR 09-25
ENCODING 10553
SWIDTH 96 0
DWIDTH 16 0
BBX 16 16 0 -2
BITMAP
0002
3fff
2400
2484
2f88
2432
2404
2508
2510
2504
2508
2531
2901
41ff
0000
0000
ENDCHAR
STARTCHAR 09-26
ENCODING 10554
SWIDTH 96 0
DWIDTH 16 0
BBX 16 16 0 -2
BITMAP
0002
3fff
2040
2ffe
2040
27fc
2444
27fc
2444
27fc
2040
2ffe
4040
0040
0000
0000
ENDCHAR
STARTCHAR 09-27
ENCODING 10555
SWIDTH 96 0
DWIDTH 16 0
BBX 16 16 0 -2
BITMAP
0002
3fff
2000
27fc
2444
27fc
2444
2444
27fc
2040
27fc
2040
4042
0fff
0000
0000
ENDCHAR
STARTCHAR 09-28
ENCODING 10556
SWIDTH 96 0
DWIDTH 16 0
BBX 16 16 0 -2
BITMAP
01ff
0000
7c00
44fe
4482
4482
44fe
4482
4482
7cfe
4482
0000
0002
03ff
0000
0000
ENDCHAR
STARTCHAR 09-29
ENCODING 10557
SWIDTH 96 0
DWIDTH 16 0
BBX 16 16 0 -2
BITMAP
03ff
0084
7884
48fc
4884
4884
48fc
4884
4884
7bff
4804
0004
0004
0004
0000
0000
ENDCHAR
STARTCHAR 09-30
ENCODING 10558
SWIDTH 96 0
DWIDTH 16 0
BBX 16 16 0 -2
BITMAP
0010
3c12
25ff
2410
2410
24fe
2400
2402
24ff
3c82
2482
0082
00fe
0082
0000
0000
ENDCHAR
STARTCHAR 09-31
ENCODING 10559
SWIDTH 96 0
DWIDTH 16 0
BBX 16 16 0 -2
BITMAP
0002
01ff
0010
7c20
4444
4482
45fe
4411
4410
7cfe
4410
0010
0010
03ff
0000
0000
ENDCHAR
STARTCHAR 09-32
ENCODING 10560
SWIDTH 96 0
DWIDTH 16 0
BBX 16 16 0 -2
BITMAP
0004
04fe
7e84
44fc
4484
44fc
44a2
44a4
7c98
4490
0088
00a7
01c2
0080
0000
0000
ENDCHAR
STARTCHAR 09-33
ENCODING 10561
SWIDTH 96 0
DWIDTH 16 0
BBX 16 16 0 -2
BITMAP
03ff
0201
7a01
4afd
4a01
4a79
4a49
4a49
4a79
7a49
4a01
0201
0205
0202
0000
0000
ENDCHAR
STARTCHAR 09-34
ENCODING 10562
SWIDTH 96 0
DWIDTH 16 0
BBX 16 16 0 -2
BITMAP
0410
7fff
0410
1000
3fff
4001
0001
0fc1
0841
0841
0fc1
0842
0004
0018
0000
0000
ENDCHAR
STARTCHAR 09-35
ENCODING 10563
SWIDTH 96 0
DWIDTH 16 0
BBX 16 16 0 -2
BITMAP
0090
0090
7892
4a94
4998
4890
4998
4a94
4892
7890
4910
0211
0411
081f
0000
0000
ENDCHAR
STARTCHAR 09-36
ENCODING 10564
SWIDTH 96 0
DWIDTH 16 0
BBX 16 16 0 -2
BITMAP
0120
0120
79fe
4a20
4820
4fff
4820
4870
48a8
7924
4a22
0421
0020
0020
0000
0000
ENDCHAR
STARTCHAR 09-37
ENCODING 10565
SWIDTH 96 0
DWIDTH 16 0
BBX 16 16 0 -2
BITMAP
0080
01ff
7a10
4810
4bfe
4910
4910
4910
7fff
4810
0010
0010
0010
0010
0000
0000
ENDCHAR
STARTCHAR 09-38
ENCODING 10566
SWIDTH 96 0
DWIDTH 16 0
BBX 16 16 0 -2
BITMAP
0004
01f8
7820
4820
4fff
4820
4820
49fc
4904
7904
4904
0104
01fc
0104
0000
0000
ENDCHAR
STARTCHAR 09-39
ENCODING 10567
SWIDTH 96 0
DWIDTH 16 0
BBX 16 16 0 -2
BITMAP
0040
0080
79ff
4a01
4889
4955
4925
4955
498d
7905
49fd
0001
0012
000c
0000
0000
ENDCHAR
STARTCHAR 09-40
ENCODING 10568
SWIDTH 96 0
DWIDTH 16 0
BBX 16 16 0 -2
BITMAP
0020
0424
3e7e
2484
2548
2430
24d2
273f
2442
3cc4
2528
0030
00c0
0300
0000
0000
ENDCHAR
STARTCHAR 09-41
ENCODING 10569
SWIDTH 96 0
DWIDTH 16 0
BBX 16 16 0 -2
BITMAP
0004
1ffe
1004
1ffc
0000
7fff
0808
0ff8
0808
0ff8
0808
7fff
0008
0008
0000
0000
ENDCHAR
STARTCHAR 09-42
ENCODING 10570
SWIDTH 96 0
DWIDTH 16 0
BBX 16 16 0 -2
BITMAP
0420
0420
27be
2420
2420
2421
7fbf
0000
1ffc
1004
1004
1004
1ffc
1004
0000
0000
ENDCHAR
STARTCHAR 09-43
ENCODING 10571
SWIDTH 96 0
DWIDTH 16 0
BBX 16 16 0 -2
BITMAP
0ff8
0808
09f8
0908
0908
3ffe
2002
27f2
2412
2412
27f2
2412
2002
200c
0000
0000
ENDCHAR
STARTCHAR 09-44
ENCODING 10572
SWIDTH 96 0
DWIDTH 16 0
BBX 16 16 0 -2
BITMAP
3e3e
2222
2222
3e3e
0000
0ff8
0000
7fff
0800
0ffc
0004
0004
0008
00f0
0000
0000
ENDCHAR
STARTCHAR 09-45
ENCODING 10573
SWIDTH 96 0
DWIDTH 16 0
BBX 16 16 0 -2
BITMAP
0040
0042
03fc
7848
4850
4fff
48c0
4940
4a40
4c7e
7840
4840
0040
003f
0000
0000
ENDCHAR
STARTCHAR 09-46
ENCODING 10574
SWIDTH 96 0
DWIDTH 16 0
BBX 16 16 0 -2
BITMAP
0048
0048
0048
7d48
454f
4578
4548
4548
4548
7d58
4569
01c9
0307
0400
0000
0000
ENDCHAR
STARTCHAR 09-47
ENCODING 10575
SWIDTH 96 0
DWIDTH 16 0
BBX 16 16 0 -2
BITMAP
0020
0044
0082
7dff
4411
4490
44fe
4490
4510
7c12
45ff
0010
0010
0010
0000
0000
ENDCHAR
STARTCHAR 09-48
ENCODING 10576
SWIDTH 96 0
DWIDTH 16 0
BBX 16 16 0 -2
BITMAP
0100
0100
01ff
7a01
48f9
4889
48f9
4889
48f9
7889
4801
0002
0024
0018
0000
0000
ENDCHAR
STARTCHAR 09-49
ENCODING 10577
SWIDTH 96 0
DWIDTH 16 0
BBX 16 16 0 -2
BITMAP
0010
11ff
1101
1101
7c40
1044
11ff
1044
1444
1828
7010
0028
0044
0383
0000
0000
ENDCHAR
STARTCHAR 09-50
ENCODING 10578
SWIDTH 96 0
DWIDTH 16 0
BBX 16 16 0 -2
BITMAP
0020
27ff
2401
200c
7838
23e0
2040
2040
27fe
2840
3040
6041
0041
007f
0000
0000
ENDCHAR
STARTCHAR 09-51
ENCODING 10579
SWIDTH 96 0
DWIDTH 16 0
BBX 16 16 0 -2
BITMAP
0044
1028
10fe
1010
7c10
10fe
1010
1010
17ff
1810
7010
0010
0010
0010
0000
0000
ENDCHAR
STARTCHAR 09-52
ENCODING 10580
SWIDTH 96 0
DWIDTH 16 0
BBX 16 16 0 -2
BITMAP
0804
0bfe
0820
0848
7e84
09fe
0802
0820
09fe
0e20
7820
2022
07ff
0000
0000
0000
ENDCHAR
STARTCHAR 09-53
ENCODING 10581
SWIDTH 96 0
DWIDTH 16 0
BBX 16 16 0 -2
BITMAP
0802
09ff
0902
097a
7f02
0902
097a
094a
0f4a
797a
2102
0102
010a
0104
0000
0000
ENDCHAR
STARTCHAR 09-54
ENCODING 10582
SWIDTH 96 0
DWIDTH 16 0
BBX 16 16 0 -2
BITMAP
2090
2090
2092
7a94
2198
2090
2198
2294
2892
3090
6110
0211
0411
081f
0000
0000
ENDCHAR
STARTCHAR 09-55
ENCODING 10583
SWIDTH 96 0
DWIDTH 16 0
BBX 16 16 0 -2
BITMAP
2100
23fc
2408
2010
7bff
2200
23fe
2242
2242
2a5c
3240
6241
0441
007f
0000
0000
ENDCHAR
STARTCHAR 09-56
ENCODING 10584
SWIDTH 96 0
DWIDTH 16 0
BBX 16 16 0 -2
BITMAP
0808
08fc
0888
7e88
0888
0b26
0fff
0860
0e70
78a8
2124
0223
0422
0020
0000
0000
ENDCHAR
STARTCHAR 09-57
ENCODING 10585
SWIDTH 96 0
DWIDTH 16 0
BBX 16 16 0 -2
BITMAP
0002
7fff
0220
0220
3ffe
2222
2222
3ffe
0080
0088
1ffc
0080
0082
7fff
0000
0000
ENDCHAR
STARTCHAR 09-58
ENCODING 10586
SWIDTH 96 0
DWIDTH 16 0
BBX 16 16 0 -2
BITMAP
2048
208a
2109
2208
797f
2108
2108
2108
2908
3108
6114
0122
0141
0100
0000
0000
ENDCHAR
STARTCHAR 09-59
ENCODING 10587
SWIDTH 96 0
DWIDTH 16 0
BBX 16 16 0 -2
BITMAP
0010
1010
107e
1012
7dff
1012
107e
1010
14fe
1810
71ff
0010
0010
0010
0000
0000
ENDCHAR
STARTCHAR 09-60
ENCODING 10588
SWIDTH 96 0
DWIDTH 16 0
BBX 16 16 0 -2
BITMAP
1010
1111
1111
1092
7c10
11ff
1048
1048
1448
1848
7049
0089
0109
060f
0000
0000
ENDCHAR
STARTCHAR 09-61
ENCODING 10589
SWIDTH 96 0
DWIDTH 16 0
BBX 16 16 0 -2
BITMAP
0010
1028
1044
1082
7d01
10fe
1000
1000
10fe
1482
1882
7082
00fe
0082
0000
0000
ENDCHAR
STARTCHAR 09-62
ENCODING 10590
SWIDTH 96 0
DWIDTH 16 0
BBX 16 16 0 -2
BITMAP
0080
0080
0ff8
0080
0080
3ffe
0000
0808
0808
3e3e
0808
0808
0808
7f7f
0000
0000
ENDCHAR
STARTCHAR 09-63
ENCODING 10591
SWIDTH 96 0
DWIDTH 16 0
BBX 16 16 0 -2
BITMAP
0002
3ffe
1000
1ffc
1000
17fc
1404
1404
27fc
4040
0ffe
0040
0040
1fff
0000
0000
ENDCHAR
STARTCHAR 09-64
ENCODING 10592
SWIDTH 96 0
DWIDTH 16 0
BBX 16 16 0 -2
BITMAP
0080
7fff
0080
0080
3ffe
0000
1ffc
1004
1004
1ffc
0000
1004
0808
7fff
0000
0000
ENDCHAR
STARTCHAR 09-65
ENCODING 10593
SWIDTH 96 0
DWIDTH 16 0
BBX 16 16 0 -2
BITMAP
0804
0ffe
17f8
2408
47f8
0408
07f8
0200
07f8
0920
10c0
21a0
0618
1807
0000
0000
ENDCHAR
STARTCHAR 09-66
ENCODING 10594
SWIDTH 96 0
DWIDTH 16 0
BBX 16 16 0 -2
BITMAP
0080
7fff
0410
0908
13e4
2442
4a81
0120
067c
0088
0150
0020
0040
0f80
0000
0000
ENDCHAR
STARTCHAR 09-67
ENCODING 10595
SWIDTH 96 0
DWIDTH 16 0
BBX 16 16 0 -2
BITMAP
2001
21fe
2810
2810
7c10
29ff
2810
2810
28fe
2882
2882
1082
6cfe
0082
0000
0000
ENDCHAR
STARTCHAR 09-68
ENCODING 10596
SWIDTH 96 0
DWIDTH 16 0
BBX 16 16 0 -2
BITMAP
2008
2008
227f
2208
7f08
2208
227f
2200
227f
1441
0841
1441
637f
0041
0000
0000
ENDCHAR
STARTCHAR 09-69
ENCODING 10597
SWIDTH 96 0
DWIDTH 16 0
BBX 16 16 0 -2
BITMAP
2000
21ff
2400
2400
7efe
2482
24fe
2482
2482
24fe
1882
1800
25ff
4200
0000
0000
ENDCHAR
STARTCHAR 09-70
ENCODING 10598
SWIDTH 96 0
DWIDTH 16 0
BBX 16 16 0 -2
BITMAP
2006
2005
29ff
2804
7c04
2844
29f4
2845
2846
2844
288d
1103
2801
4401
0000
0000
ENDCHAR
STARTCHAR 09-71
ENCODING 10599
SWIDTH 96 0
DWIDTH 16 0
BBX 16 16 0 -2
BITMAP
2010
21ff
2828
7c44
2882
297d
2800
29ff
2840
287e
2802
1002
2804
4438
0000
0000
ENDCHAR
STARTCHAR 09-72
ENCODING 10600
SWIDTH 96 0
DWIDTH 16 0
BBX 16 16 0 -2
BITMAP
0810
0894
08fe
7e90
1310
1212
13ff
2238
1454
0854
1492
2311
4210
0010
0000
0000
ENDCHAR
STARTCHAR 09-73
ENCODING 10601
SWIDTH 96 0
DWIDTH 16 0
BBX 16 16 0 -2
BITMAP
2010
2090
28fe
2890
7d10
2810
29ff
2848
2848
2848
2848
1089
2909
440f
0000
0000
ENDCHAR
STARTCHAR 09-74
ENCODING 10602
SWIDTH 96 0
DWIDTH 16 0
BBX 16 16 0 -2
BITMAP
2040
20fc
2904
2808
7cff
2880
28fe
28a2
28a2
28bc
28a0
1121
2821
443f
0000
0000
ENDCHAR
STARTCHAR 09-75
ENCODING 10603
SWIDTH 96 0
DWIDTH 16 0
BBX 16 16 0 -2
BITMAP
207e
2044
28a8
2910
7c20
28c8
281f
2821
2852
280c
2808
1010
2820
44c0
0000
0000
ENDCHAR
STARTCHAR 09-76
ENCODING 10604
SWIDTH 96 0
DWIDTH 16 0
BBX 16 16 0 -2
BITMAP
2008
2014
2222
2241
7f00
227e
2200
227e
2242
1442
0842
1442
227e
4142
0000
0000
ENDCHAR
STARTCHAR 09-77
ENCODING 10605
SWIDTH 96 0
DWIDTH 16 0
BBX 16 16 0 -2
BITMAP
2004
2038
29e0
7d00
297e
2900
2900
297e
2942
2942
2a42
1042
287e
4442
0000
0000
ENDCHAR
STARTCHAR 09-78
ENCODING 10606
SWIDTH 96 0
DWIDTH 16 0
BBX 16 16 0 -2
BITMAP
2008
207f
2241
2241
7f20
2222
227f
2222
2222
1414
0808
1414
2222
4141
0000
0000
ENDCHAR
STARTCHAR 09-79
ENCODING 10607
SWIDTH 96 0
DWIDTH 16 0
BBX 16 16 0 -2
BITMAP
2040
2042
29ff
2840
7c40
28fe
2942
2a7e
2842
287e
2842
1042
284a
4484
0000
0000
ENDCHAR
STARTCHAR 09-80
ENCODING 10608
SWIDTH 96 0
DWIDTH 16 0
BBX 16 16 0 -2
BITMAP
21ff
2101
2901
297d
7d01
297d
2945
2945
297d
2945
2901
1101
2905
4502
0000
0000
ENDCHAR
STARTCHAR 09-81
ENCODING 10609
SWIDTH 96 0
DWIDTH 16 0
BBX 16 16 0 -2
BITMAP
2040
2042
28ff
7d08
2808
28fe
2848
2848
2848
29ff
2808
1008
2808
4408
0000
0000
ENDCHAR
STARTCHAR 09-82
ENCODING 10610
SWIDTH 96 0
DWIDTH 16 0
BBX 16 16 0 -2
BITMAP
2040
207e
2842
2884
7d48
2830
2820
287e
28c2
2b42
2842
1042
287e
4442
0000
0000
ENDCHAR
STARTCHAR 09-83
ENCODING 10611
SWIDTH 96 0
DWIDTH 16 0
BBX 16 16 0 -2
BITMAP
23fe
2202
2afa
7e22
2a22
2afa
2aaa
2aaa
2aaa
2aaa
2ab2
1222
2821
4420
0000
0000
ENDCHAR
STARTCHAR 09-84
ENCODING 10612
SWIDTH 96 0
DWIDTH 16 0
BBX 16 16 0 -2
BITMAP
2020
2040
2880
29ff
7d01
297d
2945
2945
297d
2945
2901
1101
2905
4502
0000
0000
ENDCHAR
STARTCHAR 09-85
ENCODING 10613
SWIDTH 96 0
DWIDTH 16 0
BBX 16 16 0 -2
BITMAP
2008
2014
2222
2241
7f00
223e
2208
2208
223e
1408
0808
1408
227f
4100
0000
0000
ENDCHAR
STARTCHAR 09-86
ENCODING 10614
SWIDTH 96 0
DWIDTH 16 0
BBX 16 16 0 -2
BITMAP
7fc1
0801
1f91
3111
0a11
0401
1803
0410
7fff
0410
0220
01c0
0220
7c1f
0000
0000
ENDCHAR
STARTCHAR 09-87
ENCODING 10615
SWIDTH 96 0
DWIDTH 16 0
BBX 16 16 0 -2
BITMAP
0100
1ffc
0104
0614
1018
7e7f
2221
4cc6
0410
7fff
0220
01c0
0220
7c1f
0000
0000
ENDCHAR
STARTCHAR 09-88
ENCODING 10616
SWIDTH 96 0
DWIDTH 16 0
BBX 16 16 0 -2
BITMAP
0100
0080
7fff
4001
4422
0420
1428
0c30
0420
0c30
342c
0821
1021
603f
0000
0000
ENDCHAR
STARTCHAR 09-89
ENCODING 10617
SWIDTH 96 0
DWIDTH 16 0
BBX 16 16 0 -2
BITMAP
1fff
1001
1fff
1000
11fc
1104
11fc
1020
17ff
1421
2425
4422
0020
0020
0000
0000
ENDCHAR
STARTCHAR 09-90
ENCODING 10618
SWIDTH 96 0
DWIDTH 16 0
BBX 16 16 0 -2
BITMAP
0020
1012
11ff
5420
5444
5488
55f2
5424
5448
7c90
4428
0044
0082
0101
0000
0000
ENDCHAR
STARTCHAR 09-91
ENCODING 10619
SWIDTH 96 0
DWIDTH 16 0
BBX 16 16 0 -2
BITMAP
0002
11ff
1000
54fe
5482
5482
54fe
5482
5482
7cfe
4482
0000
0002
03ff
0000
0000
ENDCHAR
STARTCHAR 09-92
ENCODING 10620
SWIDTH 96 0
DWIDTH 16 0
BBX 16 16 0 -2
BITMAP
0002
11ff
1010
1020
5442
54fe
5412
5410
5410
54fe
7c10
4410
0010
01ff
0000
0000
ENDCHAR
STARTCHAR 09-93
ENCODING 10621
SWIDTH 96 0
DWIDTH 16 0
BBX 16 16 0 -2
BITMAP
0040
10fc
1104
5408
54ff
5480
54fe
54a2
54a2
7cac
4520
0221
0021
003f
0000
0000
ENDCHAR
STARTCHAR 09-94
ENCODING 10622
SWIDTH 96 0
DWIDTH 16 0
BBX 16 16 0 -2
BITMAP
1080
1082
11ff
5482
54f2
5492
5492
54f2
5492
5492
7cf2
4402
0014
0008
0000
0000
ENDCHAR
STARTCHAR 10-01
ENCODING 10785
SWIDTH 96 0
DWIDTH 16 0
BBX 16 16 0 -2
BITMAP
0080
2082
3ffe
0000
7fc1
0811
0f91
1091
3111
0a11
0401
0801
7005
0002
0000
0000
ENDCHAR
STARTCHAR 10-02
ENCODING 10786
SWIDTH 96 0
DWIDTH 16 0
BBX 16 16 0 -2
BITMAP
0080
2082
3ffe
0100
03f8
0410
1ffe
1000
17fc
1204
2278
4201
0201
03ff
0000
0000
ENDCHAR
STARTCHAR 10-03
ENCODING 10787
SWIDTH 96 0
DWIDTH 16 0
BBX 16 16 0 -2
BITMAP
0080
2082
2082
3ffe
0080
0100
3ffe
0410
0888
1084
2ffa
4081
0080
1ffc
0000
0000
ENDCHAR
STARTCHAR 10-04
ENCODING 10788
SWIDTH 96 0
DWIDTH 16 0
BBX 16 16 0 -2
BITMAP
0080
2082
3ffe
0400
0ff0
1220
6140
0080
3f7e
0000
1ffc
1004
1ffc
1004
0000
0000
ENDCHAR
STARTCHAR 10-05
ENCODING 10789
SWIDTH 96 0
DWIDTH 16 0
BBX 16 16 0 -2
BITMAP
0080
2082
2082
3ffe
0140
0220
0410
0808
17f4
6003
0ff8
0808
0ff8
0808
0000
0000
ENDCHAR
STARTCHAR 10-06
ENCODING 10790
SWIDTH 96 0
DWIDTH 16 0
BBX 16 16 0 -2
BITMAP
0800
1ffc
7004
1ffc
1000
1ffc
1004
1ffc
1000
0080
2082
2082
3ffe
2002
0000
0000
ENDCHAR
STARTCHAR 10-07
ENCODING 10791
SWIDTH 96 0
DWIDTH 16 0
BBX 16 16 0 -2
BITMAP
0010
11ff
1101
1141
5444
55ff
5444
5444
5444
7c28
4410
0028
0044
0383
0000
0000
ENDCHAR
STARTCHAR 10-08
ENCODING 10792
SWIDTH 96 0
DWIDTH 16 0
BBX 16 16 0 -2
BITMAP
0010
11ff
1010
54fe
5412
55fe
5510
55ff
7c11
4411
002a
0044
0082
0301
0000
0000
ENDCHAR
STARTCHAR 10-09
ENCODING 10793
SWIDTH 96 0
DWIDTH 16 0
BBX 16 16 0 -2
BITMAP
0020
1021
10fe
1024
5428
55ff
5420
5440
54c0
557e
7c40
4440
0040
007f
0000
0000
ENDCHAR
STARTCHAR 10-10
ENCODING 10794
SWIDTH 96 0
DWIDTH 16 0
BBX 16 16 0 -2
BITMAP
01ff
1010
1020
5440
55ff
5529
5529
5529
5529
7d29
4529
0129
0129
0102
0000
0000
ENDCHAR
STARTCHAR 10-11
ENCODING 10795
SWIDTH 96 0
DWIDTH 16 0
BBX 16 16 0 -2
BITMAP
0020
107e
1084
5528
5410
5428
5444
5583
54fe
7c82
4482
0082
00fe
0082
0000
0000
ENDCHAR
STARTCHAR 10-12
ENCODING 10796
SWIDTH 96 0
DWIDTH 16 0
BBX 16 16 0 -2
BITMAP
0010
1028
1044
1082
5501
547c
5400
5400
54fe
5482
7c82
4482
00fe
0082
0000
0000
ENDCHAR
STARTCHAR 10-13
ENCODING 10797
SWIDTH 96 0
DWIDTH 16 0
BBX 16 16 0 -2
BITMAP
0080
2082
3ffe
0000
1ffc
1004
1ffc
1004
1ffc
1002
1024
1118
1208
7c07
0000
0000
ENDCHAR
STARTCHAR 10-14
ENCODING 10798
SWIDTH 96 0
DWIDTH 16 0
BBX 16 16 0 -2
BITMAP
0080
2082
3ffe
0200
7fff
0800
13fc
2204
43fc
0204
03fc
0204
0214
0408
0000
0000
ENDCHAR
STARTCHAR 10-15
ENCODING 10799
SWIDTH 96 0
DWIDTH 16 0
BBX 16 16 0 -2
BITMAP
0008
100a
1009
11ff
5508
5508
55c8
5549
554a
7d4c
4548
0259
04a5
0003
0000
0000
ENDCHAR
STARTCHAR 10-16
ENCODING 10800
SWIDTH 96 0
DWIDTH 16 0
BBX 16 16 0 -2
BITMAP
0ff0
0020
00c6
3d98
0498
1987
6082
1ffc
0ff8
0008
0ff8
0802
0802
07fe
0000
0000
ENDCHAR
STARTCHAR 10-17
ENCODING 10801
SWIDTH 96 0
DWIDTH 16 0
BBX 16 16 0 -2
BITMAP
1044
1044
1028
7cfe
5444
5444
55ff
5c44
1044
1044
1044
1084
1104
1004
0000
0000
ENDCHAR
STARTCHAR 10-18
ENCODING 10802
SWIDTH 96 0
DWIDTH 16 0
BBX 16 16 0 -2
BITMAP
0808
0814
0822
7f41
4900
493e
4900
4900
4b7f
0841
0841
0841
087f
0841
0000
0000
ENDCHAR
STARTCHAR 10-19
ENCODING 10803
SWIDTH 96 0
DWIDTH 16 0
BBX 16 16 0 -2
BITMAP
1044
0888
3ffe
0200
7fff
0804
1082
2081
1ffc
1084
1084
108c
0080
0080
0000
0000
ENDCHAR
STARTCHAR 10-20
ENCODING 10804
SWIDTH 96 0
DWIDTH 16 0
BBX 16 16 0 -2
BITMAP
0400
087c
1004
1f7c
1004
1ffc
0080
0080
3ffe
2082
2082
208a
2084
0080
0000
0000
ENDCHAR
STARTCHAR 10-21
ENCODING 10805
SWIDTH 96 0
DWIDTH 16 0
BBX 16 16 0 -2
BITMAP
2000
223f
7f21
1421
0821
143f
2321
4080
0080
3ffe
2082
208a
2084
0080
0000
0000
ENDCHAR
STARTCHAR 10-22
ENCODING 10806
SWIDTH 96 0
DWIDTH 16 0
BBX 16 16 0 -2
BITMAP
0020
1fff
1202
1104
1088
13fe
1088
1088
17ff
1088
2108
4208
0408
0008
0000
0000
ENDCHAR
STARTCHAR 10-23
ENCODING 10807
SWIDTH 96 0
DWIDTH 16 0
BBX 16 16 0 -2
BITMAP
0020
1fff
1000
1020
13fe
1020
17ff
1008
17ff
1108
2088
4008
0028
0010
0000
0000
ENDCHAR
STARTCHAR 10-24
ENCODING 10808
SWIDTH 96 0
DWIDTH 16 0
BBX 16 16 0 -2
BITMAP
0040
0020
1fff
1000
17ff
1080
1102
13fe
1022
1020
13fe
2020
4020
07ff
0000
0000
ENDCHAR
STARTCHAR 10-25
ENCODING 10809
SWIDTH 96 0
DWIDTH 16 0
BBX 16 16 0 -2
BITMAP
0080
0040
1fff
1000
1110
1110
1110
1110
15df
1510
1510
2511
4511
0fdf
0000
0000
ENDCHAR
STARTCHAR 10-26
ENCODING 10810
SWIDTH 96 0
DWIDTH 16 0
BBX 16 16 0 -2
BITMAP
0080
0040
3fff
2000
2120
2924
2528
2330
2120
2330
2d2c
2221
4421
183f
0000
0000
ENDCHAR
STARTCHAR 10-27
ENCODING 10811
SWIDTH 96 0
DWIDTH 16 0
BBX 16 16 0 -2
BITMAP
0080
0042
1fff
1000
1110
1212
17ff
1a30
1238
1254
2293
2312
4210
0210
0000
0000
ENDCHAR
STARTCHAR 10-28
ENCODING 10812
SWIDTH 96 0
DWIDTH 16 0
BBX 16 16 0 -2
BITMAP
01c0
0220
0410
0be8
1004
67f3
0410
07f0
0220
7fff
0220
0420
1820
0020
0000
0000
ENDCHAR
STARTCHAR 10-29
ENCODING 10813
SWIDTH 96 0
DWIDTH 16 0
BBX 16 16 0 -2
BITMAP
1084
0908
3ffe
0400
7fff
1004
2ffa
4009
1ff8
1000
1ffe
0004
0008
00f0
0000
0000
ENDCHAR
STARTCHAR 10-30
ENCODING 10814
SWIDTH 96 0
DWIDTH 16 0
BBX 16 16 0 -2
BITMAP
03f8
0408
0ff0
0020
7fff
0288
0cd0
3160
0250
0cc8
3147
0642
3940
0080
0000
0000
ENDCHAR
STARTCHAR 10-31
ENCODING 10815
SWIDTH 96 0
DWIDTH 16 0
BBX 16 16 0 -2
BITMAP
17ff
1050
2050
4050
0fff
1451
3451
5451
1491
171f
1401
1401
17ff
1401
0000
0000
ENDCHAR
STARTCHAR 10-32
ENCODING 10816
SWIDTH 96 0
DWIDTH 16 0
BBX 16 16 0 -2
BITMAP
0084
0082
7fff
0080
0888
1088
208f
0180
0080
0800
2882
2841
4809
0ff8
0000
0000
ENDCHAR
STARTCHAR 10-33
ENCODING 10817
SWIDTH 96 0
DWIDTH 16 0
BBX 16 16 0 -2
BITMAP
0820
1120
27fc
6124
2120
2101
21ff
0000
0100
0084
2442
2401
4408
07f8
0000
0000
ENDCHAR
STARTCHAR 10-34
ENCODING 10818
SWIDTH 96 0
DWIDTH 16 0
BBX 16 16 0 -2
BITMAP
1020
1020
17ff
5888
5504
5202
1088
1088
1050
1020
1050
1088
1104
1603
0000
0000
ENDCHAR
STARTCHAR 10-35
ENCODING 10819
SWIDTH 96 0
DWIDTH 16 0
BBX 16 16 0 -2
BITMAP
1104
1088
1050
1bfe
5488
5088
5088
17ff
1088
1088
1108
1208
1408
1008
0000
0000
ENDCHAR
STARTCHAR 10-36
ENCODING 10820
SWIDTH 96 0
DWIDTH 16 0
BBX 16 16 0 -2
BITMAP
1020
17ff
1020
5bfe
5022
57fe
1420
17ff
1021
1021
1052
1088
1104
1603
0000
0000
ENDCHAR
STARTCHAR 10-37
ENCODING 10821
SWIDTH 96 0
DWIDTH 16 0
BBX 16 16 0 -2
BITMAP
1040
1042
13fc
1848
5050
57ff
5040
1080
1140
127e
1440
1040
1040
103f
0000
0000
ENDCHAR
STARTCHAR 10-38
ENCODING 10822
SWIDTH 96 0
DWIDTH 16 0
BBX 16 16 0 -2
BITMAP
11ff
1028
1028
5828
55ff
5129
1129
1149
118f
1101
1101
1101
11ff
1101
0000
0000
ENDCHAR
STARTCHAR 10-39
ENCODING 10823
SWIDTH 96 0
DWIDTH 16 0
BBX 16 16 0 -2
BITMAP
11ff
1100
117f
5908
5508
5108
117f
1108
1108
1108
117f
1100
11ff
1000
0000
0000
ENDCHAR
STARTCHAR 10-40
ENCODING 10824
SWIDTH 96 0
DWIDTH 16 0
BBX 16 16 0 -2
BITMAP
1100
1100
11fe
1900
5500
50ff
5000
11fe
1102
11fe
1102
1102
11fe
1102
0000
0000
ENDCHAR
STARTCHAR 10-41
ENCODING 10825
SWIDTH 96 0
DWIDTH 16 0
BBX 16 16 0 -2
BITMAP
1000
1000
11ff
5901
5501
517d
5145
1145
1145
117d
1101
1101
11ff
1101
0000
0000
ENDCHAR
STARTCHAR 10-42
ENCODING 10826
SWIDTH 96 0
DWIDTH 16 0
BBX 16 16 0 -2
BITMAP
1048
1048
1048
5848
554a
50cc
5048
10cc
134b
1048
1048
1089
1109
120f
0000
0000
ENDCHAR
STARTCHAR 10-43
ENCODING 10827
SWIDTH 96 0
DWIDTH 16 0
BBX 16 16 0 -2
BITMAP
1040
107e
1084
1148
1c30
5020
53c0
103f
1062
11a4
1018
1010
1020
17c0
0000
0000
ENDCHAR
STARTCHAR 10-44
ENCODING 10828
SWIDTH 96 0
DWIDTH 16 0
BBX 16 16 0 -2
BITMAP
0840
0842
08ff
2d02
2a12
29fa
4912
09f2
0912
0912
09f2
0902
0814
0808
0000
0000
ENDCHAR
STARTCHAR 10-45
ENCODING 10829
SWIDTH 96 0
DWIDTH 16 0
BBX 16 16 0 -2
BITMAP
1100
1100
11ff
5a01
5401
528d
1255
1225
1255
128d
13fd
1001
1002
101c
0000
0000
ENDCHAR
STARTCHAR 10-46
ENCODING 10830
SWIDTH 96 0
DWIDTH 16 0
BBX 16 16 0 -2
BITMAP
0408
0808
73ff
1108
1088
1048
1008
1010
0200
0182
2881
2809
4804
0ffc
0000
0000
ENDCHAR
STARTCHAR 10-47
ENCODING 10831
SWIDTH 96 0
DWIDTH 16 0
BBX 16 16 0 -2
BITMAP
1020
1020
17ff
1820
5420
5020
53fe
1000
13fe
1202
1202
1202
13fe
1202
0000
0000
ENDCHAR
STARTCHAR 10-48
ENCODING 10832
SWIDTH 96 0
DWIDTH 16 0
BBX 16 16 0 -2
BITMAP
1088
1088
1108
5a7f
5508
5108
5108
111c
112a
1149
1108
1108
1108
1108
0000
0000
ENDCHAR
STARTCHAR 10-49
ENCODING 10833
SWIDTH 96 0
DWIDTH 16 0
BBX 16 16 0 -2
BITMAP
1020
1040
1080
59ff
5501
517d
5145
1145
1145
117d
1145
1101
1105
1102
0000
0000
ENDCHAR
STARTCHAR 10-50
ENCODING 10834
SWIDTH 96 0
DWIDTH 16 0
BBX 16 16 0 -2
BITMAP
1020
1050
1088
5d04
5202
5401
51fc
1020
1020
11fc
1020
1020
1022
17ff
0000
0000
ENDCHAR
STARTCHAR 10-51
ENCODING 10835
SWIDTH 96 0
DWIDTH 16 0
BBX 16 16 0 -2
BITMAP
0002
1ffc
1000
1ffe
1002
1ffe
1080
10f8
1080
17fc
2404
4404
07fc
0404
0000
0000
ENDCHAR
STARTCHAR 10-52
ENCODING 10836
SWIDTH 96 0
DWIDTH 16 0
BBX 16 16 0 -2
BITMAP
0200
0402
1fff
1002
1ffe
1000
1fff
1801
1bfd
2a05
4a05
4bfd
8a05
0802
0000
0000
ENDCHAR
STARTCHAR 10-53
ENCODING 10837
SWIDTH 96 0
DWIDTH 16 0
BBX 16 16 0 -2
BITMAP
227e
7f28
1410
0828
1444
2282
1ffc
0080
3ffe
0080
7fff
0080
0280
0100
0000
0000
ENDCHAR
STARTCHAR 10-54
ENCODING 10838
SWIDTH 96 0
DWIDTH 16 0
BBX 16 16 0 -2
BITMAP
1020
1012
11ff
7c44
1082
1101
1044
1444
1828
7010
1028
1044
5082
2301
0000
0000
ENDCHAR
STARTCHAR 10-55
ENCODING 10839
SWIDTH 96 0
DWIDTH 16 0
BBX 16 16 0 -2
BITMAP
11ff
1110
7d10
1110
11fe
1102
1502
1902
71fe
1110
1110
1110
51ff
2100
0000
0000
ENDCHAR
STARTCHAR 10-56
ENCODING 10840
SWIDTH 96 0
DWIDTH 16 0
BBX 16 16 0 -2
BITMAP
1020
11ff
7c20
1040
109f
1181
1482
1884
70bf
1084
1084
1084
5094
2088
0000
0000
ENDCHAR
STARTCHAR 10-57
ENCODING 10841
SWIDTH 96 0
DWIDTH 16 0
BBX 16 16 0 -2
BITMAP
0820
0822
0bff
7c50
0888
0d07
1afa
6800
0bfe
0840
08fc
0804
2848
1030
0000
0000
ENDCHAR
STARTCHAR 10-58
ENCODING 10842
SWIDTH 96 0
DWIDTH 16 0
BBX 16 16 0 -2
BITMAP
1002
11ff
7c20
1044
1082
11ff
1401
1810
7010
10fe
1010
1010
5010
21ff
0000
0000
ENDCHAR
STARTCHAR 10-59
ENCODING 10843
SWIDTH 96 0
DWIDTH 16 0
BBX 16 16 0 -2
BITMAP
1004
11fe
7d04
11fc
1104
15fc
1902
3124
5128
1110
1128
1144
5182
2301
0000
0000
ENDCHAR
STARTCHAR 10-60
ENCODING 10844
SWIDTH 96 0
DWIDTH 16 0
BBX 16 16 0 -2
BITMAP
1020
11fe
1022
7c42
108c
1400
1904
37df
5145
1145
1249
1451
5082
230c
0000
0000
ENDCHAR
STARTCHAR 10-61
ENCODING 10845
SWIDTH 96 0
DWIDTH 16 0
BBX 16 16 0 -2
BITMAP
11ff
1101
7d7d
1101
117d
1545
1945
1145
717d
1145
1101
1101
5105
2102
0000
0000
ENDCHAR
STARTCHAR 10-62
ENCODING 10846
SWIDTH 96 0
DWIDTH 16 0
BBX 16 16 0 -2
BITMAP
1040
10fe
1144
7c28
1010
1028
15c7
1800
70fe
1082
1082
1082
50fe
2082
0000
0000
ENDCHAR
STARTCHAR 10-63
ENCODING 10847
SWIDTH 96 0
DWIDTH 16 0
BBX 16 16 0 -2
BITMAP
1020
107e
10c4
7d28
1010
1020
15c8
181f
7021
10d2
100c
1008
1010
33e0
0000
0000
ENDCHAR
STARTCHAR 10-64
ENCODING 10848
SWIDTH 96 0
DWIDTH 16 0
BBX 16 16 0 -2
BITMAP
0892
0924
0892
7e92
0842
0a7f
0c82
18c2
6924
0a14
0808
0810
2860
1180
0000
0000
ENDCHAR
STARTCHAR 10-65
ENCODING 10849
SWIDTH 96 0
DWIDTH 16 0
BBX 16 16 0 -2
BITMAP
100e
1030
11c0
7d0c
1110
1560
1942
7152
1154
1148
1144
1252
5461
20c0
0000
0000
ENDCHAR
STARTCHAR 10-66
ENCODING 10850
SWIDTH 96 0
DWIDTH 16 0
BBX 16 16 0 -2
BITMAP
1020
1010
11ff
7d01
1105
1018
14e0
1820
7020
11ff
1020
1020
5021
203f
0000
0000
ENDCHAR
STARTCHAR 10-67
ENCODING 10851
SWIDTH 96 0
DWIDTH 16 0
BBX 16 16 0 -2
BITMAP
1040
1022
13ff
7c20
1040
1480
1982
72a4
14a8
1090
1088
10a4
50c2
2381
0000
0000
ENDCHAR
STARTCHAR 10-68
ENCODING 10852
SWIDTH 96 0
DWIDTH 16 0
BBX 16 16 0 -2
BITMAP
1010
11ff
7c10
1010
11ff
1511
1911
7010
1038
1054
1092
1311
5010
2010
0000
0000
ENDCHAR
STARTCHAR 10-69
ENCODING 10853
SWIDTH 96 0
DWIDTH 16 0
BBX 16 16 0 -2
BITMAP
1002
13ff
1084
7c84
10fc
1084
1484
18fc
7084
1084
13ff
1004
5004
2004
0000
0000
ENDCHAR
STARTCHAR 10-70
ENCODING 10854
SWIDTH 96 0
DWIDTH 16 0
BBX 16 16 0 -2
BITMAP
1020
1022
11ff
7c40
1040
1090
1510
1a92
7054
1010
1028
1044
5082
2301
0000
0000
ENDCHAR
STARTCHAR 10-71
ENCODING 10855
SWIDTH 96 0
DWIDTH 16 0
BBX 16 16 0 -2
BITMAP
1040
1082
7d04
1338
1108
1108
1508
197f
7108
1108
1108
1108
513e
2100
0000
0000
ENDCHAR
STARTCHAR 10-72
ENCODING 10856
SWIDTH 96 0
DWIDTH 16 0
BBX 16 16 0 -2
BITMAP
1008
1008
1008
1f0f
1008
1008
103e
7e22
4222
4214
4208
4214
7e22
4241
0000
0000
ENDCHAR
STARTCHAR 10-73
ENCODING 10857
SWIDTH 96 0
DWIDTH 16 0
BBX 16 16 0 -2
BITMAP
0010
7f20
417f
4100
7f02
4402
4422
7f22
4414
4408
4414
5522
6341
4141
0000
0000
ENDCHAR
STARTCHAR 10-74
ENCODING 10858
SWIDTH 96 0
DWIDTH 16 0
BBX 16 16 0 -2
BITMAP
2001
2002
3f3c
2120
4120
013f
7d24
4524
4524
7d24
4524
0144
0904
0604
0000
0000
ENDCHAR
STARTCHAR 10-75
ENCODING 10859
SWIDTH 96 0
DWIDTH 16 0
BBX 16 16 0 -2
BITMAP
2020
1020
087f
7e80
103e
1002
1e04
1208
12ff
1208
2208
4208
0228
0c10
0000
0000
ENDCHAR
STARTCHAR 10-76
ENCODING 10860
SWIDTH 96 0
DWIDTH 16 0
BBX 16 16 0 -2
BITMAP
0602
003f
1e22
0222
02a2
3f3e
0b22
0aa2
127e
1242
2220
4218
0a07
0402
0000
0000
ENDCHAR
STARTCHAR 10-77
ENCODING 10861
SWIDTH 96 0
DWIDTH 16 0
BBX 16 16 0 -2
BITMAP
0040
0022
7bff
4800
4810
4820
7844
4888
49f0
4820
4840
7882
4bff
0001
0000
0000
ENDCHAR
STARTCHAR 10-78
ENCODING 10862
SWIDTH 96 0
DWIDTH 16 0
BBX 16 16 0 -2
BITMAP
0090
03fe
7892
4892
4bfe
4a90
7a90
4bff
4891
4891
4891
7916
4a10
0010
0000
0000
ENDCHAR
STARTCHAR 10-79
ENCODING 10863
SWIDTH 96 0
DWIDTH 16 0
BBX 16 16 0 -2
BITMAP
0002
04ff
7e82
4482
44fe
44a0
7ca0
44a0
44be
44a0
7d21
4121
021f
0400
0000
0000
ENDCHAR
STARTCHAR 10-80
ENCODING 10864
SWIDTH 96 0
DWIDTH 16 0
BBX 16 16 0 -2
BITMAP
1ffc
1004
1ffc
1004
1ffc
0000
7fff
0800
1ffe
2222
4442
0882
1114
0008
0000
0000
ENDCHAR
STARTCHAR 10-81
ENCODING 10865
SWIDTH 96 0
DWIDTH 16 0
BBX 16 16 0 -2
BITMAP
0004
1ffe
1004
1ffc
1004
1ffc
0080
7fff
0220
0410
7a2f
0220
0420
0820
0000
0000
ENDCHAR
STARTCHAR 10-82
ENCODING 10866
SWIDTH 96 0
DWIDTH 16 0
BBX 16 16 0 -2
BITMAP
0010
0010
7d11
4511
4511
45ff
7d11
4410
4510
4511
7d11
4511
01ff
0101
0000
0000
ENDCHAR
STARTCHAR 10-83
ENCODING 10867
SWIDTH 96 0
DWIDTH 16 0
BBX 16 16 0 -2
BITMAP
0120
0120
79fe
4a20
4820
4820
7bff
4820
4820
4850
7888
4904
0202
0401
0000
0000
ENDCHAR
STARTCHAR 10-84
ENCODING 10868
SWIDTH 96 0
DWIDTH 16 0
BBX 16 16 0 -2
BITMAP
0040
0040
7c7f
4481
4501
44f9
7c89
4489
44f9
4489
4401
7c01
4402
000c
0000
0000
ENDCHAR
STARTCHAR 10-85
ENCODING 10869
SWIDTH 96 0
DWIDTH 16 0
BBX 16 16 0 -2
BITMAP
1ffc
1004
1ffc
1004
1ffc
0000
7fff
0080
7fff
4081
4141
4631
4005
4002
0000
0000
ENDCHAR
STARTCHAR 10-86
ENCODING 10870
SWIDTH 96 0
DWIDTH 16 0
BBX 16 16 0 -2
BITMAP
0820
0f20
1138
1a24
2420
0b20
10ff
2000
4ff8
0808
0ff8
0808
0ff8
0808
0000
0000
ENDCHAR
STARTCHAR 10-87
ENCODING 10871
SWIDTH 96 0
DWIDTH 16 0
BBX 16 16 0 -2
BITMAP
1ffe
1004
1ffc
1004
1ffc
0200
3c3e
2122
2722
3932
012c
0620
3820
0020
0000
0000
ENDCHAR
STARTCHAR 10-88
ENCODING 10872
SWIDTH 96 0
DWIDTH 16 0
BBX 16 16 0 -2
BITMAP
0040
0020
7800
49e0
4826
4828
7bf0
48a8
4924
4a22
7821
4820
00a0
0040
0000
0000
ENDCHAR
STARTCHAR 10-89
ENCODING 10873
SWIDTH 96 0
DWIDTH 16 0
BBX 16 16 0 -2
BITMAP
1ffc
1004
1ffc
1004
1ffc
0010
0010
7f7f
0811
0811
0a21
0c41
7892
000c
0000
0000
ENDCHAR
STARTCHAR 10-90
ENCODING 10874
SWIDTH 96 0
DWIDTH 16 0
BBX 16 16 0 -2
BITMAP
3f08
2149
2149
2149
3f49
217f
2108
3f08
2149
2149
2149
2149
217f
4341
0000
0000
ENDCHAR
STARTCHAR 10-91
ENCODING 10875
SWIDTH 96 0
DWIDTH 16 0
BBX 16 16 0 -2
BITMAP
0040
1e40
1242
127f
1282
1f02
127a
124a
1e4a
127a
1242
2202
2a0a
4404
0000
0000
ENDCHAR
STARTCHAR 10-92
ENCODING 10876
SWIDTH 96 0
DWIDTH 16 0
BBX 16 16 0 -2
BITMAP
0810
0812
09ff
7f02
0a04
1880
1c88
2a98
28a0
48c0
0881
0881
087f
0800
0000
0000
ENDCHAR
STARTCHAR 10-93
ENCODING 10877
SWIDTH 96 0
DWIDTH 16 0
BBX 16 16 0 -2
BITMAP
1040
1020
1010
7c42
1044
1148
1150
1264
3844
54c2
1140
1240
1441
103f
0000
0000
ENDCHAR
STARTCHAR 10-94
ENCODING 10878
SWIDTH 96 0
DWIDTH 16 0
BBX 16 16 0 -2
BITMAP
1111
1092
1054
7c10
1010
10fe
1010
3810
55ff
1010
1010
1010
1010
1010
0000
0000
ENDCHAR
STARTCHAR 11-01
ENCODING 11041
SWIDTH 96 0
DWIDTH 16 0
BBX 16 16 0 -2
BITMAP
1010
1010
11ff
7c10
1010
10fe
3810
5438
1054
1092
1111
1010
1010
1010
0000
0000
ENDCHAR
STARTCHAR 11-02
ENCODING 11042
SWIDTH 96 0
DWIDTH 16 0
BBX 16 16 0 -2
BITMAP
0804
09fe
0900
7f04
09fe
1904
1d04
2b04
29fc
4904
0900
0902
09ff
0800
0000
0000
ENDCHAR
STARTCHAR 11-03
ENCODING 11043
SWIDTH 96 0
DWIDTH 16 0
BBX 16 16 0 -2
BITMAP
1080
1092
1092
7c92
11ff
1092
1092
3892
5492
109e
1080
1080
1080
10ff
0000
0000
ENDCHAR
STARTCHAR 11-04
ENCODING 11044
SWIDTH 96 0
DWIDTH 16 0
BBX 16 16 0 -2
BITMAP
1002
13ff
1008
7c10
1020
1040
38a8
5724
1023
1020
1020
1020
1020
17ff
0000
0000
ENDCHAR
STARTCHAR 11-05
ENCODING 11045
SWIDTH 96 0
DWIDTH 16 0
BBX 16 16 0 -2
BITMAP
0802
0bff
0840
7e40
0840
1840
1c84
2bfe
2984
4a84
0c84
0884
08fc
0884
0000
0000
ENDCHAR
STARTCHAR 11-06
ENCODING 11046
SWIDTH 96 0
DWIDTH 16 0
BBX 16 16 0 -2
BITMAP
1010
1010
11ff
7d11
1110
117c
1144
3944
5528
1110
1128
1244
1482
1101
0000
0000
ENDCHAR
STARTCHAR 11-07
ENCODING 11047
SWIDTH 96 0
DWIDTH 16 0
BBX 16 16 0 -2
BITMAP
0800
0880
7e80
09ef
18a9
1ca9
2aa9
28a9
4929
0929
0a29
0aaf
0c49
0800
0000
0000
ENDCHAR
STARTCHAR 11-08
ENCODING 11048
SWIDTH 96 0
DWIDTH 16 0
BBX 16 16 0 -2
BITMAP
1000
11fe
7d02
1102
11fe
1100
1140
3940
5540
117e
1240
1441
1041
107f
0000
0000
ENDCHAR
STARTCHAR 11-09
ENCODING 11049
SWIDTH 96 0
DWIDTH 16 0
BBX 16 16 0 -2
BITMAP
1090
13fe
7c92
1092
13fe
1290
3a90
57ff
1091
1091
1091
1116
1210
1010
0000
0000
ENDCHAR
STARTCHAR 11-10
ENCODING 11050
SWIDTH 96 0
DWIDTH 16 0
BBX 16 16 0 -2
BITMAP
0800
087c
0844
7f44
0844
087c
0844
1c44
2a44
497c
0844
0844
0844
09ff
0000
0000
ENDCHAR
STARTCHAR 11-11
ENCODING 11051
SWIDTH 96 0
DWIDTH 16 0
BBX 16 16 0 -2
BITMAP
1010
1010
7cfe
1092
1092
10fe
1092
3892
55ff
1082
1082
1082
108a
1084
0000
0000
ENDCHAR
STARTCHAR 11-12
ENCODING 11052
SWIDTH 96 0
DWIDTH 16 0
BBX 16 16 0 -2
BITMAP
0804
08fe
0884
7e84
08fc
1800
1dff
2a20
2a40
48fe
0802
0804
0824
0818
0000
0000
ENDCHAR
STARTCHAR 11-13
ENCODING 11053
SWIDTH 96 0
DWIDTH 16 0
BBX 16 16 0 -2
BITMAP
1010
1010
1010
7cfe
1092
1092
1092
39ff
5410
1028
1044
1082
1101
1101
0000
0000
ENDCHAR
STARTCHAR 11-14
ENCODING 11054
SWIDTH 96 0
DWIDTH 16 0
BBX 16 16 0 -2
BITMAP
0800
0802
08ff
7e82
1882
1c82
2afe
2a82
4800
0840
0844
0882
0901
0a01
0000
0000
ENDCHAR
STARTCHAR 11-15
ENCODING 11055
SWIDTH 96 0
DWIDTH 16 0
BBX 16 16 0 -2
BITMAP
1002
11ff
1102
7d02
1102
11fe
1048
3848
5448
1048
1048
1089
1109
120f
0000
0000
ENDCHAR
STARTCHAR 11-16
ENCODING 11056
SWIDTH 96 0
DWIDTH 16 0
BBX 16 16 0 -2
BITMAP
1000
1000
11ff
7d29
1129
1129
1129
3949
5589
110f
1101
1101
11ff
1101
0000
0000
ENDCHAR
STARTCHAR 11-17
ENCODING 11057
SWIDTH 96 0
DWIDTH 16 0
BBX 16 16 0 -2
BITMAP
1010
1010
1111
7d11
1111
11ff
1010
3810
5511
1111
1111
1111
11ff
1101
0000
0000
ENDCHAR
STARTCHAR 11-18
ENCODING 11058
SWIDTH 96 0
DWIDTH 16 0
BBX 16 16 0 -2
BITMAP
1010
1090
1090
10fe
7d10
1210
1010
11ff
3810
5410
1028
1044
1082
1101
0000
0000
ENDCHAR
STARTCHAR 11-19
ENCODING 11059
SWIDTH 96 0
DWIDTH 16 0
BBX 16 16 0 -2
BITMAP
1040
1042
10ff
7d00
1010
1090
11fe
3892
5492
1094
1090
1081
1081
10ff
0000
0000
ENDCHAR
STARTCHAR 11-20
ENCODING 11060
SWIDTH 96 0
DWIDTH 16 0
BBX 16 16 0 -2
BITMAP
1040
10fe
1102
7c02
11f2
1112
1112
39f2
5502
111c
1100
1101
1101
11ff
0000
0000
ENDCHAR
STARTCHAR 11-21
ENCODING 11061
SWIDTH 96 0
DWIDTH 16 0
BBX 16 16 0 -2
BITMAP
1000
1022
1042
7c82
11bf
1082
10a2
1092
388a
5482
1082
1082
1082
108c
0000
0000
ENDCHAR
STARTCHAR 11-22
ENCODING 11062
SWIDTH 96 0
DWIDTH 16 0
BBX 16 16 0 -2
BITMAP
1001
1006
11fc
7d00
1148
1148
1148
3948
5548
1148
1144
1152
1269
14c4
0000
0000
ENDCHAR
STARTCHAR 11-23
ENCODING 11063
SWIDTH 96 0
DWIDTH 16 0
BBX 16 16 0 -2
BITMAP
0080
3ffe
01c0
02a0
0498
1807
6ffa
0000
3ffe
0080
0490
088c
1284
0100
0000
0000
ENDCHAR
STARTCHAR 11-24
ENCODING 11064
SWIDTH 96 0
DWIDTH 16 0
BBX 16 16 0 -2
BITMAP
0200
0408
0804
3ffe
0002
0ff8
0808
0ff8
0080
7fff
0490
0888
7087
0080
0000
0000
ENDCHAR
STARTCHAR 11-25
ENCODING 11065
SWIDTH 96 0
DWIDTH 16 0
BBX 16 16 0 -2
BITMAP
1000
1010
1010
7dff
1101
1102
3800
5428
1028
1044
1082
1101
1201
1000
0000
0000
ENDCHAR
STARTCHAR 11-26
ENCODING 11066
SWIDTH 96 0
DWIDTH 16 0
BBX 16 16 0 -2
BITMAP
1010
1010
1012
7dff
1044
1044
1044
3844
5444
1044
1044
1044
1028
11ff
0000
0000
ENDCHAR
STARTCHAR 11-27
ENCODING 11067
SWIDTH 96 0
DWIDTH 16 0
BBX 16 16 0 -2
BITMAP
1024
1022
13ff
7c20
1040
1088
1308
3888
5450
1020
1050
1088
1104
1603
0000
0000
ENDCHAR
STARTCHAR 11-28
ENCODING 11068
SWIDTH 96 0
DWIDTH 16 0
BBX 16 16 0 -2
BITMAP
11ff
1001
1001
7df9
1001
11f9
1109
3909
55f9
1109
1001
1001
1002
101c
0000
0000
ENDCHAR
STARTCHAR 11-29
ENCODING 11069
SWIDTH 96 0
DWIDTH 16 0
BBX 16 16 0 -2
BITMAP
1020
1020
1020
7e3e
1020
1020
1022
38ff
5482
1282
1082
1082
10fe
1082
0000
0000
ENDCHAR
STARTCHAR 11-30
ENCODING 11070
SWIDTH 96 0
DWIDTH 16 0
BBX 16 16 0 -2
BITMAP
1000
10fe
1082
7c82
1082
10fe
1082
3882
5482
10fe
1082
1000
1002
11ff
0000
0000
ENDCHAR
STARTCHAR 11-31
ENCODING 11071
SWIDTH 96 0
DWIDTH 16 0
BBX 16 16 0 -2
BITMAP
1010
1010
11ff
7d11
1111
11ff
1111
3911
55ff
1111
1010
1010
1010
1010
0000
0000
ENDCHAR
STARTCHAR 11-32
ENCODING 11072
SWIDTH 96 0
DWIDTH 16 0
BBX 16 16 0 -2
BITMAP
10fe
1082
1082
7c82
10fe
1020
1020
383f
5421
1021
1041
1081
1322
101c
0000
0000
ENDCHAR
STARTCHAR 11-33
ENCODING 11073
SWIDTH 96 0
DWIDTH 16 0
BBX 16 16 0 -2
BITMAP
1002
10fc
1010
7c10
11ff
1004
1008
3810
5420
1040
1040
1080
1140
113f
0000
0000
ENDCHAR
STARTCHAR 11-34
ENCODING 11074
SWIDTH 96 0
DWIDTH 16 0
BBX 16 16 0 -2
BITMAP
1040
107c
1044
7c84
1128
1010
1028
3844
5493
1108
1024
1010
1008
1004
0000
0000
ENDCHAR
STARTCHAR 11-35
ENCODING 11075
SWIDTH 96 0
DWIDTH 16 0
BBX 16 16 0 -2
BITMAP
0820
0850
0850
7e88
0907
1afa
1c00
2a00
29fc
4804
0808
0850
0820
0810
0000
0000
ENDCHAR
STARTCHAR 11-36
ENCODING 11076
SWIDTH 96 0
DWIDTH 16 0
BBX 16 16 0 -2
BITMAP
1008
1088
109f
7d09
1249
17c9
1049
3889
5509
1249
1249
17d1
1042
100c
0000
0000
ENDCHAR
STARTCHAR 11-37
ENCODING 11077
SWIDTH 96 0
DWIDTH 16 0
BBX 16 16 0 -2
BITMAP
0424
0822
73ff
1020
1010
1009
1007
0080
7fff
02a0
0490
0888
3086
0080
0000
0000
ENDCHAR
STARTCHAR 11-38
ENCODING 11078
SWIDTH 96 0
DWIDTH 16 0
BBX 16 16 0 -2
BITMAP
2020
2020
3f3f
4141
0109
7d0a
4508
4508
7d08
4508
0114
0122
1241
0c81
0000
0000
ENDCHAR
STARTCHAR 11-39
ENCODING 11079
SWIDTH 96 0
DWIDTH 16 0
BBX 16 16 0 -2
BITMAP
0004
00fe
7e84
1084
1efc
1284
2284
3284
4cfc
0484
0884
1084
23ff
4000
0000
0000
ENDCHAR
STARTCHAR 11-40
ENCODING 11080
SWIDTH 96 0
DWIDTH 16 0
BBX 16 16 0 -2
BITMAP
0220
7f50
1050
108c
1f13
1220
2244
3388
4c12
0422
08c4
1008
2030
01c0
0000
0000
ENDCHAR
STARTCHAR 11-41
ENCODING 11081
SWIDTH 96 0
DWIDTH 16 0
BBX 16 16 0 -2
BITMAP
2000
103c
0824
7f24
0825
08c7
0800
083e
7f22
0814
0808
0814
0822
7f41
0000
0000
ENDCHAR
STARTCHAR 11-42
ENCODING 11082
SWIDTH 96 0
DWIDTH 16 0
BBX 16 16 0 -2
BITMAP
0040
124c
1f50
1060
1042
1742
183e
0000
0920
2844
2883
4b09
0c08
33f8
0000
0000
ENDCHAR
STARTCHAR 11-43
ENCODING 11083
SWIDTH 96 0
DWIDTH 16 0
BBX 16 16 0 -2
BITMAP
1ffc
1084
1084
1ffc
1084
1084
1ffc
0000
2040
2040
3f7e
2040
2241
7c7f
0000
0000
ENDCHAR
STARTCHAR 11-44
ENCODING 11084
SWIDTH 96 0
DWIDTH 16 0
BBX 16 16 0 -2
BITMAP
0800
7f3f
0921
1121
2121
4e3f
0010
07e0
0080
0ff8
0080
1ffc
0081
00ff
0000
0000
ENDCHAR
STARTCHAR 11-45
ENCODING 11085
SWIDTH 96 0
DWIDTH 16 0
BBX 16 16 0 -2
BITMAP
0800
1ffe
2000
47e0
0000
7ff8
0408
7fc8
4448
7fc8
4448
7fc9
0405
0403
0000
0000
ENDCHAR
STARTCHAR 11-46
ENCODING 11086
SWIDTH 96 0
DWIDTH 16 0
BBX 16 16 0 -2
BITMAP
0802
0fff
17fc
5ffc
0204
07e4
0844
3684
0104
06c4
3b3c
0085
0605
0183
0000
0000
ENDCHAR
STARTCHAR 11-47
ENCODING 11087
SWIDTH 96 0
DWIDTH 16 0
BBX 16 16 0 -2
BITMAP
4020
3022
17ff
0104
4202
3409
1108
0488
0850
1020
7050
1088
1104
1603
0000
0000
ENDCHAR
STARTCHAR 11-48
ENCODING 11088
SWIDTH 96 0
DWIDTH 16 0
BBX 16 16 0 -2
BITMAP
4104
3088
1050
03fe
4088
3088
1088
07ff
0888
1088
7108
1208
1408
1008
0000
0000
ENDCHAR
STARTCHAR 11-49
ENCODING 11089
SWIDTH 96 0
DWIDTH 16 0
BBX 16 16 0 -2
BITMAP
47ff
3400
1400
05ff
4410
3410
15ff
0410
0c10
15ff
6400
2400
27ff
2400
0000
0000
ENDCHAR
STARTCHAR 11-50
ENCODING 11090
SWIDTH 96 0
DWIDTH 16 0
BBX 16 16 0 -2
BITMAP
4020
37ff
1020
03fe
4022
37fe
1420
07ff
0821
1021
7052
1088
1104
1603
0000
0000
ENDCHAR
STARTCHAR 11-51
ENCODING 11091
SWIDTH 96 0
DWIDTH 16 0
BBX 16 16 0 -2
BITMAP
2020
1824
0bfe
4020
3022
17ff
0820
1024
73fe
1020
1020
1022
17ff
1000
0000
0000
ENDCHAR
STARTCHAR 11-52
ENCODING 11092
SWIDTH 96 0
DWIDTH 16 0
BBX 16 16 0 -2
BITMAP
4020
37ff
1050
0088
4104
32fa
1401
03fe
0880
10fe
7002
1002
1004
1038
0000
0000
ENDCHAR
STARTCHAR 11-53
ENCODING 11093
SWIDTH 96 0
DWIDTH 16 0
BBX 16 16 0 -2
BITMAP
4002
37ff
1050
0050
43fe
3252
2652
0a52
1252
728e
1302
1202
13fe
1202
0000
0000
ENDCHAR
STARTCHAR 11-54
ENCODING 11094
SWIDTH 96 0
DWIDTH 16 0
BBX 16 16 0 -2
BITMAP
4040
3040
17ff
0040
40be
3102
1304
0508
117f
2108
6108
2108
2108
2118
0000
0000
ENDCHAR
STARTCHAR 11-55
ENCODING 11095
SWIDTH 96 0
DWIDTH 16 0
BBX 16 16 0 -2
BITMAP
4110
3110
1110
0110
41df
3510
1510
0510
1510
2510
6511
2511
2511
2fdf
0000
0000
ENDCHAR
STARTCHAR 11-56
ENCODING 11096
SWIDTH 96 0
DWIDTH 16 0
BBX 16 16 0 -2
BITMAP
2200
1200
1202
4fdf
2252
2252
0a52
0a52
1452
7292
1112
129e
1452
1820
0000
0000
ENDCHAR
STARTCHAR 11-57
ENCODING 11097
SWIDTH 96 0
DWIDTH 16 0
BBX 16 16 0 -2
BITMAP
0002
27ff
1402
0c02
44f2
2492
2492
0c92
1492
74f2
1492
1402
17fe
1402
0000
0000
ENDCHAR
STARTCHAR 11-58
ENCODING 11098
SWIDTH 96 0
DWIDTH 16 0
BBX 16 16 0 -2
BITMAP
0020
1924
09fe
4220
2420
2422
0bff
0870
10a8
70a8
1124
1227
1422
1020
0000
0000
ENDCHAR
STARTCHAR 11-59
ENCODING 11099
SWIDTH 96 0
DWIDTH 16 0
BBX 16 16 0 -2
BITMAP
4080
30fe
1104
0288
4450
3020
1040
0480
09fe
7282
1082
1082
10fe
1082
0000
0000
ENDCHAR
STARTCHAR 11-60
ENCODING 11100
SWIDTH 96 0
DWIDTH 16 0
BBX 16 16 0 -2
BITMAP
2080
18fc
0988
4250
2020
24d8
0b27
0820
11fc
7120
1122
13ff
1020
1020
0000
0000
ENDCHAR
STARTCHAR 11-61
ENCODING 11101
SWIDTH 96 0
DWIDTH 16 0
BBX 16 16 0 -2
BITMAP
4080
3088
110a
0309
4508
317f
1108
0508
0908
1108
6108
2114
2122
2141
0000
0000
ENDCHAR
STARTCHAR 11-62
ENCODING 11102
SWIDTH 96 0
DWIDTH 16 0
BBX 16 16 0 -2
BITMAP
4080
3080
11fc
0304
4544
3124
1104
07ff
0904
7144
1124
1104
1104
120c
0000
0000
ENDCHAR
STARTCHAR 11-63
ENCODING 11103
SWIDTH 96 0
DWIDTH 16 0
BBX 16 16 0 -2
BITMAP
4020
37ff
1401
0080
4088
37ff
1088
0488
0888
7050
1020
1050
1088
1707
0000
0000
ENDCHAR
STARTCHAR 11-64
ENCODING 11104
SWIDTH 96 0
DWIDTH 16 0
BBX 16 16 0 -2
BITMAP
4104
3088
1050
03fe
4020
3020
17ff
0020
0820
7050
1088
1104
1202
1401
0000
0000
ENDCHAR
STARTCHAR 11-65
ENCODING 11105
SWIDTH 96 0
DWIDTH 16 0
BBX 16 16 0 -2
BITMAP
2020
1822
0bff
0020
4020
33fe
1000
0400
09fc
7104
1104
1104
11fc
1104
0000
0000
ENDCHAR
STARTCHAR 11-66
ENCODING 11106
SWIDTH 96 0
DWIDTH 16 0
BBX 16 16 0 -2
BITMAP
4040
3042
13fc
0050
47ff
3040
10c0
057e
0a40
107f
7001
1001
1022
101c
0000
0000
ENDCHAR
STARTCHAR 11-67
ENCODING 11107
SWIDTH 96 0
DWIDTH 16 0
BBX 16 16 0 -2
BITMAP
4000
37ff
1040
0088
4104
33fe
1022
0420
0820
13fe
7020
1020
1022
17ff
0000
0000
ENDCHAR
STARTCHAR 11-68
ENCODING 11108
SWIDTH 96 0
DWIDTH 16 0
BBX 16 16 0 -2
BITMAP
4040
3040
17ff
0100
4220
3524
1124
04a8
0820
1050
7088
1104
1202
1401
0000
0000
ENDCHAR
STARTCHAR 11-69
ENCODING 11109
SWIDTH 96 0
DWIDTH 16 0
BBX 16 16 0 -2
BITMAP
4000
33ff
1020
0040
43ff
3249
1249
0649
0a49
1249
7249
1249
1249
1202
0000
0000
ENDCHAR
STARTCHAR 11-70
ENCODING 11110
SWIDTH 96 0
DWIDTH 16 0
BBX 16 16 0 -2
BITMAP
4000
3088
1088
0088
47ff
3489
1489
0489
17ff
6489
2489
2489
27ff
2401
0000
0000
ENDCHAR
STARTCHAR 11-71
ENCODING 11111
SWIDTH 96 0
DWIDTH 16 0
BBX 16 16 0 -2
BITMAP
4002
33ff
1222
4222
33fe
1222
0222
0a22
7252
128a
1306
1202
13fe
1202
0000
0000
ENDCHAR
STARTCHAR 11-72
ENCODING 11112
SWIDTH 96 0
DWIDTH 16 0
BBX 16 16 0 -2
BITMAP
4040
3084
1102
03ff
4021
3120
11fe
0220
0820
17ff
7020
1020
1020
1020
0000
0000
ENDCHAR
STARTCHAR 11-73
ENCODING 11113
SWIDTH 96 0
DWIDTH 16 0
BBX 16 16 0 -2
BITMAP
47fc
3404
1404
07fc
4444
3474
1494
0514
1494
6464
2444
2585
2405
2803
0000
0000
ENDCHAR
STARTCHAR 11-74
ENCODING 11114
SWIDTH 96 0
DWIDTH 16 0
BBX 16 16 0 -2
BITMAP
4100
31fc
1208
0010
41ff
3100
1100
057e
0942
1142
7144
1141
1241
147f
0000
0000
ENDCHAR
STARTCHAR 11-75
ENCODING 11115
SWIDTH 96 0
DWIDTH 16 0
BBX 16 16 0 -2
BITMAP
4100
317f
1211
0611
42ff
3211
1211
027f
0a10
1210
7210
1220
1240
1280
0000
0000
ENDCHAR
STARTCHAR 11-76
ENCODING 11116
SWIDTH 96 0
DWIDTH 16 0
BBX 16 16 0 -2
BITMAP
4001
33fe
1200
0200
43ff
3200
1200
02fe
1282
2282
6282
2482
28fe
2082
0000
0000
ENDCHAR
STARTCHAR 11-77
ENCODING 11117
SWIDTH 96 0
DWIDTH 16 0
BBX 16 16 0 -2
BITMAP
4100
313f
1200
0480
4080
313f
1304
0504
0904
1104
7104
1104
1114
1108
0000
0000
ENDCHAR
STARTCHAR 11-78
ENCODING 11118
SWIDTH 96 0
DWIDTH 16 0
BBX 16 16 0 -2
BITMAP
0820
0812
09ff
2a10
2a10
2c10
4810
08fe
0810
1410
1210
2212
21ff
4000
0000
0000
ENDCHAR
STARTCHAR 11-79
ENCODING 11119
SWIDTH 96 0
DWIDTH 16 0
BBX 16 16 0 -2
BITMAP
0800
0802
08ff
2a82
2a82
2cfe
4882
0882
0882
08fe
1482
1200
2002
41ff
0000
0000
ENDCHAR
STARTCHAR 11-80
ENCODING 11120
SWIDTH 96 0
DWIDTH 16 0
BBX 16 16 0 -2
BITMAP
0802
08ff
2a82
2a82
2c82
2882
48fe
0828
0828
0828
1429
1249
2089
430f
0000
0000
ENDCHAR
STARTCHAR 11-81
ENCODING 11121
SWIDTH 96 0
DWIDTH 16 0
BBX 16 16 0 -2
BITMAP
0080
0120
0210
0408
1ffc
0004
0ff8
0808
0ff8
0084
0890
1140
0630
780f
0000
0000
ENDCHAR
STARTCHAR 11-82
ENCODING 11122
SWIDTH 96 0
DWIDTH 16 0
BBX 16 16 0 -2
BITMAP
0800
1ffc
6004
1f84
1084
1f84
1018
1001
1001
1fff
0000
2222
4222
4221
0000
0000
ENDCHAR
STARTCHAR 11-83
ENCODING 11123
SWIDTH 96 0
DWIDTH 16 0
BBX 16 16 0 -2
BITMAP
1000
13fe
1020
5820
5420
5020
5120
113e
1120
1120
1120
1120
2920
47ff
0000
0000
ENDCHAR
STARTCHAR 11-84
ENCODING 11124
SWIDTH 96 0
DWIDTH 16 0
BBX 16 16 0 -2
BITMAP
1020
1020
13fe
5622
5a22
5222
57ff
1020
1020
1050
2888
2504
4202
4401
0000
0000
ENDCHAR
STARTCHAR 11-85
ENCODING 11125
SWIDTH 96 0
DWIDTH 16 0
BBX 16 16 0 -2
BITMAP
0840
0840
2a7e
2a44
2cc4
2828
4810
0828
0844
0993
1408
1224
2010
400c
0000
0000
ENDCHAR
STARTCHAR 11-86
ENCODING 11126
SWIDTH 96 0
DWIDTH 16 0
BBX 16 16 0 -2
BITMAP
0810
0828
2a44
2a82
2d01
2878
4800
09fe
0802
0804
1488
1250
2020
4010
0000
0000
ENDCHAR
STARTCHAR 11-87
ENCODING 11127
SWIDTH 96 0
DWIDTH 16 0
BBX 16 16 0 -2
BITMAP
22ff
2202
2202
22f2
3e92
0292
0292
7ef2
2292
2202
2202
2202
420a
0204
0000
0000
ENDCHAR
STARTCHAR 11-88
ENCODING 11128
SWIDTH 96 0
DWIDTH 16 0
BBX 16 16 0 -2
BITMAP
2210
2292
2292
2254
3e10
20fe
2010
3e10
23ff
2210
2210
2210
2210
4010
0000
0000
ENDCHAR
STARTCHAR 11-89
ENCODING 11129
SWIDTH 96 0
DWIDTH 16 0
BBX 16 16 0 -2
BITMAP
2202
22ff
2222
2222
2222
3e4a
2084
2000
3efe
2282
2282
2282
22fe
4282
0000
0000
ENDCHAR
STARTCHAR 11-90
ENCODING 11130
SWIDTH 96 0
DWIDTH 16 0
BBX 16 16 0 -2
BITMAP
0810
2813
283c
3dd0
4910
0910
0dff
1831
2851
4891
0911
0a16
0810
0810
0000
0000
ENDCHAR
STARTCHAR 11-91
ENCODING 11131
SWIDTH 96 0
DWIDTH 16 0
BBX 16 16 0 -2
BITMAP
0810
2810
2810
3dff
4911
0911
0d11
19ff
6911
0911
0911
09ff
0901
0800
0000
0000
ENDCHAR
STARTCHAR 11-92
ENCODING 11132
SWIDTH 96 0
DWIDTH 16 0
BBX 16 16 0 -2
BITMAP
0802
28ff
2882
3ea2
2892
488a
09ff
0c82
18a2
2892
488a
08ff
0802
081c
0000
0000
ENDCHAR
STARTCHAR 11-93
ENCODING 11133
SWIDTH 96 0
DWIDTH 16 0
BBX 16 16 0 -2
BITMAP
0448
044f
0bf8
1840
2822
4892
0c8e
0490
07f8
0880
1082
7fff
0080
0080
0000
0000
ENDCHAR
STARTCHAR 11-94
ENCODING 11134
SWIDTH 96 0
DWIDTH 16 0
BBX 16 16 0 -2
BITMAP
1ff8
1008
1ff8
1008
1ff8
1008
1ffa
0081
0080
7fff
0140
0220
0410
380e
0000
0000
ENDCHAR
STARTCHAR 12-01
ENCODING 11297
SWIDTH 96 0
DWIDTH 16 0
BBX 16 16 0 -2
BITMAP
4410
2810
11ff
2810
4410
0410
0cfe
1400
24fe
0482
0482
0482
08fe
3082
0000
0000
ENDCHAR
STARTCHAR 12-02
ENCODING 11298
SWIDTH 96 0
DWIDTH 16 0
BBX 16 16 0 -2
BITMAP
4414
2812
1010
2bff
4410
0490
0c94
17f4
2494
4494
0488
0515
2865
1002
0000
0000
ENDCHAR
STARTCHAR 12-03
ENCODING 11299
SWIDTH 96 0
DWIDTH 16 0
BBX 16 16 0 -2
BITMAP
4440
2842
13fc
2848
4850
0fff
1840
2880
4940
0a7e
0840
0840
5040
207f
0000
0000
ENDCHAR
STARTCHAR 12-04
ENCODING 11300
SWIDTH 96 0
DWIDTH 16 0
BBX 16 16 0 -2
BITMAP
4400
25ff
1800
1800
24fe
4482
0c82
14fe
2482
4482
04fe
0482
0800
31ff
0000
0000
ENDCHAR
STARTCHAR 12-05
ENCODING 11301
SWIDTH 96 0
DWIDTH 16 0
BBX 16 16 0 -2
BITMAP
49ff
2901
1101
297d
4901
097d
1945
2945
4945
097d
0945
0901
5105
2102
0000
0000
ENDCHAR
STARTCHAR 12-06
ENCODING 11302
SWIDTH 96 0
DWIDTH 16 0
BBX 16 16 0 -2
BITMAP
44fe
28aa
10aa
28aa
45ff
04aa
0caa
14aa
25ff
44aa
04aa
04aa
08aa
3086
0000
0000
ENDCHAR
STARTCHAR 12-07
ENCODING 11303
SWIDTH 96 0
DWIDTH 16 0
BBX 16 16 0 -2
BITMAP
4890
5090
2090
5492
0a94
0998
1890
2998
4a94
0c92
0890
0910
1211
641f
0000
0000
ENDCHAR
STARTCHAR 12-08
ENCODING 11304
SWIDTH 96 0
DWIDTH 16 0
BBX 16 16 0 -2
BITMAP
1010
0810
0010
7e54
0892
1111
2010
7c12
0812
1012
1004
2408
7e10
02e0
0000
0000
ENDCHAR
STARTCHAR 12-09
ENCODING 11305
SWIDTH 96 0
DWIDTH 16 0
BBX 16 16 0 -2
BITMAP
0020
7c10
1008
1040
1142
1141
7d45
1149
1050
1460
1840
10c1
6141
063f
0000
0000
ENDCHAR
STARTCHAR 12-10
ENCODING 11306
SWIDTH 96 0
DWIDTH 16 0
BBX 16 16 0 -2
BITMAP
0002
7dff
1004
10f4
1094
1094
7c94
10f4
1094
1404
1804
7004
2014
0008
0000
0000
ENDCHAR
STARTCHAR 12-11
ENCODING 11307
SWIDTH 96 0
DWIDTH 16 0
BBX 16 16 0 -2
BITMAP
0100
7d00
1102
17df
1152
7d52
1152
1152
1d52
7252
225e
0452
0940
0080
0000
0000
ENDCHAR
STARTCHAR 12-12
ENCODING 11308
SWIDTH 96 0
DWIDTH 16 0
BBX 16 16 0 -2
BITMAP
0010
0010
7dff
1111
1111
11ff
7d11
1111
11ff
1511
1810
7010
0010
0010
0000
0000
ENDCHAR
STARTCHAR 12-13
ENCODING 11309
SWIDTH 96 0
DWIDTH 16 0
BBX 16 16 0 -2
BITMAP
0040
7c20
1012
13ff
1020
1020
7c44
1088
11f0
1420
1844
1082
61ff
0001
0000
0000
ENDCHAR
STARTCHAR 12-14
ENCODING 11310
SWIDTH 96 0
DWIDTH 16 0
BBX 16 16 0 -2
BITMAP
0000
7cfe
1010
1092
1092
1054
7c10
11ff
1010
1410
1810
7010
0010
0010
0000
0000
ENDCHAR
STARTCHAR 12-15
ENCODING 11311
SWIDTH 96 0
DWIDTH 16 0
BBX 16 16 0 -2
BITMAP
0044
7c44
1044
11ff
1044
1044
7c44
107c
1044
1444
1844
7044
007c
0044
0000
0000
ENDCHAR
STARTCHAR 12-16
ENCODING 11312
SWIDTH 96 0
DWIDTH 16 0
BBX 16 16 0 -2
BITMAP
0124
0924
7d24
1124
17ff
1124
1124
7d24
1124
113c
1124
1d00
71ff
0100
0000
0000
ENDCHAR
STARTCHAR 12-17
ENCODING 11313
SWIDTH 96 0
DWIDTH 16 0
BBX 16 16 0 -2
BITMAP
0020
0020
7dfe
1040
1080
1104
13fe
7c92
1090
1490
1890
1111
6211
041f
0000
0000
ENDCHAR
STARTCHAR 12-18
ENCODING 11314
SWIDTH 96 0
DWIDTH 16 0
BBX 16 16 0 -2
BITMAP
01ff
7c21
1021
1021
1041
1082
7c1c
1000
11ff
1501
1901
7101
01ff
0101
0000
0000
ENDCHAR
STARTCHAR 12-19
ENCODING 11315
SWIDTH 96 0
DWIDTH 16 0
BBX 16 16 0 -2
BITMAP
0000
7cfc
1084
1084
1084
10fc
7c84
1084
1084
10fc
1484
1884
7084
03ff
0000
0000
ENDCHAR
STARTCHAR 12-20
ENCODING 11316
SWIDTH 96 0
DWIDTH 16 0
BBX 16 16 0 -2
BITMAP
01ff
7d11
1111
11ff
1111
7d11
11ff
1111
1410
1810
7010
0010
0010
0010
0000
0000
ENDCHAR
STARTCHAR 12-21
ENCODING 11317
SWIDTH 96 0
DWIDTH 16 0
BBX 16 16 0 -2
BITMAP
0010
0010
7cfe
1092
1092
10fe
7c92
1092
11ff
1482
1882
7082
008a
0084
0000
0000
ENDCHAR
STARTCHAR 12-22
ENCODING 11318
SWIDTH 96 0
DWIDTH 16 0
BBX 16 16 0 -2
BITMAP
0010
0010
7c20
1044
1082
11ff
1001
7c00
10fe
1082
1482
1882
70fe
0082
0000
0000
ENDCHAR
STARTCHAR 12-23
ENCODING 11319
SWIDTH 96 0
DWIDTH 16 0
BBX 16 16 0 -2
BITMAP
0080
7cfe
1102
1202
11f2
1112
7d12
11f2
1102
151c
1900
7100
0101
01ff
0000
0000
ENDCHAR
STARTCHAR 12-24
ENCODING 11320
SWIDTH 96 0
DWIDTH 16 0
BBX 16 16 0 -2
BITMAP
0040
0080
7d1f
1109
1129
1129
7d29
11e9
102e
1428
1848
7088
0308
0008
0000
0000
ENDCHAR
STARTCHAR 12-25
ENCODING 11321
SWIDTH 96 0
DWIDTH 16 0
BBX 16 16 0 -2
BITMAP
11fe
0840
7e40
107c
1044
1e44
1264
1254
124c
2244
4244
0255
1465
09c7
0000
0000
ENDCHAR
STARTCHAR 12-26
ENCODING 11322
SWIDTH 96 0
DWIDTH 16 0
BBX 16 16 0 -2
BITMAP
0220
0490
0908
7227
07f0
3ffe
0400
07f0
0490
0450
0410
04d1
1f11
000f
0000
0000
ENDCHAR
STARTCHAR 12-27
ENCODING 11323
SWIDTH 96 0
DWIDTH 16 0
BBX 16 16 0 -2
BITMAP
1000
1fff
1211
6211
0421
084e
0000
3ffe
2082
3ffe
2082
3ffe
2082
4086
0000
0000
ENDCHAR
STARTCHAR 12-28
ENCODING 11324
SWIDTH 96 0
DWIDTH 16 0
BBX 16 16 0 -2
BITMAP
0040
0040
7c7f
5481
5501
5479
7c01
5401
547d
5401
7c01
4402
0024
0018
0000
0000
ENDCHAR
STARTCHAR 12-29
ENCODING 11325
SWIDTH 96 0
DWIDTH 16 0
BBX 16 16 0 -2
BITMAP
0004
000e
3ef0
2a80
2afe
2a82
3ea2
2aa4
2a94
2a88
3f14
2114
0222
00c1
0000
0000
ENDCHAR
STARTCHAR 12-30
ENCODING 11326
SWIDTH 96 0
DWIDTH 16 0
BBX 16 16 0 -2
BITMAP
0040
0020
0fff
0800
4801
2bfe
1a08
2a08
4bff
0a08
0a08
1245
2283
4701
0000
0000
ENDCHAR
STARTCHAR 12-31
ENCODING 11327
SWIDTH 96 0
DWIDTH 16 0
BBX 16 16 0 -2
BITMAP
0040
0020
0fff
0800
4a10
2a10
1a10
2bdf
4a10
0a10
0a10
0a51
1291
231f
0000
0000
ENDCHAR
STARTCHAR 12-32
ENCODING 11328
SWIDTH 96 0
DWIDTH 16 0
BBX 16 16 0 -2
BITMAP
7f44
2228
1411
080a
13e4
6223
0c38
0000
07f0
0220
0140
0080
0140
3e3e
0000
0000
ENDCHAR
STARTCHAR 12-33
ENCODING 11329
SWIDTH 96 0
DWIDTH 16 0
BBX 16 16 0 -2
BITMAP
1ffc
0084
3ffc
2080
3fff
0081
0081
0082
1ffc
1224
1224
1224
1224
7fff
0000
0000
ENDCHAR
STARTCHAR 12-34
ENCODING 11330
SWIDTH 96 0
DWIDTH 16 0
BBX 16 16 0 -2
BITMAP
0420
7e20
4422
45ff
7d22
4624
4420
7c30
4450
4450
7c91
4491
0111
060f
0000
0000
ENDCHAR
STARTCHAR 12-35
ENCODING 11331
SWIDTH 96 0
DWIDTH 16 0
BBX 16 16 0 -2
BITMAP
0004
79fe
4800
4800
7802
4bff
4810
7810
4820
4840
4884
7902
4bff
0001
0000
0000
ENDCHAR
STARTCHAR 12-36
ENCODING 11332
SWIDTH 96 0
DWIDTH 16 0
BBX 16 16 0 -2
BITMAP
01ff
7c10
4490
4492
7c9f
4492
4492
7cfe
4402
4402
7c02
4422
0014
0008
0000
0000
ENDCHAR
STARTCHAR 12-37
ENCODING 11333
SWIDTH 96 0
DWIDTH 16 0
BBX 16 16 0 -2
BITMAP
0001
79fe
4900
4900
797e
4942
4942
7924
4918
4918
4a24
7c42
4881
0101
0000
0000
ENDCHAR
STARTCHAR 12-38
ENCODING 11334
SWIDTH 96 0
DWIDTH 16 0
BBX 16 16 0 -2
BITMAP
0004
79f8
4820
4820
7bfe
4820
4820
7fff
4820
4820
4820
7821
4821
003f
0000
0000
ENDCHAR
STARTCHAR 12-39
ENCODING 11335
SWIDTH 96 0
DWIDTH 16 0
BBX 16 16 0 -2
BITMAP
0100
7900
49ff
4a01
7801
48f1
4801
7801
49f9
4801
4801
7801
4802
001c
0000
0000
ENDCHAR
STARTCHAR 12-40
ENCODING 11336
SWIDTH 96 0
DWIDTH 16 0
BBX 16 16 0 -2
BITMAP
0050
0088
7904
4a02
4c01
79fc
4820
4840
78fe
4802
4802
4804
7808
4870
0000
0000
ENDCHAR
STARTCHAR 12-41
ENCODING 11337
SWIDTH 96 0
DWIDTH 16 0
BBX 16 16 0 -2
BITMAP
0001
7cfe
4440
4440
7c7f
4444
4444
7c44
4444
4484
7d04
4404
0004
0004
0000
0000
ENDCHAR
STARTCHAR 12-42
ENCODING 11338
SWIDTH 96 0
DWIDTH 16 0
BBX 16 16 0 -2
BITMAP
1022
11f2
1e22
2822
49e2
0922
7f02
0912
09fa
1412
1212
2212
40a2
0042
0000
0000
ENDCHAR
STARTCHAR 12-43
ENCODING 11339
SWIDTH 96 0
DWIDTH 16 0
BBX 16 16 0 -2
BITMAP
2001
2002
3f7c
2808
4808
0808
087f
7f08
0808
0808
0808
1414
2222
4141
0000
0000
ENDCHAR
STARTCHAR 12-44
ENCODING 11340
SWIDTH 96 0
DWIDTH 16 0
BBX 16 16 0 -2
BITMAP
0008
0008
7f7f
0408
0808
1008
3f7f
5108
1108
1108
1114
1f22
1141
0081
0000
0000
ENDCHAR
STARTCHAR 12-45
ENCODING 11341
SWIDTH 96 0
DWIDTH 16 0
BBX 16 16 0 -2
BITMAP
0202
7f7f
0804
0844
1084
1eff
3214
5214
1224
1244
1284
1f04
1214
0008
0000
0000
ENDCHAR
STARTCHAR 12-46
ENCODING 11342
SWIDTH 96 0
DWIDTH 16 0
BBX 16 16 0 -2
BITMAP
0010
0290
7f90
0892
109f
10f0
1e90
3290
5290
1290
1290
12b1
1ed1
128f
0000
0000
ENDCHAR
STARTCHAR 12-47
ENCODING 11343
SWIDTH 96 0
DWIDTH 16 0
BBX 16 16 0 -2
BITMAP
0010
0010
7e10
0812
11fc
2038
7c38
2454
2493
2512
3c10
2410
0050
0020
0000
0000
ENDCHAR
STARTCHAR 12-48
ENCODING 11344
SWIDTH 96 0
DWIDTH 16 0
BBX 16 16 0 -2
BITMAP
0000
03ff
7c82
1084
1088
3cbf
6481
24a1
24a2
2494
3c88
2514
0222
00c1
0000
0000
ENDCHAR
STARTCHAR 12-49
ENCODING 11345
SWIDTH 96 0
DWIDTH 16 0
BBX 16 16 0 -2
BITMAP
0028
0044
7c82
1101
1000
20fe
7c22
2422
2422
2422
2422
3c42
2494
0008
0000
0000
ENDCHAR
STARTCHAR 12-50
ENCODING 11346
SWIDTH 96 0
DWIDTH 16 0
BBX 16 16 0 -2
BITMAP
0010
0028
7c44
2082
2101
2044
3c44
6444
2444
2444
2444
3c44
2484
0004
0000
0000
ENDCHAR
STARTCHAR 12-51
ENCODING 11347
SWIDTH 96 0
DWIDTH 16 0
BBX 16 16 0 -2
BITMAP
0080
3ffe
0080
1ffc
0080
3ffe
0080
7fff
0200
07fc
1408
6408
07f8
0408
0000
0000
ENDCHAR
STARTCHAR 12-52
ENCODING 11348
SWIDTH 96 0
DWIDTH 16 0
BBX 16 16 0 -2
BITMAP
0000
00fe
7c82
10a2
1092
3c8a
65ff
2482
2482
2482
3c82
2482
008a
0104
0000
0000
ENDCHAR
STARTCHAR 12-53
ENCODING 11349
SWIDTH 96 0
DWIDTH 16 0
BBX 16 16 0 -2
BITMAP
007c
0044
7e44
1084
1107
3c00
64fe
2444
2428
2410
3c28
2444
0082
0301
0000
0000
ENDCHAR
STARTCHAR 12-54
ENCODING 11350
SWIDTH 96 0
DWIDTH 16 0
BBX 16 16 0 -2
BITMAP
1020
0810
00ff
7e20
0420
083e
1c22
2a22
4822
0842
0882
0802
0814
0808
0000
0000
ENDCHAR
STARTCHAR 12-55
ENCODING 11351
SWIDTH 96 0
DWIDTH 16 0
BBX 16 16 0 -2
BITMAP
0808
0408
0008
7e7f
0449
0849
1c49
2a7f
4849
0808
0808
0808
0808
0808
0000
0000
ENDCHAR
STARTCHAR 12-56
ENCODING 11352
SWIDTH 96 0
DWIDTH 16 0
BBX 16 16 0 -2
BITMAP
107c
0844
0044
7c44
0884
1107
3000
58fe
1444
1028
1010
1028
1044
1383
0000
0000
ENDCHAR
STARTCHAR 12-57
ENCODING 11353
SWIDTH 96 0
DWIDTH 16 0
BBX 16 16 0 -2
BITMAP
1000
0804
01fe
7e20
0420
0822
1dff
2a20
4a50
0850
0888
0904
0a07
0c02
0000
0000
ENDCHAR
STARTCHAR 12-58
ENCODING 11354
SWIDTH 96 0
DWIDTH 16 0
BBX 16 16 0 -2
BITMAP
2010
1028
0044
7c82
0901
0800
1044
3844
5444
1044
1044
1084
1104
1004
0000
0000
ENDCHAR
STARTCHAR 12-59
ENCODING 11355
SWIDTH 96 0
DWIDTH 16 0
BBX 16 16 0 -2
BITMAP
0710
3910
0910
0910
7f10
09de
1910
1d10
2b10
4910
0950
0991
0911
080f
0000
0000
ENDCHAR
STARTCHAR 12-60
ENCODING 11356
SWIDTH 96 0
DWIDTH 16 0
BBX 16 16 0 -2
BITMAP
0410
0e10
7810
0812
08ff
7f92
1c92
1a92
2afe
2892
4810
0810
0810
0810
0000
0000
ENDCHAR
STARTCHAR 12-61
ENCODING 11357
SWIDTH 96 0
DWIDTH 16 0
BBX 16 16 0 -2
BITMAP
0808
70f0
1020
1020
7dfc
1020
1020
39fe
5420
1020
1020
1021
1021
103f
0000
0000
ENDCHAR
STARTCHAR 12-62
ENCODING 11358
SWIDTH 96 0
DWIDTH 16 0
BBX 16 16 0 -2
BITMAP
0801
71fe
1110
1110
7d10
1110
11ff
3910
5510
1110
1110
1149
1185
1303
0000
0000
ENDCHAR
STARTCHAR 12-63
ENCODING 11359
SWIDTH 96 0
DWIDTH 16 0
BBX 16 16 0 -2
BITMAP
0844
7082
1101
1000
7c00
11fe
1022
3822
5422
1022
1042
1082
1104
1018
0000
0000
ENDCHAR
STARTCHAR 12-64
ENCODING 11360
SWIDTH 96 0
DWIDTH 16 0
BBX 16 16 0 -2
BITMAP
0100
0080
3fff
2411
488a
0080
7fff
0080
1084
1084
1ffc
0081
0081
007f
0000
0000
ENDCHAR
STARTCHAR 12-65
ENCODING 11361
SWIDTH 96 0
DWIDTH 16 0
BBX 16 16 0 -2
BITMAP
0080
7fff
4411
4809
0020
07c0
0080
0080
7fff
0080
0140
0220
0410
380e
0000
0000
ENDCHAR
STARTCHAR 12-66
ENCODING 11362
SWIDTH 96 0
DWIDTH 16 0
BBX 16 16 0 -2
BITMAP
2020
1020
09ff
0020
7e40
2488
2508
2410
2410
2420
2444
1882
7eff
0001
0000
0000
ENDCHAR
STARTCHAR 12-67
ENCODING 11363
SWIDTH 96 0
DWIDTH 16 0
BBX 16 16 0 -2
BITMAP
1010
1010
3f3f
4848
0404
0080
0080
7fff
0800
0800
0800
0800
0800
0ffc
0000
0000
ENDCHAR
STARTCHAR 12-68
ENCODING 11364
SWIDTH 96 0
DWIDTH 16 0
BBX 16 16 0 -2
BITMAP
1010
1010
3f3f
4848
0404
0000
0004
3ffe
0080
0080
0080
0080
0082
7fff
0000
0000
ENDCHAR
STARTCHAR 12-69
ENCODING 11365
SWIDTH 96 0
DWIDTH 16 0
BBX 16 16 0 -2
BITMAP
0810
4920
2a7f
1c80
0800
7f3e
0802
1c04
2a08
4910
0821
0841
087f
0800
0000
0000
ENDCHAR
STARTCHAR 12-70
ENCODING 11366
SWIDTH 96 0
DWIDTH 16 0
BBX 16 16 0 -2
BITMAP
11fc
5444
5444
3844
1044
7dfc
1044
3844
5444
1044
1044
1085
1105
1207
0000
0000
ENDCHAR
STARTCHAR 12-71
ENCODING 11367
SWIDTH 96 0
DWIDTH 16 0
BBX 16 16 0 -2
BITMAP
0820
4920
2a22
1c22
08ff
7f22
0822
0822
1c14
2a08
4914
0822
0841
0881
0000
0000
ENDCHAR
STARTCHAR 12-72
ENCODING 11368
SWIDTH 96 0
DWIDTH 16 0
BBX 16 16 0 -2
BITMAP
0802
4902
2a02
1c7f
0802
7f02
0822
0812
1c0a
2a02
4902
0802
080a
0804
0000
0000
ENDCHAR
STARTCHAR 12-73
ENCODING 11369
SWIDTH 96 0
DWIDTH 16 0
BBX 16 16 0 -2
BITMAP
1008
5408
5408
39ff
1008
7c88
1088
3848
5428
1010
1028
1044
1082
1301
0000
0000
ENDCHAR
STARTCHAR 12-74
ENCODING 11370
SWIDTH 96 0
DWIDTH 16 0
BBX 16 16 0 -2
BITMAP
0801
497e
2a08
1c08
0808
7f7f
0808
1c08
2a08
4908
0808
0808
0808
0808
0000
0000
ENDCHAR
STARTCHAR 12-75
ENCODING 11371
SWIDTH 96 0
DWIDTH 16 0
BBX 16 16 0 -2
BITMAP
0801
0849
1049
2249
7c49
0849
1249
7e49
0949
1c49
2a49
4889
0801
0801
0000
0000
ENDCHAR
STARTCHAR 12-76
ENCODING 11372
SWIDTH 96 0
DWIDTH 16 0
BBX 16 16 0 -2
BITMAP
0840
1040
1248
25fc
7c48
0848
1068
2058
7e48
2089
0e89
7109
2109
0207
0000
0000
ENDCHAR
STARTCHAR 12-77
ENCODING 11373
SWIDTH 96 0
DWIDTH 16 0
BBX 16 16 0 -2
BITMAP
1000
1002
2002
4a42
7a22
1212
2104
4488
7c50
1220
3850
5488
1104
1203
0000
0000
ENDCHAR
STARTCHAR 12-78
ENCODING 11374
SWIDTH 96 0
DWIDTH 16 0
BBX 16 16 0 -2
BITMAP
0004
1ffe
1224
1224
1ffc
0000
7fff
0040
0080
0180
02b0
0c8c
3082
0080
0000
0000
ENDCHAR
STARTCHAR 12-79
ENCODING 11375
SWIDTH 96 0
DWIDTH 16 0
BBX 16 16 0 -2
BITMAP
0410
0220
3ffe
0080
3ffe
0080
7fff
0400
0ff0
3020
0040
00c0
0120
7e1f
0000
0000
ENDCHAR
STARTCHAR 12-80
ENCODING 11376
SWIDTH 96 0
DWIDTH 16 0
BBX 16 16 0 -2
BITMAP
0100
7fff
0220
0410
0808
7417
0220
1ffc
0080
1ffc
0080
7fff
0080
0080
0000
0000
ENDCHAR
STARTCHAR 12-81
ENCODING 11377
SWIDTH 96 0
DWIDTH 16 0
BBX 16 16 0 -2
BITMAP
7700
117f
1108
5508
5508
3308
1108
3308
5508
1108
1108
110a
557f
2200
0000
0000
ENDCHAR
STARTCHAR 12-82
ENCODING 11378
SWIDTH 96 0
DWIDTH 16 0
BBX 16 16 0 -2
BITMAP
0120
0140
1ff8
0100
7fff
0480
0900
13fe
2402
49f2
0112
01f2
0004
0038
0000
0000
ENDCHAR
STARTCHAR 12-83
ENCODING 11379
SWIDTH 96 0
DWIDTH 16 0
BBX 16 16 0 -2
BITMAP
0002
7fff
0100
7fff
4221
4221
4225
4082
0080
7fff
0220
0410
0808
7007
0000
0000
ENDCHAR
STARTCHAR 12-84
ENCODING 11380
SWIDTH 96 0
DWIDTH 16 0
BBX 16 16 0 -2
BITMAP
7f02
0802
0804
1008
7f30
5502
5504
5508
5531
5501
5502
5504
5508
4230
0000
0000
ENDCHAR
STARTCHAR 12-85
ENCODING 11381
SWIDTH 96 0
DWIDTH 16 0
BBX 16 16 0 -2
BITMAP
0800
08fe
7f04
0808
3e10
0810
7f12
19ff
1c10
2a10
2a10
4810
0850
0820
0000
0000
ENDCHAR
STARTCHAR 12-86
ENCODING 11382
SWIDTH 96 0
DWIDTH 16 0
BBX 16 16 0 -2
BITMAP
0080
7fff
0140
0220
0410
1ffc
6413
07f0
0410
07f0
0410
07fe
3c10
0010
0000
0000
ENDCHAR
STARTCHAR 12-87
ENCODING 11383
SWIDTH 96 0
DWIDTH 16 0
BBX 16 16 0 -2
BITMAP
3c10
2410
25ff
2400
3c10
2420
2442
3c84
25f8
2410
2420
2442
25ff
4c01
0000
0000
ENDCHAR
STARTCHAR 12-88
ENCODING 11384
SWIDTH 96 0
DWIDTH 16 0
BBX 16 16 0 -2
BITMAP
3c48
2448
25ff
2449
3c49
25ff
2548
3d48
25ff
2449
2449
2489
250a
4c08
0000
0000
ENDCHAR
STARTCHAR 12-89
ENCODING 11385
SWIDTH 96 0
DWIDTH 16 0
BBX 16 16 0 -2
BITMAP
3c10
2410
24fe
3c10
2410
2410
25ff
3c10
2410
2420
2444
2482
25ff
4c01
0000
0000
ENDCHAR
STARTCHAR 12-90
ENCODING 11386
SWIDTH 96 0
DWIDTH 16 0
BBX 16 16 0 -2
BITMAP
3e00
227f
2241
3e41
2241
227f
3e41
2200
2200
2222
2222
2222
4a42
0481
0000
0000
ENDCHAR
STARTCHAR 12-91
ENCODING 11387
SWIDTH 96 0
DWIDTH 16 0
BBX 16 16 0 -2
BITMAP
3c24
2422
25ff
3c20
2444
2484
3d04
2444
2428
2410
2428
2444
4482
0901
0000
0000
ENDCHAR
STARTCHAR 12-92
ENCODING 11388
SWIDTH 96 0
DWIDTH 16 0
BBX 16 16 0 -2
BITMAP
0010
1e10
1212
12ff
1e92
1292
12fe
1e92
1292
12fe
1292
2210
2a10
4410
0000
0000
ENDCHAR
STARTCHAR 12-93
ENCODING 11389
SWIDTH 96 0
DWIDTH 16 0
BBX 16 16 0 -2
BITMAP
3f08
2149
2149
2149
3f49
217f
2108
3f08
2149
2149
2149
2149
217f
4341
0000
0000
ENDCHAR
STARTCHAR 12-94
ENCODING 11390
SWIDTH 96 0
DWIDTH 16 0
BBX 16 16 0 -2
BITMAP
3c10
2490
24fe
2510
3c10
2410
25ff
3c10
2410
2410
2428
2444
2482
4d01
0000
0000
ENDCHAR
STARTCHAR 13-01
ENCODING 11553
SWIDTH 96 0
DWIDTH 16 0
BBX 16 16 0 -2
BITMAP
3c40
2480
25ff
2400
3c10
2490
2490
3dff
2492
2492
2490
2481
2481
4cff
0000
0000
ENDCHAR
STARTCHAR 13-02
ENCODING 11554
SWIDTH 96 0
DWIDTH 16 0
BBX 16 16 0 -2
BITMAP
0040
1e40
1242
127f
1ea0
1324
123e
1e20
1222
123f
1220
2220
2a20
4420
0000
0000
ENDCHAR
STARTCHAR 13-03
ENCODING 11555
SWIDTH 96 0
DWIDTH 16 0
BBX 16 16 0 -2
BITMAP
0410
3e10
2490
2490
3cfe
2510
2610
2410
3cfe
2410
2410
2412
25ff
4c00
0000
0000
ENDCHAR
STARTCHAR 13-04
ENCODING 11556
SWIDTH 96 0
DWIDTH 16 0
BBX 16 16 0 -2
BITMAP
3e40
2240
227f
2281
3e01
227d
2245
3e45
227d
2245
2201
2201
2202
440c
0000
0000
ENDCHAR
STARTCHAR 13-05
ENCODING 11557
SWIDTH 96 0
DWIDTH 16 0
BBX 16 16 0 -2
BITMAP
3e22
2222
2242
2282
3e5f
2242
2252
3e4a
2242
2242
2242
2242
224a
4644
0000
0000
ENDCHAR
STARTCHAR 13-06
ENCODING 11558
SWIDTH 96 0
DWIDTH 16 0
BBX 16 16 0 -2
BITMAP
3e08
2210
2220
227f
3e41
2241
2241
3e7f
2241
2241
2241
2241
227f
4641
0000
0000
ENDCHAR
STARTCHAR 13-07
ENCODING 11559
SWIDTH 96 0
DWIDTH 16 0
BBX 16 16 0 -2
BITMAP
3c10
2410
2411
25fe
3d10
2510
25ff
3c11
2431
2451
2491
2516
2410
4c10
0000
0000
ENDCHAR
STARTCHAR 13-08
ENCODING 11560
SWIDTH 96 0
DWIDTH 16 0
BBX 16 16 0 -2
BITMAP
0020
1e20
1250
128c
1f13
1220
1288
1e10
1222
12c4
1208
2210
2a60
4580
0000
0000
ENDCHAR
STARTCHAR 13-09
ENCODING 11561
SWIDTH 96 0
DWIDTH 16 0
BBX 16 16 0 -2
BITMAP
0010
3c10
2410
24fe
3c92
2492
2492
3dff
2410
2410
2428
2444
2482
4d01
0000
0000
ENDCHAR
STARTCHAR 13-10
ENCODING 11562
SWIDTH 96 0
DWIDTH 16 0
BBX 16 16 0 -2
BITMAP
0004
1e0e
12f0
1288
1ea8
12a8
12a8
1ea8
12a4
12a4
12aa
2aba
2529
4200
0000
0000
ENDCHAR
STARTCHAR 13-11
ENCODING 11563
SWIDTH 96 0
DWIDTH 16 0
BBX 16 16 0 -2
BITMAP
0004
1ff8
0080
0080
7fff
0080
1080
208e
6082
2082
3c9e
2082
2082
3ffe
0000
0000
ENDCHAR
STARTCHAR 13-12
ENCODING 11564
SWIDTH 96 0
DWIDTH 16 0
BBX 16 16 0 -2
BITMAP
0800
1004
3efe
3210
2a10
2a10
7e10
2210
3210
2a10
2a10
2212
2bff
4400
0000
0000
ENDCHAR
STARTCHAR 13-13
ENCODING 11565
SWIDTH 96 0
DWIDTH 16 0
BBX 16 16 0 -2
BITMAP
0080
1084
1084
1ffc
0080
0100
0808
4949
4949
7f7f
0808
0808
1010
2020
0000
0000
ENDCHAR
STARTCHAR 13-14
ENCODING 11566
SWIDTH 96 0
DWIDTH 16 0
BBX 16 16 0 -2
BITMAP
0410
0410
7fff
0410
0080
0084
3ffe
0410
0410
0410
0410
0410
0412
7fff
0000
0000
ENDCHAR
STARTCHAR 13-15
ENCODING 11567
SWIDTH 96 0
DWIDTH 16 0
BBX 16 16 0 -2
BITMAP
0410
0410
7fff
0410
0000
0080
0440
2420
2484
2482
4501
0600
0604
19fc
0000
0000
ENDCHAR
STARTCHAR 13-16
ENCODING 11568
SWIDTH 96 0
DWIDTH 16 0
BBX 16 16 0 -2
BITMAP
0220
0222
7fff
0220
0004
3ffe
0888
0490
0082
7fff
0080
0080
0080
0080
0000
0000
ENDCHAR
STARTCHAR 13-17
ENCODING 11569
SWIDTH 96 0
DWIDTH 16 0
BBX 16 16 0 -2
BITMAP
0410
7f7f
0410
0104
0102
7fff
0200
0420
0820
3140
0080
0140
0220
3c1e
0000
0000
ENDCHAR
STARTCHAR 13-18
ENCODING 11570
SWIDTH 96 0
DWIDTH 16 0
BBX 16 16 0 -2
BITMAP
0410
7fff
0410
1ffe
1002
1002
1ffe
1000
1200
1200
13fc
1201
2201
43ff
0000
0000
ENDCHAR
STARTCHAR 13-19
ENCODING 11571
SWIDTH 96 0
DWIDTH 16 0
BBX 16 16 0 -2
BITMAP
0410
7f7f
0410
0420
3ffc
0424
3ffc
2420
3fff
0421
0421
0422
082c
1020
0000
0000
ENDCHAR
STARTCHAR 13-20
ENCODING 11572
SWIDTH 96 0
DWIDTH 16 0
BBX 16 16 0 -2
BITMAP
0220
0222
7fff
0220
3ffc
0104
0248
0c28
3010
0ff8
0808
0808
0ff8
0808
0000
0000
ENDCHAR
STARTCHAR 13-21
ENCODING 11573
SWIDTH 96 0
DWIDTH 16 0
BBX 16 16 0 -2
BITMAP
0220
7fff
0220
0082
7fff
0100
0220
0410
0ff8
0248
0240
0442
0842
303e
0000
0000
ENDCHAR
STARTCHAR 13-22
ENCODING 11574
SWIDTH 96 0
DWIDTH 16 0
BBX 16 16 0 -2
BITMAP
0220
0222
7fff
0220
02a0
0084
00fe
0080
0088
0ffc
0808
0808
0ff8
0808
0000
0000
ENDCHAR
STARTCHAR 13-23
ENCODING 11575
SWIDTH 96 0
DWIDTH 16 0
BBX 16 16 0 -2
BITMAP
0410
7fff
0410
0080
0080
0080
3ffe
2082
2082
3ffe
2082
2082
3ffe
2002
0000
0000
ENDCHAR
STARTCHAR 13-24
ENCODING 11576
SWIDTH 96 0
DWIDTH 16 0
BBX 16 16 0 -2
BITMAP
0220
0222
7fff
0220
0000
07f0
0410
07f0
0410
0410
07f0
0410
0412
7fff
0000
0000
ENDCHAR
STARTCHAR 13-25
ENCODING 11577
SWIDTH 96 0
DWIDTH 16 0
BBX 16 16 0 -2
BITMAP
0410
7fff
0410
0000
7fff
4001
4081
4081
4141
4221
4c19
4001
7fff
4001
0000
0000
ENDCHAR
STARTCHAR 13-26
ENCODING 11578
SWIDTH 96 0
DWIDTH 16 0
BBX 16 16 0 -2
BITMAP
0220
0222
7fff
0220
0004
1104
1084
1088
1008
1210
1428
3826
10c2
0300
0000
0000
ENDCHAR
STARTCHAR 13-27
ENCODING 11579
SWIDTH 96 0
DWIDTH 16 0
BBX 16 16 0 -2
BITMAP
0410
7fff
0410
1000
1000
1ffe
2100
4100
01fc
0100
0100
01fc
0100
0100
0000
0000
ENDCHAR
STARTCHAR 13-28
ENCODING 11580
SWIDTH 96 0
DWIDTH 16 0
BBX 16 16 0 -2
BITMAP
0410
7fff
0410
0080
0880
17fc
2080
0080
7fff
0140
0220
0410
0808
7007
0000
0000
ENDCHAR
STARTCHAR 13-29
ENCODING 11581
SWIDTH 96 0
DWIDTH 16 0
BBX 16 16 0 -2
BITMAP
0220
0222
7fff
0220
0420
0822
0fff
1820
2820
4820
0824
0bfe
0800
0800
0000
0000
ENDCHAR
STARTCHAR 13-30
ENCODING 11582
SWIDTH 96 0
DWIDTH 16 0
BBX 16 16 0 -2
BITMAP
0220
0222
7fff
0220
0408
080a
0bff
1808
2888
4848
0848
0808
0828
0810
0000
0000
ENDCHAR
STARTCHAR 13-31
ENCODING 11583
SWIDTH 96 0
DWIDTH 16 0
BBX 16 16 0 -2
BITMAP
0410
7fff
0410
0080
0140
0220
0490
388e
02a0
0490
0888
3086
0280
0100
0000
0000
ENDCHAR
STARTCHAR 13-32
ENCODING 11584
SWIDTH 96 0
DWIDTH 16 0
BBX 16 16 0 -2
BITMAP
0410
7fff
0410
0000
7c00
0410
7c10
4010
7c20
0440
0444
0482
29ff
1001
0000
0000
ENDCHAR
STARTCHAR 13-33
ENCODING 11585
SWIDTH 96 0
DWIDTH 16 0
BBX 16 16 0 -2
BITMAP
0410
7fff
0410
0000
7fff
0080
0080
7fff
4081
4081
4141
4221
4415
4002
0000
0000
ENDCHAR
STARTCHAR 13-34
ENCODING 11586
SWIDTH 96 0
DWIDTH 16 0
BBX 16 16 0 -2
BITMAP
0220
0222
7fff
0220
3fff
0040
0080
0180
02b0
0c8c
3082
0080
0080
7fff
0000
0000
ENDCHAR
STARTCHAR 13-35
ENCODING 11587
SWIDTH 96 0
DWIDTH 16 0
BBX 16 16 0 -2
BITMAP
0220
0222
7fff
0220
1ff8
1008
1ff8
1040
1044
1ffe
1020
1411
1809
1007
0000
0000
ENDCHAR
STARTCHAR 13-36
ENCODING 11588
SWIDTH 96 0
DWIDTH 16 0
BBX 16 16 0 -2
BITMAP
0410
7fff
0410
0000
1ffc
1104
1084
7fff
1004
1104
1084
1fff
0004
0018
0000
0000
ENDCHAR
STARTCHAR 13-37
ENCODING 11589
SWIDTH 96 0
DWIDTH 16 0
BBX 16 16 0 -2
BITMAP
0410
7fff
0410
0ff0
1220
6140
0080
0140
0220
0c98
3046
0120
0080
0060
0000
0000
ENDCHAR
STARTCHAR 13-38
ENCODING 11590
SWIDTH 96 0
DWIDTH 16 0
BBX 16 16 0 -2
BITMAP
0410
7fff
0410
0000
0810
117f
2211
7c11
0811
1011
2411
2221
7e4a
0284
0000
0000
ENDCHAR
STARTCHAR 13-39
ENCODING 11591
SWIDTH 96 0
DWIDTH 16 0
BBX 16 16 0 -2
BITMAP
003e
0808
0808
7f08
4908
497f
4908
7f08
4908
0808
0a08
7f08
0108
0008
0000
0000
ENDCHAR
STARTCHAR 13-40
ENCODING 11592
SWIDTH 96 0
DWIDTH 16 0
BBX 16 16 0 -2
BITMAP
0801
087f
0810
7f10
4910
4910
497f
7f10
0810
0810
0a11
7f11
0111
001f
0000
0000
ENDCHAR
STARTCHAR 13-41
ENCODING 11593
SWIDTH 96 0
DWIDTH 16 0
BBX 16 16 0 -2
BITMAP
0840
0844
08fe
3f00
2a00
2afc
2a08
3e10
2820
0840
0a80
0e81
7281
207f
0000
0000
ENDCHAR
STARTCHAR 13-42
ENCODING 11594
SWIDTH 96 0
DWIDTH 16 0
BBX 16 16 0 -2
BITMAP
0820
0820
083f
7f21
4941
4901
4921
7f11
4909
0801
0a01
7f11
010a
0004
0000
0000
ENDCHAR
STARTCHAR 13-43
ENCODING 11595
SWIDTH 96 0
DWIDTH 16 0
BBX 16 16 0 -2
BITMAP
0080
7fff
1000
1000
1000
1ffc
0200
0400
1ffc
0924
0924
0924
0924
7fff
0000
0000
ENDCHAR
STARTCHAR 13-44
ENCODING 11596
SWIDTH 96 0
DWIDTH 16 0
BBX 16 16 0 -2
BITMAP
0be0
1087
2080
4480
088f
17f2
3082
5082
1082
1082
1082
1082
108a
1084
0000
0000
ENDCHAR
STARTCHAR 13-45
ENCODING 11597
SWIDTH 96 0
DWIDTH 16 0
BBX 16 16 0 -2
BITMAP
1000
08fe
0010
7e10
0410
08ff
1e10
6810
0c10
0a10
0810
0810
0850
0820
0000
0000
ENDCHAR
STARTCHAR 13-46
ENCODING 11598
SWIDTH 96 0
DWIDTH 16 0
BBX 16 16 0 -2
BITMAP
4010
2090
1090
7c90
09ff
1091
3491
5892
1890
1490
1081
1081
1081
10ff
0000
0000
ENDCHAR
STARTCHAR 13-47
ENCODING 11599
SWIDTH 96 0
DWIDTH 16 0
BBX 16 16 0 -2
BITMAP
4000
20fe
1002
7ca2
0892
1082
3482
5844
1828
1410
1028
1044
1082
1301
0000
0000
ENDCHAR
STARTCHAR 13-48
ENCODING 11600
SWIDTH 96 0
DWIDTH 16 0
BBX 16 16 0 -2
BITMAP
1002
3e42
4242
0442
7f42
4942
7f42
497e
7f02
4102
4102
4102
4502
4202
0000
0000
ENDCHAR
STARTCHAR 13-49
ENCODING 11601
SWIDTH 96 0
DWIDTH 16 0
BBX 16 16 0 -2
BITMAP
1020
11fc
1000
7cf8
1400
14f8
1400
14f8
1488
1488
14f9
2489
4401
03ff
0000
0000
ENDCHAR
STARTCHAR 13-50
ENCODING 11602
SWIDTH 96 0
DWIDTH 16 0
BBX 16 16 0 -2
BITMAP
1002
1fff
2102
5ff2
0002
0fe2
0fe2
0002
0fe2
0822
0822
0fe2
0824
0018
0000
0000
ENDCHAR
STARTCHAR 13-51
ENCODING 11603
SWIDTH 96 0
DWIDTH 16 0
BBX 16 16 0 -2
BITMAP
0810
0810
3e7f
0811
0811
7f11
0811
2811
2f21
2841
288a
3804
4400
03ff
0000
0000
ENDCHAR
STARTCHAR 13-52
ENCODING 11604
SWIDTH 96 0
DWIDTH 16 0
BBX 16 16 0 -2
BITMAP
4124
2124
1124
7bff
0924
1124
2124
113c
0900
0900
09ff
1800
2400
43ff
0000
0000
ENDCHAR
STARTCHAR 13-53
ENCODING 11605
SWIDTH 96 0
DWIDTH 16 0
BBX 16 16 0 -2
BITMAP
43fe
2202
13fe
0200
7240
1240
2240
427e
2240
1441
1041
107f
2800
47ff
0000
0000
ENDCHAR
STARTCHAR 13-54
ENCODING 11606
SWIDTH 96 0
DWIDTH 16 0
BBX 16 16 0 -2
BITMAP
2080
1884
08fe
0140
0248
787c
0840
1044
087e
0840
0840
1840
2400
43ff
0000
0000
ENDCHAR
STARTCHAR 13-55
ENCODING 11607
SWIDTH 96 0
DWIDTH 16 0
BBX 16 16 0 -2
BITMAP
2020
1020
083e
0020
7c20
09fe
1102
2102
1102
0902
09fe
1502
2200
41ff
0000
0000
ENDCHAR
STARTCHAR 13-56
ENCODING 11608
SWIDTH 96 0
DWIDTH 16 0
BBX 16 16 0 -2
BITMAP
2080
113f
0a11
3f92
1114
1112
1111
7fd1
1111
111a
1114
2110
4110
0110
0000
0000
ENDCHAR
STARTCHAR 13-57
ENCODING 11609
SWIDTH 96 0
DWIDTH 16 0
BBX 16 16 0 -2
BITMAP
0400
043f
3f91
0412
0414
0412
7fd1
0411
0411
3f9a
0414
0410
0410
7fd0
0000
0000
ENDCHAR
STARTCHAR 13-58
ENCODING 11610
SWIDTH 96 0
DWIDTH 16 0
BBX 16 16 0 -2
BITMAP
0400
043f
1f11
0412
0414
3f92
0111
0111
7fd9
1115
0912
0110
0510
0210
0000
0000
ENDCHAR
STARTCHAR 13-59
ENCODING 11611
SWIDTH 96 0
DWIDTH 16 0
BBX 16 16 0 -2
BITMAP
0140
011f
3fc9
210a
210c
3d0a
2549
2589
2509
250d
2aaa
2468
4028
0008
0000
0000
ENDCHAR
STARTCHAR 13-60
ENCODING 11612
SWIDTH 96 0
DWIDTH 16 0
BBX 16 16 0 -2
BITMAP
0100
7fbe
0822
1224
2124
7fa8
04a4
0422
3fa1
0431
07ea
7c24
2020
0020
0000
0000
ENDCHAR
STARTCHAR 13-61
ENCODING 11613
SWIDTH 96 0
DWIDTH 16 0
BBX 16 16 0 -2
BITMAP
0400
243e
2422
3fa2
4424
0428
7fe6
0e21
0e21
1531
152a
24e4
4420
0420
0000
0000
ENDCHAR
STARTCHAR 13-62
ENCODING 11614
SWIDTH 96 0
DWIDTH 16 0
BBX 16 16 0 -2
BITMAP
103e
1fa2
20a2
20a4
5ea4
12a8
12a4
1ea2
12a1
1eb1
12aa
00a4
0520
0220
0000
0000
ENDCHAR
STARTCHAR 13-63
ENCODING 11615
SWIDTH 96 0
DWIDTH 16 0
BBX 16 16 0 -2
BITMAP
1000
103f
3f91
6092
2094
3f92
2091
2091
3f91
209a
2094
2090
3f90
2090
0000
0000
ENDCHAR
STARTCHAR 13-64
ENCODING 11616
SWIDTH 96 0
DWIDTH 16 0
BBX 16 16 0 -2
BITMAP
0080
3f3f
2012
2014
3f94
2012
2011
2f91
2891
2899
2896
4890
0f90
0890
0000
0000
ENDCHAR
STARTCHAR 13-65
ENCODING 11617
SWIDTH 96 0
DWIDTH 16 0
BBX 16 16 0 -2
BITMAP
0800
1404
227e
4108
3e10
0810
0820
7f20
0840
0840
2a81
1c81
0881
7f7f
0000
0000
ENDCHAR
STARTCHAR 13-66
ENCODING 11618
SWIDTH 96 0
DWIDTH 16 0
BBX 16 16 0 -2
BITMAP
0840
1440
2240
4140
3e40
0840
0840
7f40
0840
0840
2a41
1c41
0841
7f3f
0000
0000
ENDCHAR
STARTCHAR 13-67
ENCODING 11619
SWIDTH 96 0
DWIDTH 16 0
BBX 16 16 0 -2
BITMAP
3c20
2422
27ff
2840
2848
3088
29f0
2894
2428
34c8
2810
206c
2183
2601
0000
0000
ENDCHAR
STARTCHAR 13-68
ENCODING 11620
SWIDTH 96 0
DWIDTH 16 0
BBX 16 16 0 -2
BITMAP
7820
4820
53ff
6020
507e
48c2
497e
4a42
487e
6842
5042
4042
408a
4004
0000
0000
ENDCHAR
STARTCHAR 13-69
ENCODING 11621
SWIDTH 96 0
DWIDTH 16 0
BBX 16 16 0 -2
BITMAP
7dff
4410
4820
5040
51ff
4929
4529
4529
4529
5529
4929
4129
4129
4102
0000
0000
ENDCHAR
STARTCHAR 13-70
ENCODING 11622
SWIDTH 96 0
DWIDTH 16 0
BBX 16 16 0 -2
BITMAP
7820
4bfe
5020
6050
5088
4974
4a02
4dfd
6880
50fc
4004
4004
4008
4070
0000
0000
ENDCHAR
STARTCHAR 13-71
ENCODING 11623
SWIDTH 96 0
DWIDTH 16 0
BBX 16 16 0 -2
BITMAP
7880
49fc
5210
6120
50c0
4880
4b20
487e
6884
5148
4030
4020
4040
4780
0000
0000
ENDCHAR
STARTCHAR 13-72
ENCODING 11624
SWIDTH 96 0
DWIDTH 16 0
BBX 16 16 0 -2
BITMAP
7920
4920
51fc
6220
5020
4820
4bfe
4870
68a8
5124
4222
4421
4020
4020
0000
0000
ENDCHAR
STARTCHAR 13-73
ENCODING 11625
SWIDTH 96 0
DWIDTH 16 0
BBX 16 16 0 -2
BITMAP
0410
05ff
0800
18fe
2882
4882
08fe
0810
0854
0892
0911
0810
0850
0820
0000
0000
ENDCHAR
STARTCHAR 13-74
ENCODING 11626
SWIDTH 96 0
DWIDTH 16 0
BBX 16 16 0 -2
BITMAP
0820
17ff
2000
6104
2104
228a
2471
2020
27ff
2020
2020
2020
2020
2020
0000
0000
ENDCHAR
STARTCHAR 13-75
ENCODING 11627
SWIDTH 96 0
DWIDTH 16 0
BBX 16 16 0 -2
BITMAP
0820
0820
17ff
2401
6100
23df
2451
2c51
2251
219e
2110
2211
2411
281f
0000
0000
ENDCHAR
STARTCHAR 13-76
ENCODING 11628
SWIDTH 96 0
DWIDTH 16 0
BBX 16 16 0 -2
BITMAP
0820
1222
2124
4020
2050
2088
2707
2020
2222
2124
2050
2050
2088
2707
0000
0000
ENDCHAR
STARTCHAR 13-77
ENCODING 11629
SWIDTH 96 0
DWIDTH 16 0
BBX 16 16 0 -2
BITMAP
1020
17ff
2020
43fe
2022
27ff
2022
23fe
2020
2120
213e
22a0
2460
283f
0000
0000
ENDCHAR
STARTCHAR 13-78
ENCODING 11630
SWIDTH 96 0
DWIDTH 16 0
BBX 16 16 0 -2
BITMAP
1020
1020
23fe
4020
27ff
2104
2247
24fc
2188
2250
2420
2050
2088
2707
0000
0000
ENDCHAR
STARTCHAR 13-79
ENCODING 11631
SWIDTH 96 0
DWIDTH 16 0
BBX 16 16 0 -2
BITMAP
0800
1104
2104
47ff
2104
21fc
2104
21fc
2104
2104
27ff
2088
2104
2603
0000
0000
ENDCHAR
STARTCHAR 13-80
ENCODING 11632
SWIDTH 96 0
DWIDTH 16 0
BBX 16 16 0 -2
BITMAP
0820
0820
13fe
2020
43fe
2020
27ff
2040
2092
2194
2688
2084
20a2
23c1
0000
0000
ENDCHAR
STARTCHAR 13-81
ENCODING 11633
SWIDTH 96 0
DWIDTH 16 0
BBX 16 16 0 -2
BITMAP
0848
0844
13fe
3040
5028
1011
10ef
1000
1044
13ff
1040
1028
1011
11ef
0000
0000
ENDCHAR
STARTCHAR 13-82
ENCODING 11634
SWIDTH 96 0
DWIDTH 16 0
BBX 16 16 0 -2
BITMAP
0820
0bfe
1020
33fe
5222
13fe
1020
13fe
1022
17ff
1022
13fe
1020
1060
0000
0000
ENDCHAR
STARTCHAR 13-83
ENCODING 11635
SWIDTH 96 0
DWIDTH 16 0
BBX 16 16 0 -2
BITMAP
1020
17ff
2050
4088
2104
26fb
2000
23fe
2020
20a8
2124
2623
2020
2040
0000
0000
ENDCHAR
STARTCHAR 13-84
ENCODING 11636
SWIDTH 96 0
DWIDTH 16 0
BBX 16 16 0 -2
BITMAP
0420
043e
0820
09fc
1904
29fc
4904
09fc
0920
0822
0fff
0820
0820
0820
0000
0000
ENDCHAR
ENDFONT
